<svg width="101" height="100" viewBox="0 0 101 100" fill="none" xmlns="http://www.w3.org/2000/svg">
<path d="M59.1787 67.2134L64.6756 66.3222C65.0556 66.2602 65.4457 66.3222 65.787 66.5006L98.2158 83.4868C98.886 83.8381 99.2614 84.5742 99.152 85.3234C99.0434 86.0727 98.4734 86.6715 97.7303 86.8165L30.3782 99.9672C29.8764 100.065 29.3575 99.9439 28.9511 99.6329L2.55818 79.4489C1.99198 79.0161 1.73757 78.2878 1.91131 77.5967C2.08505 76.9056 2.65359 76.3836 3.35708 76.2704L32.1048 71.619L59.1787 67.2134Z" fill="#7D57AB"/>
<path d="M57.6091 74.7043L63.4589 73.7488C63.8405 73.6852 64.2322 73.748 64.5758 73.9272L76.9036 80.3889C77.5737 80.7402 77.9491 81.4771 77.8397 82.2263C77.7304 82.9756 77.1595 83.5736 76.4165 83.7186L32.1594 92.3513C31.6583 92.4491 31.1387 92.3281 30.7322 92.0178L20.031 83.8342C19.4663 83.4022 19.2127 82.6746 19.3856 81.9843C19.5586 81.294 20.1264 80.7728 20.8283 80.658L35.507 78.2714L57.6091 74.7043Z" fill="#583686"/>
<path d="M4.62109 48.3976C4.86929 48.1797 7.46065 49.5192 7.72824 49.6371C10.3599 50.7943 12.9079 52.1346 15.3511 53.6502C21.6778 57.5221 26.9831 62.8553 30.8217 69.2022C33.9451 74.4035 36.31 84.0686 43.8599 84.0686C47.4766 84.0686 51.5874 84.1857 54.3362 81.4268C57.6962 78.0505 57.7567 73.123 58.7953 68.764C63.9416 48.206 73.7695 29.1164 87.5104 12.9827C88.3543 11.9736 89.2114 10.9746 90.0801 9.98642C91.8446 8.00315 93.717 6.11838 95.6878 4.33988C95.9554 4.09711 96.4192 3.59993 96.9723 3.03218C97.4787 2.51561 97.623 1.74387 97.3368 1.07916C97.0514 0.414447 96.3921 -0.0121463 95.6684 0.000263679C84.3125 0.360929 57.2929 6.30531 42.076 51.9647C42.076 51.9647 18.8895 35.9124 4.62109 48.3976Z" fill="#4FBA6F"/>
<path d="M61.6954 32.3451C61.3929 32.3451 61.0958 32.2683 60.8321 32.1201C59.9711 31.6424 59.6609 30.5573 60.1379 29.6963C69.2181 13.3501 80.066 7.79116 80.5166 7.56235C81.3977 7.11947 82.4704 7.47393 82.9141 8.35426C83.357 9.23537 83.0025 10.3081 82.1222 10.7517C81.9864 10.8207 71.7529 16.1431 63.2613 31.4267C62.9457 31.9953 62.3453 32.3474 61.6954 32.3451Z" fill="#68D683"/>
<path d="M56.3452 41.2624C55.7271 41.2624 55.1539 40.9421 54.8289 40.417C54.5039 39.8911 54.4744 39.2349 54.7506 38.6819L56.5345 35.1148C56.8191 34.5447 57.3869 34.1701 58.0229 34.1321C58.6597 34.0941 59.2678 34.3981 59.6184 34.9302C59.9697 35.4623 60.0101 36.141 59.7254 36.711L57.9415 40.2781C57.639 40.8823 57.0208 41.2632 56.3452 41.2624Z" fill="#68D683"/>
</svg>
