<svg width="100" height="100" viewBox="0 0 100 100" fill="none" xmlns="http://www.w3.org/2000/svg">
<path d="M98.6673 85.4542C97.7604 87.1188 96.4388 88.5217 94.8442 89.5107C93.1431 90.5646 91.1661 91.1225 89.1281 91.1225H10.873C8.83414 91.1225 6.85814 90.5646 5.15697 89.5107C3.56236 88.5217 2.2406 87.1188 1.33381 85.4542C0.426908 83.7886 -0.0335488 81.916 0.00190308 80.0405C0.0404923 78.0401 0.645058 76.0773 1.7517 74.3651L12.9352 57.0659L40.8792 13.8422C42.8897 10.7342 46.2991 8.87793 50.0005 8.87793C53.702 8.87793 57.1113 10.7342 59.1208 13.8422L87.0648 57.0659L98.2483 74.3651C99.3549 76.0773 99.9605 78.0401 99.9981 80.0405C100.034 81.9161 99.5732 83.7886 98.6673 85.4542Z" fill="#161A23"/>
<path d="M88.3079 86.6026H11.6939C6.16712 86.6026 2.83548 80.4815 5.83603 75.8401L44.143 16.5863C46.8913 12.3352 53.1104 12.3352 55.8587 16.5863L94.1657 75.8401C97.1663 80.4814 93.8347 86.6026 88.3079 86.6026Z" fill="url(#paint0_linear_2167_287315)"/>
<path d="M53.6011 33.2798L52.3345 61.6655C52.277 62.9551 51.185 63.9538 49.8955 63.8963C48.6794 63.842 47.7217 62.8578 47.6647 61.6655L46.3982 33.2798C46.3094 31.2908 47.8499 29.6064 49.839 29.5176C51.9408 29.4126 53.7043 31.1794 53.6011 33.2798Z" fill="#161A23"/>
<path d="M50.0007 76.1483C52.0117 76.1483 53.642 74.5181 53.642 72.507C53.642 70.496 52.0117 68.8657 50.0007 68.8657C47.9896 68.8657 46.3594 70.496 46.3594 72.507C46.3594 74.5181 47.9896 76.1483 50.0007 76.1483Z" fill="#161A23"/>
<path opacity="0.36" d="M87.0652 57.0659C76.6303 62.998 63.8299 66.4905 50.0009 66.4905C36.1709 66.4905 23.3704 62.998 12.9355 57.0659L40.8796 13.8422C42.8901 10.7342 46.2995 8.87793 50.0009 8.87793C53.7023 8.87793 57.1117 10.7342 59.1211 13.8422L87.0652 57.0659Z" fill="url(#paint1_linear_2167_287315)"/>
<defs>
<linearGradient id="paint0_linear_2167_287315" x1="21.5284" y1="50.0002" x2="78.3353" y2="50.0002" gradientUnits="userSpaceOnUse">
<stop stop-color="#FFD445"/>
<stop offset="0.9989" stop-color="#FF9A1F"/>
</linearGradient>
<linearGradient id="paint1_linear_2167_287315" x1="50.0004" y1="63.8798" x2="50.0004" y2="11.123" gradientUnits="userSpaceOnUse">
<stop stop-color="white" stop-opacity="0.8"/>
<stop offset="1" stop-color="white" stop-opacity="0"/>
</linearGradient>
</defs>
</svg>
