<svg width="20" height="20" viewBox="0 0 20 20" fill="none" xmlns="http://www.w3.org/2000/svg">
<g clip-path="url(#clip0_2087_8362)">
<path d="M8.82324 0C11.18 0 13.396 0.9175 15.0625 2.58398C16.729 4.25047 17.6465 6.46648 17.6465 8.82324V10.3076C19.0645 11.2582 20 12.8753 20 14.707C20 17.6256 17.6256 20 14.707 20C13.7847 20 12.917 19.7622 12.1611 19.3457C11.1021 19.7794 9.98059 20 8.82324 20C6.46648 20 4.25047 19.0825 2.58398 17.416C0.9175 15.7495 0 13.5335 0 11.1768V8.82324C0 6.46648 0.9175 4.25047 2.58398 2.58398C4.25047 0.9175 6.46648 0 8.82324 0ZM8.82324 1.17188C4.60426 1.17188 1.17188 4.60426 1.17188 8.82324V11.1768C1.17188 15.3957 4.60426 18.8281 8.82324 18.8281C9.57879 18.8281 10.3164 18.7204 11.0264 18.5068C10.7154 18.2055 10.4409 17.8664 10.2109 17.4971C9.75654 17.5965 9.29155 17.6465 8.82324 17.6465C5.25583 17.6465 2.35354 14.7441 2.35352 11.1768V8.82324C2.35354 5.25588 5.25583 2.35352 8.82324 2.35352C12.3907 2.35352 15.2929 5.25588 15.293 8.82324V9.44629C15.7026 9.4916 16.0983 9.58407 16.4746 9.71777V8.82324C16.4746 4.60426 13.0422 1.17188 8.82324 1.17188ZM14.707 10.5859C12.4347 10.586 10.586 12.4347 10.5859 14.707C10.5859 16.9794 12.4347 18.8281 14.707 18.8281C16.9794 18.8281 18.8281 16.9794 18.8281 14.707C18.8281 12.4347 16.9794 10.5859 14.707 10.5859ZM17.5928 13.4082L14.2012 16.7988L11.8213 14.4189L12.6504 13.5908L14.2012 15.1416L16.7646 12.5791L17.5928 13.4082ZM8.82324 15.293C8.56195 15.2932 8.28888 15.4112 8.1377 15.5352C7.86668 15.7557 7.56254 16.0026 7.24512 16.2344C7.74363 16.3902 8.27402 16.4746 8.82324 16.4746C9.11558 16.4746 9.40602 16.4497 9.69238 16.4023C9.59503 16.1151 9.52152 15.8165 9.47461 15.5098C9.28702 15.3702 9.05746 15.293 8.82324 15.293ZM8.82324 8.23242C8.49749 8.23244 8.23244 8.49749 8.23242 8.82324V10C8.23241 11.1994 7.82007 12.3745 7.07129 13.3086C6.52597 13.9888 5.81786 14.5238 5.02441 14.8652C5.31634 15.1659 5.64332 15.4322 5.99902 15.6572C6.47089 15.3788 7.03726 14.9211 7.40918 14.6172C7.80898 14.2974 8.31133 14.1211 8.82324 14.1211C9.03173 14.1211 9.23848 14.1508 9.4375 14.207C9.49961 13.5475 9.6833 12.9227 9.96582 12.3555C9.60389 11.6271 9.41407 10.8194 9.41406 10V8.82324C9.41404 8.49748 9.14901 8.23242 8.82324 8.23242ZM8.82324 5.87891C7.1997 5.87891 5.87893 7.19974 5.87891 8.82324V10C5.87891 11.3269 4.99501 12.4513 3.78516 12.8154C3.90952 13.1968 4.07609 13.5594 4.2793 13.8975C5.01137 13.6449 5.66825 13.1851 6.15723 12.5752C6.74821 11.8378 7.06054 10.9473 7.06055 10V8.82324C7.06057 7.85131 7.8513 7.06055 8.82324 7.06055C9.79516 7.06055 10.5859 7.85126 10.5859 8.82324V10C10.5859 10.4033 10.6453 10.8031 10.7598 11.1855C11.0612 10.848 11.4053 10.5493 11.7832 10.2979C11.7732 10.1992 11.7676 10.0995 11.7676 10V8.82324C11.7676 7.19971 10.4467 5.87891 8.82324 5.87891ZM8.82324 3.52539C5.90201 3.52539 3.52541 5.90205 3.52539 8.82324V11.1768C3.52539 11.3396 3.5334 11.501 3.54785 11.6602C4.22373 11.4117 4.70703 10.761 4.70703 10V8.82324C4.70703 6.55352 6.55355 4.70703 8.82324 4.70703C11.0929 4.70703 12.9395 6.55359 12.9395 8.82324V9.71777C13.3157 9.58407 13.7114 9.49164 14.1211 9.44629V8.82324C14.1211 5.90205 11.7445 3.52539 8.82324 3.52539Z" fill="#556485"/>
</g>
<defs>
<clipPath id="clip0_2087_8362">
<rect width="20" height="20" fill="white"/>
</clipPath>
</defs>
</svg>
