<svg width="22" height="20" viewBox="0 0 22 20" fill="none" xmlns="http://www.w3.org/2000/svg">
    <path d="M18.45.64A2.553 2.553 0 0 1 21 3.19v15.002l-1.958 1.167-1.372-.817-1.371.817-1.372-.817-1.371.817-1.372-.817-1.371.817-1.959-1.167v-4.174H5.947A2.554 2.554 0 0 1 3.55 15.7 2.553 2.553 0 0 1 1 13.15V3.62h3.928v-.43A2.553 2.553 0 0 1 7.478.64H18.45zM9.621 1.813c.256.398.405.871.405 1.378v14.337l.787.468 1.37-.817 1.373.817 1.37-.817 1.373.817 1.37-.817 1.373.817.786-.468V3.19a1.38 1.38 0 0 0-1.378-1.377H9.621zm5.893 7.856c.655.24 1.125.87 1.125 1.607h-1.172a.54.54 0 1 0-.54.54c.944 0 1.712.767 1.712 1.71 0 .738-.47 1.368-1.125 1.608v.682h-1.172v-.682a1.714 1.714 0 0 1-1.125-1.608h1.172a.54.54 0 1 0 .539-.539c-.944 0-1.711-.767-1.711-1.71 0-.738.47-1.368 1.125-1.608v-.684h1.172v.684zM2.172 13.15c0 .76.618 1.378 1.378 1.378a1.38 1.38 0 0 0 1.378-1.378V4.791H2.172v8.36zM7.478 1.812A1.38 1.38 0 0 0 6.1 3.19v9.656h2.754V3.19a1.38 1.38 0 0 0-1.376-1.377zm10.525 5.756h-6.15V6.396h6.15v1.172zm0-2.777h-6.15V3.619h6.15v1.172z" fill="#556485"/>
    <path d="m21 18.192.051.086.049-.029v-.057H21zm-1.958 1.167-.051.086.051.03.051-.03-.051-.086zm-1.372-.817.051-.086-.051-.03-.051.03.05.086zm-1.371.817-.051.086.05.03.052-.03-.051-.086zm-1.372-.817.05-.086-.05-.03-.051.03.05.086zm-1.371.817-.051.086.05.03.052-.03-.051-.086zm-1.372-.817.05-.086-.05-.03-.052.03.052.086zm-1.371.817-.052.086.052.03.05-.03-.05-.086zm-1.959-1.167h-.1v.057l.05.03.05-.087zm0-4.174h.1v-.1h-.1v.1zm-2.907 0v-.1h-.07l-.024.066.094.034zM3.55 15.7v.1-.1zM1 3.62v-.1H.9v.1H1zm3.928 0v.1h.1v-.1h-.1zM9.62 1.811v-.1h-.183l.1.155.083-.054zm.405 15.715h-.1v.057l.05.03.05-.087zm.787.468-.052.086.052.03.05-.03-.05-.086zm1.37-.817.052-.086-.051-.03-.052.03.052.086zm1.373.817-.051.086.05.03.052-.03-.051-.086zm1.37-.817.052-.086-.051-.03-.051.03.05.086zm1.373.817-.051.086.05.03.052-.03-.051-.086zm1.37-.817.052-.086-.051-.03-.051.03.05.086zm1.373.817-.051.086.051.03.051-.03-.051-.086zm.786-.468.051.086.05-.029v-.057h-.1zm-4.314-7.859h-.1v.07l.065.024.035-.094zm1.125 1.607v.1h.1v-.1h-.1zm-1.172 0h-.1v.1h.1v-.1zm-.54-.539v-.1.1zm-.538.54h-.1.1zm.539.539v-.1.1zm1.71 1.71h.1-.1zm-1.124 1.608-.035-.094-.065.024v.07h.1zm0 .682v.1h.1v-.1h-.1zm-1.172 0h-.1v.1h.1v-.1zm0-.682h.1v-.07l-.066-.024-.034.094zm-1.125-1.608v-.1h-.1v.1h.1zm1.172 0h.1v-.1h-.1v.1zm.539.54v.1-.1zm.539-.54h.1-.1zm-.54-.539v-.1.1zm-1.71-1.71h-.1.1zm1.125-1.608.034.094.066-.024v-.07h-.1zm0-.684v-.1h-.1v.1h.1zm1.172 0h.1v-.1h-.1v.1zM3.55 14.528v.1-.1zm1.378-9.737h.1v-.1h-.1v.1zm-2.756 0v-.1h-.1v.1h.1zm5.306-2.979v-.1.1zM6.1 12.847H6v.1h.1v-.1zm2.754 0v.1h.1v-.1h-.1zm9.149-5.278v.1h.1v-.1h-.1zm-6.15 0h-.1v.1h.1v-.1zm0-1.172v-.1h-.1v.1h.1zm6.15 0h.1v-.1h-.1v.1zm0-1.605v.1h.1v-.1h-.1zm-6.15 0h-.1v.1h.1v-.1zm0-1.172v-.1h-.1v.1h.1zm6.15 0h.1v-.1h-.1v.1zM18.45.641v.1c1.35 0 2.45 1.099 2.45 2.45h.2A2.653 2.653 0 0 0 18.45.54v.1zM21 3.19h-.1v15.001h.2V3.19H21zm0 15.001-.051-.085-1.958 1.166.051.086.051.086 1.958-1.167-.051-.086zm-1.958 1.167.051-.086-1.372-.817-.051.086-.051.086 1.372.817.051-.086zm-1.372-.817-.051-.086-1.371.817.05.086.052.086 1.371-.817-.051-.086zm-1.371.817.051-.086-1.372-.817-.051.086-.051.086 1.372.817.05-.086zm-1.372-.817-.051-.086-1.371.817.05.086.052.086 1.371-.817-.051-.086zm-1.371.817.05-.086-1.371-.817-.051.086-.052.086 1.373.817.05-.086zm-1.372-.817-.052-.086-1.37.817.05.086.052.086 1.37-.817-.05-.086zm-1.371.817.05-.086-1.957-1.166-.052.085-.05.086 1.957 1.167.052-.086zm-1.959-1.167h.1v-4.174h-.2v4.174h.1zm0-4.174v-.1H5.947v.2h2.907v-.1zm-2.907 0-.094-.035A2.454 2.454 0 0 1 3.55 15.6v.2c1.145 0 2.122-.73 2.491-1.748l-.094-.034zM3.55 15.7v-.1c-1.35 0-2.45-1.099-2.45-2.45H.9a2.653 2.653 0 0 0 2.65 2.65v-.1zM1 13.15h.1V3.62H.9v9.53H1zm0-9.53v.1h3.928v-.2H1v.1zm3.928 0h.1v-.43h-.2v.43h.1zm0-.43h.1c0-1.35 1.099-2.45 2.45-2.45v-.2a2.653 2.653 0 0 0-2.65 2.65h.1zM7.478.64v.1H18.45v-.2H7.478v.1zM9.62 1.813l-.084.055c.246.382.39.836.39 1.323h.2c0-.527-.155-1.018-.422-1.432l-.084.054zm.405 1.378h-.1v14.337h.2V3.19h-.1zm0 14.337-.05.086.785.468.052-.086.05-.086-.785-.468-.052.086zm.787.468.05.086 1.372-.817-.051-.086-.052-.086-1.37.817.05.086zm1.37-.817-.05.086 1.372.817.05-.086.052-.086-1.372-.817-.051.086zm1.373.817.05.086 1.372-.817-.051-.086-.051-.086-1.371.817.05.086zm1.37-.817-.05.086 1.372.817.05-.086.052-.086-1.372-.817-.051.086zm1.373.817.051.086 1.371-.817-.051-.086-.051-.086-1.371.817.05.086zm1.37-.817-.05.086 1.372.817.051-.086.051-.086-1.372-.817-.051.086zm1.373.817.051.086.786-.468-.05-.086-.052-.086-.786.468.051.086zm.786-.468h.1V3.19h-.2v14.337h.1zm0-14.337h.1a1.48 1.48 0 0 0-1.478-1.478v.2a1.28 1.28 0 0 1 1.278 1.278h.1zM18.45 1.813v-.1H9.621v.2h8.83v-.1zm-2.936 7.855-.035.094c.618.226 1.06.82 1.06 1.513h.2c0-.78-.497-1.447-1.191-1.701l-.034.094zm1.125 1.607v-.1h-1.172v.2h1.172v-.1zm-1.172 0h.1a.64.64 0 0 0-.64-.639v.2a.44.44 0 0 1 .44.44h.1zm-.54-.539v-.1a.64.64 0 0 0-.638.64h.2a.44.44 0 0 1 .439-.44v-.1zm-.538.54h-.1c0 .352.286.639.639.639v-.2a.44.44 0 0 1-.44-.44h-.1zm.539.539v.1c.888 0 1.61.722 1.61 1.61h.2c0-.998-.812-1.81-1.81-1.81v.1zm1.71 1.71h-.1c0 .694-.441 1.288-1.059 1.514l.035.094.034.094a1.814 1.814 0 0 0 1.19-1.702h-.1zm-1.124 1.608h-.1v.682h.2v-.682h-.1zm0 .682v-.1h-1.172v.2h1.172v-.1zm-1.172 0h.1v-.682h-.2v.682h.1zm0-.682.034-.094a1.614 1.614 0 0 1-1.06-1.514h-.2c0 .781.498 1.448 1.191 1.702l.035-.094zm-1.125-1.608v.1h1.172v-.2h-1.172v.1zm1.172 0h-.1c0 .353.286.64.639.64v-.2a.44.44 0 0 1-.44-.44h-.1zm.539.54v.1a.64.64 0 0 0 .639-.64h-.2a.44.44 0 0 1-.44.44v.1zm.539-.54h.1a.64.64 0 0 0-.64-.639v.2a.44.44 0 0 1 .44.44h.1zm-.54-.539v-.1c-.887 0-1.61-.722-1.61-1.61h-.2c0 .998.812 1.81 1.81 1.81v-.1zm-1.71-1.71h.1c0-.695.441-1.288 1.06-1.514l-.035-.094-.035-.094c-.693.254-1.19.92-1.19 1.701h.1zm1.125-1.608h.1v-.684h-.2v.684h.1zm0-.684v.1h1.172v-.2h-1.172v.1zm1.172 0h-.1v.684h.2v-.684h-.1zM2.172 13.15h-.1a1.48 1.48 0 0 0 1.478 1.478v-.2a1.28 1.28 0 0 1-1.278-1.278h-.1zm1.378 1.378v.1a1.48 1.48 0 0 0 1.478-1.478h-.2a1.28 1.28 0 0 1-1.278 1.278v.1zm1.378-1.378h.1V4.791h-.2v8.36h.1zm0-8.359v-.1H2.172v.2h2.756v-.1zm-2.756 0h-.1v8.36h.2V4.79h-.1zm5.306-2.979v-.1A1.48 1.48 0 0 0 6 3.19h.2a1.28 1.28 0 0 1 1.278-1.277v-.1zM6.1 3.19H6v9.656h.2V3.19h-.1zm0 9.656v.1h2.754v-.2H6.1v.1zm2.754 0h.1V3.19h-.2v9.656h.1zm0-9.656h.1a1.48 1.48 0 0 0-1.476-1.478v.2A1.28 1.28 0 0 1 8.754 3.19h.1zm9.149 4.378v-.1h-6.15v.2h6.15v-.1zm-6.15 0h.1V6.396h-.2v1.172h.1zm0-1.172v.1h6.15v-.2h-6.15v.1zm6.15 0h-.1v1.172h.2V6.396h-.1zm0-1.605v-.1h-6.15v.2h6.15v-.1zm-6.15 0h.1V3.619h-.2v1.172h.1zm0-1.172v.1h6.15v-.2h-6.15v.1zm6.15 0h-.1v1.172h.2V3.619h-.1z" fill="#556485"/>
</svg>
