<svg width="20" height="20" viewBox="0 0 20 20" fill="none" xmlns="http://www.w3.org/2000/svg">
<g clip-path="url(#clip0_2087_8451)">
<path d="M20 16.6895H0V3.75H20V16.6895ZM1.17188 15.5176H18.8281V13.1592H17.3037L16.127 14.3359H14.1387V13.1641H15.6416L16.8184 11.9873H18.8281V10.8057H14.9502L13.7734 11.9824H11.7852V10.8105H13.2881L13.8789 10.2197L13.2881 9.62891H11.7852V8.45703H13.7734L14.9502 9.63379H18.8281V8.45215H16.8184L15.6416 7.27539H14.1387V6.10352H16.127L17.3037 7.28027H18.8281V4.92188H1.17188V15.5176ZM3.52539 14.3359H2.35352V13.1641H3.52539V14.3359ZM5.87891 14.3359H4.70703V13.1641H5.87891V14.3359ZM5.87891 9.62891H2.35352V6.10352H5.87891V9.62891ZM3.52539 8.45703H4.70703V7.27539H3.52539V8.45703Z" fill="#E3E3E3"/>
<path d="M20 16.6895V16.7895H20.1V16.6895H20ZM0 16.6895H-0.1V16.7895H0V16.6895ZM0 3.75V3.65H-0.1V3.75H0ZM20 3.75H20.1V3.65H20V3.75ZM1.17188 15.5176H1.07187V15.6176H1.17188V15.5176ZM18.8281 15.5176V15.6176H18.9281V15.5176H18.8281ZM18.8281 13.1592H18.9281V13.0592H18.8281V13.1592ZM17.3037 13.1592V13.0592H17.2623L17.233 13.0885L17.3037 13.1592ZM16.127 14.3359V14.4359H16.1684L16.1977 14.4066L16.127 14.3359ZM14.1387 14.3359H14.0387V14.4359H14.1387V14.3359ZM14.1387 13.1641V13.0641H14.0387V13.1641H14.1387ZM15.6416 13.1641V13.2641H15.683L15.7123 13.2348L15.6416 13.1641ZM16.8184 11.9873V11.8873H16.7769L16.7476 11.9166L16.8184 11.9873ZM18.8281 11.9873V12.0873H18.9281V11.9873H18.8281ZM18.8281 10.8057H18.9281V10.7057H18.8281V10.8057ZM14.9502 10.8057V10.7057H14.9088L14.8795 10.735L14.9502 10.8057ZM13.7734 11.9824V12.0824H13.8149L13.8441 12.0531L13.7734 11.9824ZM11.7852 11.9824H11.6852V12.0824H11.7852V11.9824ZM11.7852 10.8105V10.7105H11.6852V10.8105H11.7852ZM13.2881 10.8105V10.9105H13.3295L13.3588 10.8813L13.2881 10.8105ZM13.8789 10.2197L13.9496 10.2904L14.0203 10.2197L13.9496 10.149L13.8789 10.2197ZM13.2881 9.62891L13.3588 9.5582L13.3295 9.52891H13.2881V9.62891ZM11.7852 9.62891H11.6852V9.72891H11.7852V9.62891ZM11.7852 8.45703V8.35703H11.6852V8.45703H11.7852ZM13.7734 8.45703L13.8441 8.38632L13.8149 8.35703H13.7734V8.45703ZM14.9502 9.63379L14.8795 9.7045L14.9088 9.73379H14.9502V9.63379ZM18.8281 9.63379V9.73379H18.9281V9.63379H18.8281ZM18.8281 8.45215H18.9281V8.35215H18.8281V8.45215ZM16.8184 8.45215L16.7476 8.52286L16.7769 8.55215H16.8184V8.45215ZM15.6416 7.27539L15.7123 7.20468L15.683 7.17539H15.6416V7.27539ZM14.1387 7.27539H14.0387V7.37539H14.1387V7.27539ZM14.1387 6.10352V6.00352H14.0387V6.10352H14.1387ZM16.127 6.10352L16.1977 6.0328L16.1684 6.00352H16.127V6.10352ZM17.3037 7.28027L17.233 7.35098L17.2623 7.38027H17.3037V7.28027ZM18.8281 7.28027V7.38027H18.9281V7.28027H18.8281ZM18.8281 4.92188H18.9281V4.82187H18.8281V4.92188ZM1.17188 4.92188V4.82187H1.07187V4.92188H1.17188ZM3.52539 14.3359V14.4359H3.62539V14.3359H3.52539ZM2.35352 14.3359H2.25352V14.4359H2.35352V14.3359ZM2.35352 13.1641V13.0641H2.25352V13.1641H2.35352ZM3.52539 13.1641H3.62539V13.0641H3.52539V13.1641ZM5.87891 14.3359V14.4359H5.97891V14.3359H5.87891ZM4.70703 14.3359H4.60703V14.4359H4.70703V14.3359ZM4.70703 13.1641V13.0641H4.60703V13.1641H4.70703ZM5.87891 13.1641H5.97891V13.0641H5.87891V13.1641ZM5.87891 9.62891V9.72891H5.97891V9.62891H5.87891ZM2.35352 9.62891H2.25352V9.72891H2.35352V9.62891ZM2.35352 6.10352V6.00352H2.25352V6.10352H2.35352ZM5.87891 6.10352H5.97891V6.00352H5.87891V6.10352ZM3.52539 8.45703H3.42539V8.55703H3.52539V8.45703ZM4.70703 8.45703V8.55703H4.80703V8.45703H4.70703ZM4.70703 7.27539H4.80703V7.17539H4.70703V7.27539ZM3.52539 7.27539V7.17539H3.42539V7.27539H3.52539ZM20 16.6895V16.5895H0V16.6895V16.7895H20V16.6895ZM0 16.6895H0.1V3.75H0H-0.1V16.6895H0ZM0 3.75V3.85H20V3.75V3.65H0V3.75ZM20 3.75H19.9V16.6895H20H20.1V3.75H20ZM1.17188 15.5176V15.6176H18.8281V15.5176V15.4176H1.17188V15.5176ZM18.8281 15.5176H18.9281V13.1592H18.8281H18.7281V15.5176H18.8281ZM18.8281 13.1592V13.0592H17.3037V13.1592V13.2592H18.8281V13.1592ZM17.3037 13.1592L17.233 13.0885L16.0562 14.2652L16.127 14.3359L16.1977 14.4066L17.3744 13.2299L17.3037 13.1592ZM16.127 14.3359V14.2359H14.1387V14.3359V14.4359H16.127V14.3359ZM14.1387 14.3359H14.2387V13.1641H14.1387H14.0387V14.3359H14.1387ZM14.1387 13.1641V13.2641H15.6416V13.1641V13.0641H14.1387V13.1641ZM15.6416 13.1641L15.7123 13.2348L16.8891 12.058L16.8184 11.9873L16.7476 11.9166L15.5709 13.0934L15.6416 13.1641ZM16.8184 11.9873V12.0873H18.8281V11.9873V11.8873H16.8184V11.9873ZM18.8281 11.9873H18.9281V10.8057H18.8281H18.7281V11.9873H18.8281ZM18.8281 10.8057V10.7057H14.9502V10.8057V10.9057H18.8281V10.8057ZM14.9502 10.8057L14.8795 10.735L13.7027 11.9117L13.7734 11.9824L13.8441 12.0531L15.0209 10.8764L14.9502 10.8057ZM13.7734 11.9824V11.8824H11.7852V11.9824V12.0824H13.7734V11.9824ZM11.7852 11.9824H11.8852V10.8105H11.7852H11.6852V11.9824H11.7852ZM11.7852 10.8105V10.9105H13.2881V10.8105V10.7105H11.7852V10.8105ZM13.2881 10.8105L13.3588 10.8813L13.9496 10.2904L13.8789 10.2197L13.8082 10.149L13.2174 10.7398L13.2881 10.8105ZM13.8789 10.2197L13.9496 10.149L13.3588 9.5582L13.2881 9.62891L13.2174 9.69962L13.8082 10.2904L13.8789 10.2197ZM13.2881 9.62891V9.52891H11.7852V9.62891V9.72891H13.2881V9.62891ZM11.7852 9.62891H11.8852V8.45703H11.7852H11.6852V9.62891H11.7852ZM11.7852 8.45703V8.55703H13.7734V8.45703V8.35703H11.7852V8.45703ZM13.7734 8.45703L13.7027 8.52774L14.8795 9.7045L14.9502 9.63379L15.0209 9.56308L13.8441 8.38632L13.7734 8.45703ZM14.9502 9.63379V9.73379H18.8281V9.63379V9.53379H14.9502V9.63379ZM18.8281 9.63379H18.9281V8.45215H18.8281H18.7281V9.63379H18.8281ZM18.8281 8.45215V8.35215H16.8184V8.45215V8.55215H18.8281V8.45215ZM16.8184 8.45215L16.8891 8.38144L15.7123 7.20468L15.6416 7.27539L15.5709 7.3461L16.7476 8.52286L16.8184 8.45215ZM15.6416 7.27539V7.17539H14.1387V7.27539V7.37539H15.6416V7.27539ZM14.1387 7.27539H14.2387V6.10352H14.1387H14.0387V7.27539H14.1387ZM14.1387 6.10352V6.20352H16.127V6.10352V6.00352H14.1387V6.10352ZM16.127 6.10352L16.0562 6.17423L17.233 7.35098L17.3037 7.28027L17.3744 7.20956L16.1977 6.0328L16.127 6.10352ZM17.3037 7.28027V7.38027H18.8281V7.28027V7.18027H17.3037V7.28027ZM18.8281 7.28027H18.9281V4.92188H18.8281H18.7281V7.28027H18.8281ZM18.8281 4.92188V4.82187H1.17188V4.92188V5.02188H18.8281V4.92188ZM1.17188 4.92188H1.07187V15.5176H1.17188H1.27188V4.92188H1.17188ZM3.52539 14.3359V14.2359H2.35352V14.3359V14.4359H3.52539V14.3359ZM2.35352 14.3359H2.45352V13.1641H2.35352H2.25352V14.3359H2.35352ZM2.35352 13.1641V13.2641H3.52539V13.1641V13.0641H2.35352V13.1641ZM3.52539 13.1641H3.42539V14.3359H3.52539H3.62539V13.1641H3.52539ZM5.87891 14.3359V14.2359H4.70703V14.3359V14.4359H5.87891V14.3359ZM4.70703 14.3359H4.80703V13.1641H4.70703H4.60703V14.3359H4.70703ZM4.70703 13.1641V13.2641H5.87891V13.1641V13.0641H4.70703V13.1641ZM5.87891 13.1641H5.77891V14.3359H5.87891H5.97891V13.1641H5.87891ZM5.87891 9.62891V9.52891H2.35352V9.62891V9.72891H5.87891V9.62891ZM2.35352 9.62891H2.45352V6.10352H2.35352H2.25352V9.62891H2.35352ZM2.35352 6.10352V6.20352H5.87891V6.10352V6.00352H2.35352V6.10352ZM5.87891 6.10352H5.77891V9.62891H5.87891H5.97891V6.10352H5.87891ZM3.52539 8.45703V8.55703H4.70703V8.45703V8.35703H3.52539V8.45703ZM4.70703 8.45703H4.80703V7.27539H4.70703H4.60703V8.45703H4.70703ZM4.70703 7.27539V7.17539H3.52539V7.27539V7.37539H4.70703V7.27539ZM3.52539 7.27539H3.42539V8.45703H3.52539H3.62539V7.27539H3.52539Z" fill="#E3E3E3"/>
</g>
<defs>
<clipPath id="clip0_2087_8451">
<rect width="20" height="20" fill="white"/>
</clipPath>
</defs>
</svg>
