<svg width="20" height="20" viewBox="0 0 20 20" fill="none" xmlns="http://www.w3.org/2000/svg">
<g clip-path="url(#clip0_2087_8446)">
<path d="M16.8613 4.93848C17.2866 4.54992 17.8452 4.3291 18.4375 4.3291H18.9121V5.50098H18.4375C18.0414 5.50098 17.6761 5.6993 17.46 6.03125L17.376 6.15918L18.8936 7.18359V8.63574H20V14.1396C19.9999 15.3032 19.3809 16.3995 18.3848 17.001L15.7451 18.5947L13.1045 17.001C12.1085 16.3995 11.4904 15.3031 11.4902 14.1396V12.707H5.31055V15.8389H0.90918V12.707H0.0185547V7.18359L1.53613 6.15918L1.45215 6.03125C1.236 5.69937 0.870658 5.50102 0.474609 5.50098H0V4.3291H0.474609C1.06672 4.32913 1.62469 4.55014 2.0498 4.93848L2.83984 1.40527H16.0723L16.8613 4.93848ZM12.6611 14.1396C12.6613 14.8953 13.0641 15.6075 13.7109 15.998L15.7451 17.2266L17.7793 15.998C18.4261 15.6074 18.828 14.8953 18.8281 14.1396V9.80762H12.6611V14.1396ZM2.08105 14.667H4.13867V12.707H2.08105V14.667ZM17.5596 12.4258L15.3721 14.6133L13.9238 13.165L14.7529 12.3359L15.3721 12.9561L16.7314 11.5977L17.5596 12.4258ZM1.19043 7.80664V11.5352H11.4902V9.80762H6.46191V8.63574H17.7217V7.80664L16.3916 6.9082H2.52051L1.19043 7.80664ZM5.28223 9.80859H2.36328V8.63672H5.28223V9.80859ZM3.07227 5.73633H15.8389L15.1328 2.57617H3.77832L3.07227 5.73633Z" fill="#E3E3E3"/>
<path d="M16.8613 4.93848L16.7637 4.96027L16.8014 5.12874L16.9288 5.0123L16.8613 4.93848ZM18.9121 4.3291H19.0121V4.2291H18.9121V4.3291ZM18.9121 5.50098V5.60098H19.0121V5.50098H18.9121ZM17.46 6.03125L17.5436 6.08613L17.5438 6.08582L17.46 6.03125ZM17.376 6.15918L17.2924 6.1043L17.2382 6.18683L17.32 6.24206L17.376 6.15918ZM18.8936 7.18359H18.9936V7.13045L18.9495 7.10071L18.8936 7.18359ZM18.8936 8.63574H18.7936V8.73574H18.8936V8.63574ZM20 8.63574H20.1V8.53574H20V8.63574ZM20 14.1396L20.1 14.1397V14.1396H20ZM18.3848 17.001L18.3331 16.9154L18.3331 16.9154L18.3848 17.001ZM15.7451 18.5947L15.6934 18.6803L15.7451 18.7115L15.7968 18.6803L15.7451 18.5947ZM13.1045 17.001L13.0528 17.0866L13.0528 17.0866L13.1045 17.001ZM11.4902 14.1396L11.3902 14.1396L11.3902 14.1397L11.4902 14.1396ZM11.4902 12.707H11.5902V12.607H11.4902V12.707ZM5.31055 12.707V12.607H5.21055V12.707H5.31055ZM5.31055 15.8389V15.9389H5.41055V15.8389H5.31055ZM0.90918 15.8389H0.80918V15.9389H0.90918V15.8389ZM0.90918 12.707H1.00918V12.607H0.90918V12.707ZM0.0185547 12.707H-0.0814453V12.807H0.0185547V12.707ZM0.0185547 7.18359L-0.0373944 7.10071L-0.0814453 7.13045V7.18359H0.0185547ZM1.53613 6.15918L1.59208 6.24206L1.67391 6.18683L1.61973 6.1043L1.53613 6.15918ZM1.45215 6.03125L1.36835 6.08583L1.36855 6.08613L1.45215 6.03125ZM0.474609 5.50098L0.474619 5.40098H0.474609V5.50098ZM0 5.50098H-0.1V5.60098H0V5.50098ZM0 4.3291V4.2291H-0.1V4.3291H0ZM0.474609 4.3291L0.474614 4.2291H0.474609V4.3291ZM2.0498 4.93848L1.98236 5.01231L2.10975 5.12867L2.14739 4.9603L2.0498 4.93848ZM2.83984 1.40527V1.30527H2.75973L2.74225 1.38345L2.83984 1.40527ZM16.0723 1.40527L16.1699 1.38348L16.1524 1.30527H16.0723V1.40527ZM12.6611 14.1396L12.5611 14.1396L12.5611 14.1397L12.6611 14.1396ZM13.7109 15.998L13.7626 15.9124L13.7626 15.9124L13.7109 15.998ZM15.7451 17.2266L15.6934 17.3122L15.7451 17.3434L15.7968 17.3122L15.7451 17.2266ZM17.7793 15.998L17.7276 15.9124L17.7276 15.9124L17.7793 15.998ZM18.8281 14.1396L18.9281 14.1397V14.1396H18.8281ZM18.8281 9.80762H18.9281V9.70762H18.8281V9.80762ZM12.6611 9.80762V9.70762H12.5611V9.80762H12.6611ZM2.08105 14.667H1.98105V14.767H2.08105V14.667ZM4.13867 14.667V14.767H4.23867V14.667H4.13867ZM4.13867 12.707H4.23867V12.607H4.13867V12.707ZM2.08105 12.707V12.607H1.98105V12.707H2.08105ZM17.5596 12.4258L17.6303 12.4965L17.701 12.4258L17.6303 12.3551L17.5596 12.4258ZM15.3721 14.6133L15.3014 14.684L15.3721 14.7547L15.4428 14.684L15.3721 14.6133ZM13.9238 13.165L13.8531 13.0943L13.7824 13.165L13.8531 13.2357L13.9238 13.165ZM14.7529 12.3359L14.8237 12.2653L14.753 12.1945L14.6822 12.2652L14.7529 12.3359ZM15.3721 12.9561L15.3013 13.0267L15.372 13.0975L15.4428 13.0268L15.3721 12.9561ZM16.7314 11.5977L16.8022 11.5269L16.7315 11.4563L16.6608 11.5269L16.7314 11.5977ZM1.19043 7.80664L1.13446 7.72377L1.09043 7.75351V7.80664H1.19043ZM1.19043 11.5352H1.09043V11.6352H1.19043V11.5352ZM11.4902 11.5352V11.6352H11.5902V11.5352H11.4902ZM11.4902 9.80762H11.5902V9.70762H11.4902V9.80762ZM6.46191 9.80762H6.36191V9.90762H6.46191V9.80762ZM6.46191 8.63574V8.53574H6.36191V8.63574H6.46191ZM17.7217 8.63574V8.73574H17.8217V8.63574H17.7217ZM17.7217 7.80664H17.8217V7.75351L17.7777 7.72377L17.7217 7.80664ZM16.3916 6.9082L16.4476 6.82534L16.4222 6.8082H16.3916V6.9082ZM2.52051 6.9082V6.8082H2.4899L2.46453 6.82534L2.52051 6.9082ZM5.28223 9.80859V9.90859H5.38223V9.80859H5.28223ZM2.36328 9.80859H2.26328V9.90859H2.36328V9.80859ZM2.36328 8.63672V8.53672H2.26328V8.63672H2.36328ZM5.28223 8.63672H5.38223V8.53672H5.28223V8.63672ZM3.07227 5.73633L2.97467 5.71452L2.94746 5.83633H3.07227V5.73633ZM15.8389 5.73633V5.83633H15.9637L15.9365 5.71452L15.8389 5.73633ZM15.1328 2.57617L15.2304 2.55437L15.2129 2.47617H15.1328V2.57617ZM3.77832 2.57617V2.47617H3.6982L3.68073 2.55437L3.77832 2.57617ZM16.8613 4.93848L16.9288 5.0123C17.3357 4.64052 17.8702 4.4291 18.4375 4.4291V4.3291V4.2291C17.8201 4.2291 17.2375 4.45933 16.7939 4.86465L16.8613 4.93848ZM18.4375 4.3291V4.4291H18.9121V4.3291V4.2291H18.4375V4.3291ZM18.9121 4.3291H18.8121V5.50098H18.9121H19.0121V4.3291H18.9121ZM18.9121 5.50098V5.40098H18.4375V5.50098V5.60098H18.9121V5.50098ZM18.4375 5.50098V5.40098C18.0076 5.40098 17.6108 5.61644 17.3762 5.97668L17.46 6.03125L17.5438 6.08582C17.7415 5.78217 18.0753 5.60098 18.4375 5.60098V5.50098ZM17.46 6.03125L17.3764 5.97637L17.2924 6.1043L17.376 6.15918L17.4596 6.21406L17.5436 6.08613L17.46 6.03125ZM17.376 6.15918L17.32 6.24206L18.8376 7.26648L18.8936 7.18359L18.9495 7.10071L17.4319 6.0763L17.376 6.15918ZM18.8936 7.18359H18.7936V8.63574H18.8936H18.9936V7.18359H18.8936ZM18.8936 8.63574V8.73574H20V8.63574V8.53574H18.8936V8.63574ZM20 8.63574H19.9V14.1396H20H20.1V8.63574H20ZM20 14.1396L19.9 14.1396C19.8999 15.2682 19.2992 16.332 18.3331 16.9154L18.3848 17.001L18.4365 17.0866C19.4625 16.4671 20.0999 15.3382 20.1 14.1397L20 14.1396ZM18.3848 17.001L18.3331 16.9154L15.6934 18.5091L15.7451 18.5947L15.7968 18.6803L18.4365 17.0866L18.3848 17.001ZM15.7451 18.5947L15.7968 18.5091L13.1562 16.9154L13.1045 17.001L13.0528 17.0866L15.6934 18.6803L15.7451 18.5947ZM13.1045 17.001L13.1562 16.9154C12.1902 16.332 11.5903 15.2681 11.5902 14.1396L11.4902 14.1396L11.3902 14.1397C11.3904 15.3381 12.0268 16.467 13.0528 17.0866L13.1045 17.001ZM11.4902 14.1396H11.5902V12.707H11.4902H11.3902V14.1396H11.4902ZM11.4902 12.707V12.607H5.31055V12.707V12.807H11.4902V12.707ZM5.31055 12.707H5.21055V15.8389H5.31055H5.41055V12.707H5.31055ZM5.31055 15.8389V15.7389H0.90918V15.8389V15.9389H5.31055V15.8389ZM0.90918 15.8389H1.00918V12.707H0.90918H0.80918V15.8389H0.90918ZM0.90918 12.707V12.607H0.0185547V12.707V12.807H0.90918V12.707ZM0.0185547 12.707H0.118555V7.18359H0.0185547H-0.0814453V12.707H0.0185547ZM0.0185547 7.18359L0.0745038 7.26648L1.59208 6.24206L1.53613 6.15918L1.48018 6.0763L-0.0373944 7.10071L0.0185547 7.18359ZM1.53613 6.15918L1.61973 6.1043L1.53574 5.97637L1.45215 6.03125L1.36855 6.08613L1.45254 6.21406L1.53613 6.15918ZM1.45215 6.03125L1.53594 5.97668C1.30137 5.6165 0.904529 5.40102 0.474619 5.40098L0.474609 5.50098L0.4746 5.60098C0.836787 5.60101 1.17063 5.78223 1.36835 6.08582L1.45215 6.03125ZM0.474609 5.50098V5.40098H0V5.50098V5.60098H0.474609V5.50098ZM0 5.50098H0.1V4.3291H0H-0.1V5.50098H0ZM0 4.3291V4.4291H0.474609V4.3291V4.2291H0V4.3291ZM0.474609 4.3291L0.474604 4.4291C1.0416 4.42913 1.57556 4.6407 1.98236 5.01231L2.0498 4.93848L2.11725 4.86464C1.67382 4.45959 1.09184 4.22913 0.474614 4.2291L0.474609 4.3291ZM2.0498 4.93848L2.14739 4.9603L2.93743 1.42709L2.83984 1.40527L2.74225 1.38345L1.95221 4.91666L2.0498 4.93848ZM2.83984 1.40527V1.50527H16.0723V1.40527V1.30527H2.83984V1.40527ZM16.0723 1.40527L15.9747 1.42707L16.7637 4.96027L16.8613 4.93848L16.9589 4.91668L16.1699 1.38348L16.0723 1.40527ZM12.6611 14.1396L12.5611 14.1397C12.5613 14.9304 12.9825 15.675 13.6592 16.0837L13.7109 15.998L13.7626 15.9124C13.1457 15.5399 12.7613 14.8602 12.7611 14.1396L12.6611 14.1396ZM13.7109 15.998L13.6592 16.0836L15.6934 17.3122L15.7451 17.2266L15.7968 17.141L13.7626 15.9124L13.7109 15.998ZM15.7451 17.2266L15.7968 17.3122L17.831 16.0836L17.7793 15.998L17.7276 15.9124L15.6934 17.141L15.7451 17.2266ZM17.7793 15.998L17.831 16.0837C18.5078 15.6749 18.928 14.9303 18.9281 14.1397L18.8281 14.1396L18.7281 14.1396C18.728 14.8602 18.3445 15.54 17.7276 15.9124L17.7793 15.998ZM18.8281 14.1396H18.9281V9.80762H18.8281H18.7281V14.1396H18.8281ZM18.8281 9.80762V9.70762H12.6611V9.80762V9.90762H18.8281V9.80762ZM12.6611 9.80762H12.5611V14.1396H12.6611H12.7611V9.80762H12.6611ZM2.08105 14.667V14.767H4.13867V14.667V14.567H2.08105V14.667ZM4.13867 14.667H4.23867V12.707H4.13867H4.03867V14.667H4.13867ZM4.13867 12.707V12.607H2.08105V12.707V12.807H4.13867V12.707ZM2.08105 12.707H1.98105V14.667H2.08105H2.18105V12.707H2.08105ZM17.5596 12.4258L17.4889 12.3551L15.3014 14.5426L15.3721 14.6133L15.4428 14.684L17.6303 12.4965L17.5596 12.4258ZM15.3721 14.6133L15.4428 14.5426L13.9945 13.0943L13.9238 13.165L13.8531 13.2357L15.3014 14.684L15.3721 14.6133ZM13.9238 13.165L13.9945 13.2357L14.8236 12.4066L14.7529 12.3359L14.6822 12.2652L13.8531 13.0943L13.9238 13.165ZM14.7529 12.3359L14.6822 12.4066L15.3013 13.0267L15.3721 12.9561L15.4428 12.8854L14.8237 12.2653L14.7529 12.3359ZM15.3721 12.9561L15.4428 13.0268L16.8021 11.6684L16.7314 11.5977L16.6608 11.5269L15.3014 12.8853L15.3721 12.9561ZM16.7314 11.5977L16.6607 11.6684L17.4889 12.4965L17.5596 12.4258L17.6303 12.3551L16.8022 11.5269L16.7314 11.5977ZM1.19043 7.80664H1.09043V11.5352H1.19043H1.29043V7.80664H1.19043ZM1.19043 11.5352V11.6352H11.4902V11.5352V11.4352H1.19043V11.5352ZM11.4902 11.5352H11.5902V9.80762H11.4902H11.3902V11.5352H11.4902ZM11.4902 9.80762V9.70762H6.46191V9.80762V9.90762H11.4902V9.80762ZM6.46191 9.80762H6.56191V8.63574H6.46191H6.36191V9.80762H6.46191ZM6.46191 8.63574V8.73574H17.7217V8.63574V8.53574H6.46191V8.63574ZM17.7217 8.63574H17.8217V7.80664H17.7217H17.6217V8.63574H17.7217ZM17.7217 7.80664L17.7777 7.72377L16.4476 6.82534L16.3916 6.9082L16.3356 6.99107L17.6657 7.88951L17.7217 7.80664ZM16.3916 6.9082V6.8082H2.52051V6.9082V7.0082H16.3916V6.9082ZM2.52051 6.9082L2.46453 6.82534L1.13446 7.72377L1.19043 7.80664L1.2464 7.88951L2.57648 6.99107L2.52051 6.9082ZM5.28223 9.80859V9.70859H2.36328V9.80859V9.90859H5.28223V9.80859ZM2.36328 9.80859H2.46328V8.63672H2.36328H2.26328V9.80859H2.36328ZM2.36328 8.63672V8.73672H5.28223V8.63672V8.53672H2.36328V8.63672ZM5.28223 8.63672H5.18223V9.80859H5.28223H5.38223V8.63672H5.28223ZM3.07227 5.73633V5.83633H15.8389V5.73633V5.63633H3.07227V5.73633ZM15.8389 5.73633L15.9365 5.71452L15.2304 2.55437L15.1328 2.57617L15.0352 2.59798L15.7413 5.75813L15.8389 5.73633ZM15.1328 2.57617V2.47617H3.77832V2.57617V2.67617H15.1328V2.57617ZM3.77832 2.57617L3.68073 2.55437L2.97467 5.71452L3.07227 5.73633L3.16986 5.75813L3.87591 2.59798L3.77832 2.57617Z" fill="#E3E3E3"/>
</g>
<defs>
<clipPath id="clip0_2087_8446">
<rect width="20" height="20" fill="white"/>
</clipPath>
</defs>
</svg>
