<svg width="20" height="20" viewBox="0 0 20 20" fill="none" xmlns="http://www.w3.org/2000/svg">
    <g clip-path="url(#lp7nqic1ha)" fill="#556485">
        <path d="M16.861 4.938c.426-.388.984-.609 1.576-.609h.475v1.172h-.474c-.397 0-.762.198-.978.53l-.084.128 1.518 1.025v1.452H20v5.504c0 1.163-.62 2.26-1.615 2.861l-2.64 1.594L13.105 17a3.36 3.36 0 0 1-1.615-2.861v-1.433H5.31v3.132H.91v-3.132H.018V7.184l1.517-1.025-.084-.128a1.163 1.163 0 0 0-.977-.53H0V4.329h.475c.592 0 1.15.221 1.575.61l.79-3.535h13.232l.79 3.534zm-4.2 9.202c0 .755.403 1.467 1.05 1.858l2.034 1.229 2.034-1.229a2.183 2.183 0 0 0 1.05-1.858V9.808H12.66v4.332zm-10.58.527h2.058v-1.96H2.08v1.96zm15.479-2.241-2.188 2.187-1.448-1.448.829-.83.62.621 1.358-1.358.829.828zM1.19 7.806v3.73h10.3V9.807H6.462V8.636h11.26v-.83l-1.33-.898H2.52l-1.33.899zM5.282 9.81H2.363V8.637h2.92v1.172zm-2.21-4.073H15.84l-.706-3.16H3.778l-.706 3.16z"/>
        <path d="m16.861 4.938-.097.022.037.169.128-.117-.068-.074zm2.051-.609h.1v-.1h-.1v.1zm0 1.172v.1h.1v-.1h-.1zm-1.452.53.084.055-.084-.055zm-.084.128-.084-.055-.054.083.082.055.056-.083zm1.518 1.025h.1V7.13l-.044-.03-.056.084zm0 1.452h-.1v.1h.1v-.1zm1.106 0h.1v-.1H20v.1zm0 5.504h.1-.1zM18.385 17l-.052-.086.052.086zm-2.64 1.594-.052.085.052.032.052-.032-.052-.085zM13.105 17l-.052.086.051-.086zM11.49 14.14h-.1.1zm0-1.433h.1v-.1h-.1v.1zm-6.18 0v-.1h-.1v.1h.1zm0 3.132v.1h.1v-.1h-.1zm-4.4 0h-.1v.1h.1v-.1zm0-3.132h.1v-.1h-.1v.1zm-.891 0h-.1v.1h.1v-.1zm0-5.523L-.037 7.1l-.044.03v.053h.1zm1.517-1.025.056.083.082-.055-.054-.083-.084.055zm-.084-.128-.084.055.084-.055zm-.977-.53v-.1.1zm-.475 0h-.1v.1H0v-.1zm0-1.172v-.1h-.1v.1H0zm.475 0v-.1.1zm1.575.61-.068.073.128.117.037-.169-.097-.022zm.79-3.535v-.1h-.08l-.018.078.098.022zm13.232 0 .098-.021-.018-.079h-.08v.1zm-3.41 12.736h-.1.1zm1.049 1.858.052-.086-.052.086zm2.034 1.229-.052.085.052.031.052-.03-.052-.086zm2.034-1.229-.051-.086.051.086zm1.05-1.858h.1-.1zm0-4.332h.1v-.1h-.1v.1zm-6.168 0v-.1h-.1v.1h.1zm-10.58 4.859h-.1v.1h.1v-.1zm2.058 0v.1h.1v-.1h-.1zm0-1.96h.1v-.1h-.1v.1zm-2.058 0v-.1h-.1v.1h.1zm15.479-.281.07.07.071-.07-.07-.07-.071.07zm-2.188 2.187-.07.071.07.07.07-.07-.07-.07zm-1.448-1.448-.07-.07-.072.07.071.07.07-.07zm.829-.83.07-.07-.07-.07-.07.07.07.07zm.62.621-.072.07.071.072.07-.071-.07-.07zm1.358-1.358.071-.071-.07-.07-.071.07.07.07zM1.191 7.807l-.057-.083-.044.03v.053h.1zm0 3.728h-.1v.1h.1v-.1zm10.3 0v.1h.1v-.1h-.1zm0-1.727h.1v-.1h-.1v.1zm-5.03 0h-.1v.1h.1v-.1zm0-1.172v-.1h-.1v.1h.1zm11.26 0v.1h.1v-.1h-.1zm0-.83h.1v-.052l-.043-.03-.056.083zm-1.33-.898.057-.083-.026-.017h-.03v.1zm-13.87 0v-.1H2.49l-.025.017.056.083zm2.761 2.9v.1h.1v-.1h-.1zm-2.919 0h-.1v.1h.1v-.1zm0-1.171v-.1h-.1v.1h.1zm2.92 0h.1v-.1h-.1v.1zm-2.21-2.9-.098-.022-.028.121h.125v-.1zm12.766 0v.1h.125l-.027-.122-.098.021zm-.706-3.16.097-.023-.017-.078h-.08v.1zm-11.355 0v-.1h-.08l-.017.077.097.022zm13.083 2.361.068.074a2.231 2.231 0 0 1 1.509-.583v-.2c-.618 0-1.2.23-1.644.636l.067.073zm1.576-.609v.1h.475v-.2h-.474v.1zm.475 0h-.1v1.172h.2V4.329h-.1zm0 1.172v-.1h-.474v.2h.474v-.1zm-.474 0v-.1c-.43 0-.827.215-1.062.576l.084.054.084.055c.197-.304.531-.485.893-.485v-.1zm-.978.53-.084-.055-.084.128.084.055.084.055.084-.128-.084-.055zm-.084.128-.056.083 1.518 1.024.056-.082.056-.083-1.518-1.025-.056.083zm1.518 1.025h-.1v1.452h.2V7.184h-.1zm0 1.452v.1H20v-.2h-1.106v.1zm1.106 0h-.1v5.504h.2V8.636H20zm0 5.504h-.1c0 1.128-.6 2.192-1.567 2.775l.052.086.051.086A3.461 3.461 0 0 0 20.1 14.14H20zM18.385 17l-.052-.086-2.64 1.594.052.086.052.085 2.64-1.593-.052-.086zm-2.64 1.594.052-.086-2.64-1.594-.053.086-.051.086 2.64 1.593.052-.085zM13.105 17l.051-.086a3.26 3.26 0 0 1-1.566-2.775h-.2a3.46 3.46 0 0 0 1.663 2.947l.051-.086zM11.49 14.14h.1v-1.433h-.2v1.433h.1zm0-1.433v-.1H5.31v.2h6.18v-.1zm-6.18 0h-.1v3.132h.2v-3.132h-.1zm0 3.132v-.1H.91v.2h4.4v-.1zm-4.4 0h.1v-3.132h-.2v3.132h.1zm0-3.132v-.1H.018v.2h.89v-.1zm-.891 0h.1V7.184h-.2v5.523h.1zm0-5.523.056.082 1.517-1.024-.056-.083-.056-.083-1.517 1.025.056.083zm1.517-1.025.084-.055-.084-.128-.084.055-.083.055.084.128.083-.055zm-.084-.128.084-.054A1.263 1.263 0 0 0 .475 5.4v.2c.362 0 .696.181.893.485l.084-.055zm-.977-.53v-.1H0v.2h.475v-.1zm-.475 0h.1V4.329h-.2v1.172H0zm0-1.172v.1h.475v-.2H0v.1zm.475 0v.1a2.23 2.23 0 0 1 1.507.583l.068-.074.067-.073a2.43 2.43 0 0 0-1.642-.636v.1zm1.575.61.097.021.79-3.534-.097-.022-.098-.022-.79 3.535.098.021zm.79-3.535v.1h13.232v-.2H2.84v.1zm13.232 0-.097.022.789 3.534.097-.022.098-.021-.79-3.534-.097.021zm-3.41 12.736h-.1c0 .79.42 1.535 1.097 1.944l.052-.086.052-.086a2.084 2.084 0 0 1-1.002-1.772h-.1zm1.049 1.858-.052.086 2.034 1.228.052-.085.052-.086-2.034-1.229-.052.086zm2.034 1.229.052.085 2.034-1.228-.052-.086-.051-.086-2.035 1.229.052.086zm2.034-1.229.052.086a2.283 2.283 0 0 0 1.097-1.944h-.2c0 .72-.384 1.4-1 1.772l.051.086zm1.05-1.858h.1V9.808h-.2v4.332h.1zm0-4.332v-.1H12.66v.2h6.167v-.1zm-6.168 0h-.1v4.332h.2V9.808h-.1zm-10.58 4.859v.1h2.058v-.2H2.08v.1zm2.058 0h.1v-1.96h-.2v1.96h.1zm0-1.96v-.1H2.08v.2h2.058v-.1zm-2.058 0h-.1v1.96h.2v-1.96h-.1zm15.479-.281-.071-.07-2.188 2.187.071.07.07.071 2.188-2.188-.07-.07zm-2.188 2.187.07-.07-1.447-1.449-.071.071-.07.07 1.447 1.449.071-.07zm-1.448-1.448.07.07.83-.828-.071-.071-.07-.07-.83.828.07.071zm.829-.83-.07.072.618.62.071-.07.07-.072-.618-.62-.071.07zm.62.621.07.07 1.36-1.358-.072-.07-.07-.071-1.36 1.358.071.071zm1.358-1.358-.07.07.828.829.07-.071.071-.07-.828-.83-.07.072zM1.191 7.807h-.1v3.728h.2V7.807h-.1zm0 3.728v.1h10.3v-.2H1.19v.1zm10.3 0h.1V9.808h-.2v1.727h.1zm0-1.727v-.1H6.46v.2h5.03v-.1zm-5.03 0h.1V8.636h-.2v1.172h.1zm0-1.172v.1h11.26v-.2H6.462v.1zm11.26 0h.1v-.83h-.2v.83h.1zm0-.83.057-.082-1.33-.899-.056.083-.056.083 1.33.899.056-.083zm-1.33-.898v-.1H2.522v.2h13.87v-.1zm-13.87 0-.056-.083-1.33.899.055.083.056.083 1.33-.899-.055-.083zm2.761 2.9v-.1H2.363v.2h2.92v-.1zm-2.919 0h.1V8.638h-.2v1.172h.1zm0-1.171v.1h2.92v-.2h-2.92v.1zm2.92 0h-.1v1.172h.2V8.637h-.1zm-2.21-2.9v.1h12.766v-.2H3.072v.1zm12.766 0 .098-.022-.707-3.16-.097.021-.098.022.706 3.16.098-.022zm-.706-3.16v-.1H3.778v.2h11.355v-.1zm-11.355 0-.097-.023-.706 3.16.097.022.098.022.706-3.16-.098-.022z"/>
    </g>
    <defs>
        <clipPath id="lp7nqic1ha">
            <path fill="#fff" d="M0 0h20v20H0z"/>
        </clipPath>
    </defs>
</svg>
