<svg width="20" height="20" viewBox="0 0 20 20" fill="none" xmlns="http://www.w3.org/2000/svg">
    <g clip-path="url(#zgdb6783ia)">
        <path d="M10 .451a5.819 5.819 0 0 1 5.813 5.813c0 1.784-.774 3.74-2.3 5.82h2.717L20 19.549H0l3.77-7.465h2.716c-1.525-2.08-2.298-4.036-2.298-5.82A5.82 5.82 0 0 1 10 .45zM2.902 16.402l-.997 1.974H5.08l.491-1.974H2.902zm3.878 0-.492 1.974h7.424l-.491-1.974H6.78zm7.649 0 .49 1.974h3.176l-.997-1.974h-2.67zM4.49 13.257l-.996 1.973h2.37l.49-1.973H4.49zm2.581 1.973h2.244a22.487 22.487 0 0 1-1.785-1.84l-.459 1.84zm5.399-1.84a22.504 22.504 0 0 1-1.785 1.84h2.244l-.46-1.84zm1.175-.133.492 1.973h2.369l-.996-1.973h-1.864zM10 1.624a4.645 4.645 0 0 0-4.64 4.64c0 3.389 3.471 6.912 4.64 8.002 1.168-1.091 4.64-4.619 4.64-8.002A4.645 4.645 0 0 0 10 1.624zm0 1.911a2.628 2.628 0 0 1 2.625 2.625A2.628 2.628 0 0 1 10 8.785 2.628 2.628 0 0 1 7.375 6.16 2.628 2.628 0 0 1 10 3.535zm0 1.173a1.454 1.454 0 0 0 0 2.905c.801 0 1.453-.652 1.453-1.453 0-.8-.652-1.452-1.453-1.452z" fill="#556485"/>
    </g>
    <defs>
        <clipPath id="zgdb6783ia">
            <path fill="#fff" d="M0 0h20v20H0z"/>
        </clipPath>
    </defs>
</svg>
