<svg width="20" height="20" viewBox="0 0 20 20" fill="none" xmlns="http://www.w3.org/2000/svg">
<g clip-path="url(#clip0_2087_8366)">
<path d="M10 0.451172C13.2051 0.451172 15.8125 3.05862 15.8125 6.26367C15.8125 8.04827 15.0392 10.0037 13.5137 12.084H16.2305L20 19.5488H0L3.76953 12.084H6.48633C4.9608 10.0037 4.1875 8.04831 4.1875 6.26367C4.18755 3.05867 6.79495 0.451183 10 0.451172ZM2.90234 16.4023L1.90527 18.376H5.08008L5.57129 16.4023H2.90234ZM6.78027 16.4023L6.28809 18.376H13.7119L13.2207 16.4023H6.78027ZM14.4287 16.4023L14.9199 18.376H18.0947L17.0977 16.4023H14.4287ZM4.49023 13.2568L3.49414 15.2305H5.86328L6.35449 13.2568H4.49023ZM7.07129 15.2305H9.31543C8.94185 14.8892 8.26976 14.2444 7.53027 13.3906L7.07129 15.2305ZM12.4697 13.3906C11.7302 14.2444 11.0581 14.8892 10.6846 15.2305H12.9287L12.4697 13.3906ZM13.6455 13.2568L14.1367 15.2305H16.5059L15.5098 13.2568H13.6455ZM10 1.62402C7.44146 1.62402 5.35942 3.7051 5.35938 6.26367C5.35938 9.65295 8.831 13.1756 10 14.2656C11.1685 13.1746 14.6406 9.64728 14.6406 6.26367C14.6406 3.70513 12.5586 1.62403 10 1.62402ZM10 3.53516C11.4475 3.53516 12.625 4.71273 12.625 6.16016C12.625 7.60765 11.4475 8.78516 10 8.78516C8.55257 8.78513 7.375 7.60763 7.375 6.16016C7.37502 4.71274 8.55259 3.53518 10 3.53516ZM10 4.70801C9.19907 4.70803 8.54788 5.35922 8.54785 6.16016C8.54785 6.96115 9.19905 7.61326 10 7.61328C10.801 7.61328 11.4531 6.96116 11.4531 6.16016C11.4531 5.35921 10.801 4.70801 10 4.70801Z" fill="#556485"/>
</g>
<defs>
<clipPath id="clip0_2087_8366">
<rect width="20" height="20" fill="white"/>
</clipPath>
</defs>
</svg>
