<svg width="20" height="20" viewBox="0 0 20 20" fill="none" xmlns="http://www.w3.org/2000/svg">
    <g clip-path="url(#23t76n1c5a)">
        <path d="M8.823 0c2.357 0 4.573.917 6.24 2.584a8.766 8.766 0 0 1 2.583 6.24v1.484A5.292 5.292 0 0 1 20 14.707 5.299 5.299 0 0 1 14.707 20a5.26 5.26 0 0 1-2.546-.654A8.759 8.759 0 0 1 8.823 20a8.766 8.766 0 0 1-6.239-2.584A8.766 8.766 0 0 1 0 11.176V8.824C0 6.466.917 4.25 2.584 2.584A8.766 8.766 0 0 1 8.824 0zm0 1.172c-4.219 0-7.651 3.432-7.651 7.651v2.354c0 4.219 3.432 7.651 7.651 7.651.756 0 1.493-.108 2.203-.321a5.33 5.33 0 0 1-.815-1.01 6.477 6.477 0 0 1-7.857-6.32V8.823a6.477 6.477 0 0 1 6.47-6.47 6.477 6.477 0 0 1 6.469 6.47v.623c.41.046.805.138 1.182.272v-.895c0-4.219-3.433-7.651-7.652-7.651zm5.884 9.414a4.126 4.126 0 0 0-4.121 4.121 4.126 4.126 0 0 0 4.121 4.121 4.126 4.126 0 0 0 4.121-4.121 4.126 4.126 0 0 0-4.121-4.121zm2.886 2.822-3.392 3.39-2.38-2.38.83-.827 1.55 1.55 2.564-2.562.828.83zm-8.77 1.885c-.261 0-.534.118-.685.242-.271.22-.575.468-.893.7a5.284 5.284 0 0 0 2.447.167 5.255 5.255 0 0 1-.217-.892 1.095 1.095 0 0 0-.652-.217zm0-7.06a.592.592 0 0 0-.59.59V10c0 1.2-.413 2.374-1.162 3.309a5.328 5.328 0 0 1-2.047 1.556c.292.3.62.567.975.792.472-.278 1.038-.736 1.41-1.04a2.272 2.272 0 0 1 2.029-.41c.062-.66.245-1.284.528-1.852A5.298 5.298 0 0 1 9.414 10V8.823a.592.592 0 0 0-.59-.59zm0-2.354A2.948 2.948 0 0 0 5.88 8.823V10a2.945 2.945 0 0 1-2.094 2.815c.125.382.291.744.494 1.083a4.15 4.15 0 0 0 1.878-1.323A4.076 4.076 0 0 0 7.061 10V8.823c0-.972.79-1.762 1.762-1.762s1.763.79 1.763 1.762V10c0 .403.06.803.174 1.185a5.333 5.333 0 0 1 1.023-.887 2.96 2.96 0 0 1-.015-.298V8.823A2.948 2.948 0 0 0 8.823 5.88zm0-2.354a5.304 5.304 0 0 0-5.298 5.298v2.354c0 .163.008.324.023.483.676-.248 1.159-.899 1.159-1.66V8.823a4.12 4.12 0 0 1 4.116-4.116 4.121 4.121 0 0 1 4.117 4.116v.895a5.251 5.251 0 0 1 1.181-.272v-.623a5.304 5.304 0 0 0-5.298-5.298z" fill="#556485"/>
    </g>
    <defs>
        <clipPath id="23t76n1c5a">
            <path fill="#fff" d="M0 0h20v20H0z"/>
        </clipPath>
    </defs>
</svg>
