<svg width="20" height="20" viewBox="0 0 20 20" fill="none" xmlns="http://www.w3.org/2000/svg">
    <g clip-path="url(#2ftuef15oa)" fill="#fff">
        <path d="M10.074 0a2.332 2.332 0 0 1 2.193 1.537 2.159 2.159 0 0 1 1.492 1.211h3.39V20H3V2.748h3.39a2.158 2.158 0 0 1 1.492-1.21A2.331 2.331 0 0 1 10.074 0zM4.172 18.828h11.805V3.92H13.95v1.486H6.2V3.92H4.171v14.908zm10.481-4.177L12.1 17.207l-1.659-1.658.83-.828.829.829 1.726-1.727.828.828zm-5.418 1.711H5.587V15.19h3.648v1.172zm5.418-5.136L12.1 13.78l-1.659-1.658.83-.828.829.829 1.726-1.726.828.828zm-5.418 1.71H5.587v-1.171h3.648v1.171zM14.653 7.8 12.1 10.355 10.44 8.697l.83-.828.829.83 1.726-1.727.828.828zM9.235 9.51H5.587V8.34h3.648V9.51zm.84-8.338c-.57 0-1.064.425-1.147.987l-.074.5h-.505a.978.978 0 0 0-.978.976v.6h5.407v-.6a.978.978 0 0 0-.976-.977h-.506l-.074-.499a1.166 1.166 0 0 0-1.148-.987z"/>
        <path d="M10.074 0v-.1.1zm1.53.571-.065.076.066-.076zm.663.966-.094.034.018.052.054.012.022-.098zm1.492 1.211-.091.041.026.06h.065v-.101zm3.39 0h.1v-.1h-.1v.1zm0 17.252v.1h.1V20h-.1zM3 20h-.1v.1H3V20zM3 2.748v-.1h-.1v.1H3zm3.39 0v.1h.065l.027-.059-.091-.041zm1.492-1.21.021.097.054-.012.019-.052-.094-.034zM8.545.57 8.479.496l.066.075zM4.172 18.828h-.1v.1h.1v-.1zm11.805 0v.1h.1v-.1h-.1zm0-14.908h.1v-.1h-.1v.1zm-2.027 0v-.1h-.1v.1h.1zm0 1.486v.1h.1v-.1h-.1zm-7.75 0h-.1v.1h.1v-.1zm0-1.486h.1v-.1h-.1v.1zm-2.028 0v-.1h-.1v.1h.1zM14.653 14.65l.071.071.07-.07-.07-.071-.07.07zM12.1 17.207l-.071.07.07.072.071-.071-.07-.071zm-1.659-1.658-.07-.07-.071.07.07.07.071-.07zm.83-.828.07-.071-.07-.07-.071.07.07.07zm.829.829-.071.07.07.071.071-.07-.07-.071zm1.726-1.727.07-.07-.07-.071-.07.07.07.071zm-4.59 2.54v.1h.1v-.1h-.1zm-3.648 0h-.1v.1h.1v-.1zm0-1.173v-.1h-.1v.1h.1zm3.648 0h.1v-.1h-.1v.1zm5.418-3.964.071.07.07-.07-.07-.071-.07.07zM12.1 13.78l-.071.071.07.07.071-.07-.07-.07zm-1.659-1.658-.07-.07-.071.07.07.07.071-.07zm.83-.828.07-.07-.07-.072-.071.071.07.07zm.829.829-.071.07.07.071.071-.07-.07-.071zm1.726-1.726.07-.071-.07-.071-.07.07.07.072zm-4.59 2.539v.1h.1v-.1h-.1zm-3.648 0h-.1v.1h.1v-.1zm0-1.172v-.1h-.1v.1h.1zm3.648 0h.1v-.1h-.1v.1zM14.653 7.8l.071.07.07-.07-.07-.07-.07.07zM12.1 10.355l-.071.071.07.07.071-.07-.07-.07zM10.44 8.697l-.07-.07-.071.07.07.071.071-.07zm.83-.828.07-.07-.07-.071-.071.07.07.071zm.829.83-.071.07.07.07.071-.07-.07-.07zm1.726-1.727.07-.071-.07-.07-.07.07.07.07zM9.235 9.51v.1h.1v-.1h-.1zm-3.648 0h-.1v.1h.1v-.1zm0-1.172v-.1h-.1v.1h.1zm3.648 0h.1v-.1h-.1v.1zm.84-7.167v-.1.1zm-1.147.987.099.015-.1-.015zm-.074.5v.1h.086l.012-.086-.098-.015zm-1.483.976h-.1.1zm0 .6h-.1v.1h.1v-.1zm5.407 0v.1h.1v-.1h-.1zm0-.6h.1-.1zm-1.482-.977-.099.015.013.085h.086v-.1zm-.074-.499.099-.015-.1.015zM10.074 0v.1c.539 0 1.06.194 1.465.547l.066-.076.065-.075A2.432 2.432 0 0 0 10.074-.1V0zm1.53.571-.065.076c.288.25.505.57.634.924l.094-.034.094-.034a2.436 2.436 0 0 0-.69-1.007l-.066.075zm.663.966-.022.098c.634.14 1.16.576 1.423 1.154l.09-.041.092-.041a2.259 2.259 0 0 0-1.562-1.268l-.021.098zm1.492 1.211v.1h3.39v-.2h-3.39v.1zm3.39 0h-.1V20h.2V2.748h-.1zm0 17.252v-.1H3v.2h14.15V20zM3 20h.1V2.748h-.2V20H3zM3 2.748v.1h3.39v-.2H3v.1zm3.39 0 .092.041a2.058 2.058 0 0 1 1.421-1.154l-.021-.098-.022-.098A2.258 2.258 0 0 0 6.3 2.707l.09.041zm1.492-1.21.094.033c.128-.354.346-.673.635-.924L8.545.57 8.479.496a2.438 2.438 0 0 0-.691 1.007l.094.034zM8.545.57l.066.076A2.231 2.231 0 0 1 10.074.1v-.2c-.586 0-1.153.211-1.595.596l.066.075zM4.172 18.828v.1h11.805v-.2H4.172v.1zm11.805 0h.1V3.92h-.2v14.908h.1zm0-14.908v-.1H13.95v.2h2.027v-.1zm-2.027 0h-.1v1.486h.2V3.92h-.1zm0 1.486v-.1H6.2v.2h7.75v-.1zm-7.75 0h.1V3.92h-.2v1.486h.1zm0-1.486v-.1H4.171v.2h2.027v-.1zm-2.028 0h-.1v14.908h.2V3.92h-.1zM14.653 14.65l-.07-.07-2.555 2.555.07.071.071.07 2.555-2.555-.07-.07zM12.1 17.207l.07-.07-1.658-1.659-.07.07-.071.072 1.658 1.658.07-.071zm-1.659-1.658.071.07.83-.828-.071-.07-.071-.071-.83.828.071.07zm.83-.828-.071.07.829.83.07-.071.071-.07-.829-.83-.07.07zm.829.829.07.07 1.727-1.726-.07-.07-.072-.072-1.726 1.727.07.07zm1.726-1.727-.07.071.828.828.07-.07.071-.071-.828-.829-.07.071zm-4.59 2.54v-.1H5.587v.2h3.648v-.1zm-3.648 0h.1V15.19h-.2v1.172h.1zm0-1.173v.1h3.648v-.2H5.587v.1zm3.648 0h-.1v1.172h.2V15.19h-.1zm5.418-3.964-.07-.071-2.555 2.556.07.07.071.07 2.555-2.555-.07-.07zM12.1 13.78l.07-.07-1.658-1.659-.07.071-.071.07 1.658 1.659.07-.07zm-1.659-1.658.071.07.83-.827-.071-.071-.071-.07-.83.827.071.071zm.83-.828-.071.07.829.83.07-.071.071-.07-.829-.83-.07.07zm.829.829.07.07 1.727-1.726-.07-.07-.072-.071-1.726 1.726.07.071zm1.726-1.726-.07.07.828.828.07-.07.071-.071-.828-.828-.07.07zm-4.59 2.539v-.1H5.587v.2h3.648v-.1zm-3.648 0h.1v-1.172h-.2v1.171h.1zm0-1.172v.1h3.648v-.2H5.587v.1zm3.648 0h-.1v1.171h.2v-1.171h-.1zM14.653 7.8l-.07-.07-2.555 2.555.07.07.071.071 2.555-2.556-.07-.07zM12.1 10.355l.07-.07-1.658-1.658-.07.07-.071.071 1.658 1.658.07-.07zM10.44 8.697l.071.071.83-.828-.071-.07-.071-.072-.83.829.071.07zm.83-.828-.071.07.829.83.07-.07.071-.071-.829-.83-.07.071zm.829.83.07.07 1.727-1.727-.07-.07-.072-.071-1.726 1.727.07.07zm1.726-1.727-.07.07.828.829.07-.071.071-.07-.828-.829-.07.07zM9.235 9.51v-.1H5.587v.2h3.648v-.1zm-3.648 0h.1V8.339h-.2V9.51h.1zm0-1.172v.1h3.648v-.2H5.587v.1zm3.648 0h-.1V9.51h.2V8.339h-.1zm.84-7.167v-.1c-.62 0-1.155.46-1.246 1.072l.099.015.099.015a1.066 1.066 0 0 1 1.047-.902v-.1zm-1.147.987-.1-.015-.073.5.099.014.098.015.075-.5-.1-.014zm-.074.5v-.1h-.505v.2h.505v-.1zm-.505 0v-.1c-.595 0-1.078.482-1.078 1.076h.2c0-.483.394-.877.878-.877v-.1zm-.978.976h-.1v.6h.2v-.6h-.1zm0 .6v.1h5.407v-.2H7.371v.1zm5.407 0h.1v-.6h-.2v.6h.1zm0-.6h.1c0-.594-.483-1.077-1.076-1.077v.2c.483 0 .876.394.876.877h.1zm-.976-.977v-.1h-.506v.2h.506v-.1zm-.506 0 .099-.015-.074-.499-.1.015-.098.015.074.499.099-.015zm-.074-.499.099-.015a1.266 1.266 0 0 0-1.247-1.072v.2c.521 0 .972.388 1.049.902l.099-.015z"/>
    </g>
    <defs>
        <clipPath id="2ftuef15oa">
            <path fill="#fff" d="M0 0h20v20H0z"/>
        </clipPath>
    </defs>
</svg>
