<svg width="20" height="20" viewBox="0 0 20 20" fill="none" xmlns="http://www.w3.org/2000/svg">
    <path d="M5.833 1.667a2.5 2.5 0 0 0-2.5 2.5v11.666a2.5 2.5 0 0 0 2.5 2.5h8.333a2.5 2.5 0 0 0 2.5-2.5V15A.833.833 0 0 0 15 15v.833a.833.833 0 0 1-.834.833H5.833A.833.833 0 0 1 5 15.833V4.167a.833.833 0 0 1 .833-.834h8.333a.833.833 0 0 1 .834.833V5a.833.833 0 0 0 1.666 0v-.833a2.5 2.5 0 0 0-2.5-2.5H5.833z" fill="#F76365"/>
    <path d="M13.922 6.91a.833.833 0 1 0-1.178 1.18l1.077 1.076H10a.833.833 0 0 0 0 1.667h3.821l-1.077 1.078a.833.833 0 1 0 1.178 1.178l2.5-2.5a.833.833 0 0 0 0-1.178l-2.5-2.5z" fill="#F76365"/>
</svg>
