<svg width="228" height="80" viewBox="0 0 228 80" fill="none" xmlns="http://www.w3.org/2000/svg">
    <path d="M.885 15V4.818h4.077c.749 0 1.373.111 1.874.333.5.222.877.53 1.128.925.252.391.378.842.378 1.352 0 .398-.08.748-.238 1.05a2.06 2.06 0 0 1-.657.735 2.69 2.69 0 0 1-.944.403v.1a2.324 2.324 0 0 1 1.919 1.178c.212.36.318.792.318 1.292 0 .54-.134 1.023-.403 1.447-.265.42-.658.754-1.178 1-.52.244-1.162.367-1.924.367H.885zm2.153-1.76h1.755c.6 0 1.037-.114 1.312-.343.275-.232.413-.54.413-.925 0-.281-.068-.53-.204-.745a1.384 1.384 0 0 0-.582-.508 1.991 1.991 0 0 0-.89-.183H3.038v2.704zm0-4.161h1.596c.294 0 .556-.052.785-.154.232-.106.414-.255.547-.448.136-.192.204-.422.204-.69 0-.369-.131-.665-.393-.89-.259-.226-.626-.339-1.104-.339H3.038v2.52zM10.1 15V7.364h2.118V15H10.1zm1.064-8.62a1.15 1.15 0 0 1-.81-.314 1.015 1.015 0 0 1-.334-.76c0-.292.111-.543.334-.751a1.14 1.14 0 0 1 .81-.318c.315 0 .583.106.805.318a.988.988 0 0 1 .338.75c0 .295-.112.549-.338.761-.222.209-.49.313-.805.313zm6.2 8.77c-.771 0-1.44-.165-2.003-.493a3.37 3.37 0 0 1-1.297-1.382c-.305-.593-.458-1.281-.458-2.063 0-.79.153-1.479.458-2.069a3.329 3.329 0 0 1 1.297-1.382c.564-.331 1.231-.497 2.004-.497.772 0 1.438.166 1.998.497.564.328.998.79 1.303 1.382.305.59.457 1.28.457 2.069 0 .782-.152 1.47-.457 2.063-.305.59-.74 1.05-1.303 1.382-.56.328-1.226.492-1.998.492zm.01-1.642c.352 0 .645-.099.88-.298a1.85 1.85 0 0 0 .533-.825c.122-.348.184-.744.184-1.188 0-.444-.062-.84-.184-1.188a1.85 1.85 0 0 0-.532-.826c-.236-.202-.529-.303-.88-.303-.355 0-.653.101-.895.303-.239.202-.42.478-.542.825-.12.349-.18.745-.18 1.189 0 .444.06.84.18 1.188.123.348.303.623.542.825.242.2.54.298.895.298zM22.502 15V7.364h2.019V8.71h.09c.159-.448.424-.8.795-1.059.371-.259.815-.388 1.332-.388.524 0 .97.131 1.338.393.367.258.613.61.735 1.054h.08c.156-.438.437-.787.845-1.05.411-.264.897-.397 1.457-.397.712 0 1.29.227 1.735.681.447.451.671 1.09.671 1.92V15h-2.113v-4.718c0-.424-.113-.742-.338-.955a1.185 1.185 0 0 0-.845-.318c-.385 0-.685.123-.9.368-.215.242-.323.562-.323.96V15h-2.053v-4.763c0-.374-.108-.673-.324-.895-.212-.222-.492-.333-.84-.333-.235 0-.447.06-.636.18-.186.115-.333.28-.443.491-.109.21-.164.454-.164.736V15h-2.118zm16.25.15c-.785 0-1.462-.16-2.028-.478a3.269 3.269 0 0 1-1.303-1.362c-.305-.59-.457-1.288-.457-2.093 0-.786.152-1.475.457-2.069a3.38 3.38 0 0 1 1.288-1.387c.557-.331 1.21-.497 1.959-.497.503 0 .972.081 1.407.244.437.159.818.4 1.143.72.328.322.583.727.766 1.214.182.484.273 1.05.273 1.7v.582h-6.448V10.41h4.454c0-.305-.066-.575-.198-.81a1.425 1.425 0 0 0-.552-.552 1.574 1.574 0 0 0-.81-.204 1.63 1.63 0 0 0-.856.224 1.569 1.569 0 0 0-.576.592 1.67 1.67 0 0 0-.214.82v1.248c0 .378.07.704.209.98.142.274.343.486.601.636.259.149.565.223.92.223.235 0 .45-.033.646-.1.196-.066.363-.165.502-.297.14-.133.246-.295.319-.488l1.958.13c-.1.47-.303.881-.611 1.232-.305.348-.7.62-1.184.816-.48.192-1.035.288-1.665.288zM47.7 7.363v1.59H43.1v-1.59H47.7zm-3.555-1.83h2.118v7.12c0 .195.03.347.09.457.06.106.142.18.248.223.11.044.236.065.378.065.1 0 .199-.008.298-.025l.229-.045.333 1.576a5.928 5.928 0 0 1-.447.115 3.584 3.584 0 0 1-.701.084c-.51.02-.958-.048-1.343-.203a1.873 1.873 0 0 1-.89-.726c-.212-.328-.316-.743-.313-1.243V5.534zM49.08 15V7.364h2.054v1.332h.08c.139-.474.372-.832.7-1.074a1.842 1.842 0 0 1 1.134-.368 3.203 3.203 0 0 1 .666.075v1.88c-.1-.03-.237-.057-.413-.08a3.706 3.706 0 0 0-.482-.035c-.311 0-.59.068-.835.204a1.501 1.501 0 0 0-.577.556c-.139.239-.209.514-.209.826V15H49.08zm5.73 0V7.364h2.117V15h-2.118zm1.063-8.62a1.15 1.15 0 0 1-.81-.314 1.015 1.015 0 0 1-.334-.76c0-.292.111-.543.334-.751a1.14 1.14 0 0 1 .81-.318c.315 0 .583.106.805.318a.988.988 0 0 1 .338.75c0 .295-.112.549-.338.761-.222.209-.49.313-.805.313zm6.2 8.77c-.781 0-1.454-.167-2.018-.498a3.361 3.361 0 0 1-1.292-1.392c-.299-.593-.448-1.276-.448-2.048 0-.782.151-1.469.453-2.059a3.36 3.36 0 0 1 1.297-1.387c.56-.334 1.227-.502 1.999-.502.666 0 1.25.121 1.75.363s.896.582 1.188 1.02c.292.437.453.95.482 1.54h-1.998c-.057-.38-.206-.687-.448-.92-.238-.235-.552-.352-.94-.352-.328 0-.614.09-.86.268-.241.176-.43.433-.566.77-.136.339-.204.748-.204 1.229 0 .487.066.901.199 1.243.136.341.326.601.572.78.245.18.532.269.86.269.242 0 .459-.05.65-.15.197-.099.357-.243.483-.432.13-.192.214-.422.254-.691h1.998a3.129 3.129 0 0 1-.477 1.541c-.282.441-.671.786-1.168 1.034-.497.249-1.086.373-1.765.373zm10.2-10.332V15h-2.153V4.818h2.153zM77.652 15h-3.609V4.818h3.64c1.023 0 1.905.204 2.644.612.74.404 1.308.986 1.706 1.745.4.759.601 1.667.601 2.724 0 1.06-.2 1.972-.602 2.735a4.134 4.134 0 0 1-1.715 1.755c-.742.407-1.63.611-2.664.611zm-1.456-1.845h1.367c.636 0 1.172-.112 1.606-.337.437-.23.766-.582.984-1.06.222-.48.333-1.1.333-1.859 0-.752-.11-1.367-.333-1.844A2.156 2.156 0 0 0 79.173 7c-.433-.226-.969-.338-1.605-.338h-1.372v6.492z" fill="#161A23"/>
    <rect x=".5" y="30.5" width="227" height="49" rx="7.5" fill="#fff"/>
    <rect x=".5" y="30.5" width="227" height="49" rx="7.5" stroke="#E3E3E3"/>
    <path d="M13.233 60V49.818h6.145v1.094h-4.912v3.44h4.594v1.094h-4.594v3.46h4.991V60h-6.224zm9.381-4.594V60h-1.173v-7.636h1.134v1.193h.099c.179-.388.45-.7.815-.935.365-.239.836-.358 1.412-.358.517 0 .97.106 1.358.318.387.21.689.527.904.955.216.424.323.961.323 1.61V60h-1.173v-4.773c0-.6-.156-1.067-.467-1.402-.312-.338-.74-.507-1.283-.507-.374 0-.71.081-1.004.244-.292.162-.522.4-.691.71-.17.312-.254.69-.254 1.134zm10.338-3.042v.994h-3.958v-.994h3.958zm-2.804-1.83h1.173v7.279c0 .33.048.58.144.745.1.163.225.272.378.328.156.053.32.08.492.08.13 0 .235-.007.318-.02l.2-.04.238 1.054c-.08.03-.19.06-.333.09-.143.033-.324.05-.542.05-.332 0-.657-.072-.975-.214a1.937 1.937 0 0 1-.785-.652c-.206-.291-.308-.66-.308-1.103v-7.597zm7.688 9.625c-.736 0-1.37-.162-1.904-.487a3.27 3.27 0 0 1-1.228-1.372c-.285-.59-.428-1.276-.428-2.058 0-.783.143-1.472.428-2.069.288-.6.69-1.067 1.203-1.402.517-.338 1.12-.507 1.81-.507.398 0 .79.066 1.178.2.388.132.74.347 1.059.645.318.295.572.686.76 1.174.19.487.284 1.087.284 1.8v.497h-5.886v-1.015h4.693c0-.43-.086-.815-.259-1.153a1.948 1.948 0 0 0-.725-.8c-.312-.196-.68-.294-1.104-.294-.468 0-.872.116-1.213.348a2.29 2.29 0 0 0-.78.895 2.629 2.629 0 0 0-.274 1.183v.676c0 .577.1 1.066.298 1.467.202.398.482.701.84.91.358.205.774.308 1.248.308.308 0 .587-.043.835-.13.252-.089.47-.221.652-.397.182-.179.323-.4.422-.666l1.134.318c-.12.385-.32.723-.602 1.014-.282.289-.63.514-1.044.676-.414.16-.88.24-1.397.24zM42.783 60v-7.636h1.133v1.153h.08c.14-.378.391-.684.756-.92a2.225 2.225 0 0 1 1.233-.353c.086 0 .193.002.323.005.129.004.227.009.293.015v1.193c-.04-.01-.13-.025-.273-.044a2.691 2.691 0 0 0-.443-.035c-.371 0-.703.078-.994.233a1.764 1.764 0 0 0-.686.637 1.715 1.715 0 0 0-.249.92V60h-1.173zm10.32-4.594V60h-1.174V49.818h1.174v3.739h.1c.178-.395.447-.708.804-.94.362-.235.842-.353 1.442-.353.52 0 .976.105 1.367.313.392.206.695.522.91.95.219.424.328.965.328 1.62V60h-1.173v-4.773c0-.606-.157-1.075-.472-1.407-.312-.334-.744-.502-1.298-.502-.384 0-.729.081-1.034.244-.302.162-.54.4-.716.71-.172.312-.258.69-.258 1.134zm10.3 4.753c-.736 0-1.371-.162-1.905-.487A3.27 3.27 0 0 1 60.27 58.3c-.285-.59-.427-1.276-.427-2.058 0-.783.142-1.472.427-2.069.289-.6.69-1.067 1.203-1.402.518-.338 1.12-.507 1.81-.507.398 0 .79.066 1.178.2.388.132.741.347 1.06.645.318.295.571.686.76 1.174.189.487.283 1.087.283 1.8v.497h-5.886v-1.015h4.693c0-.43-.086-.815-.258-1.153a1.948 1.948 0 0 0-.726-.8c-.312-.196-.68-.294-1.104-.294-.467 0-.872.116-1.213.348a2.29 2.29 0 0 0-.78.895 2.629 2.629 0 0 0-.274 1.183v.676c0 .577.1 1.066.299 1.467.202.398.482.701.84.91.358.205.774.308 1.248.308.308 0 .586-.043.835-.13.252-.089.469-.221.651-.397.182-.179.323-.4.423-.666l1.133.318c-.12.385-.32.723-.601 1.014-.282.289-.63.514-1.044.676-.415.16-.88.24-1.397.24zM68.349 60v-7.636h1.134v1.153h.08c.138-.378.39-.684.755-.92a2.225 2.225 0 0 1 1.233-.353c.086 0 .194.002.323.005.13.004.227.009.293.015v1.193c-.04-.01-.13-.025-.273-.044a2.691 2.691 0 0 0-.443-.035c-.37 0-.702.078-.994.233a1.764 1.764 0 0 0-.686.637 1.715 1.715 0 0 0-.249.92V60H68.35zm8.178.16c-.735 0-1.37-.163-1.904-.488a3.27 3.27 0 0 1-1.228-1.372c-.285-.59-.427-1.276-.427-2.058 0-.783.142-1.472.427-2.069.289-.6.69-1.067 1.204-1.402.517-.338 1.12-.507 1.81-.507.397 0 .79.066 1.177.2.388.132.741.347 1.06.645.318.295.571.686.76 1.174.189.487.283 1.087.283 1.8v.497h-5.886v-1.015h4.693c0-.43-.086-.815-.258-1.153a1.948 1.948 0 0 0-.726-.8c-.312-.196-.68-.294-1.104-.294-.467 0-.871.116-1.213.348a2.29 2.29 0 0 0-.78.895 2.629 2.629 0 0 0-.274 1.183v.676c0 .577.1 1.066.298 1.467.203.398.483.701.84.91.359.205.775.308 1.249.308.308 0 .586-.043.835-.13.252-.089.469-.221.651-.397.182-.179.323-.4.423-.666l1.133.318c-.12.385-.32.723-.601 1.014-.282.289-.63.514-1.044.676-.415.16-.88.24-1.397.24zm5.802-.08a.861.861 0 0 1-.631-.264.861.861 0 0 1-.263-.631c0-.246.087-.456.263-.632a.861.861 0 0 1 .631-.263c.246 0 .456.088.632.263a.861.861 0 0 1 .263.632.928.928 0 0 1-.448.776.852.852 0 0 1-.447.119zm3.856 0a.862.862 0 0 1-.632-.264.862.862 0 0 1-.263-.631c0-.246.088-.456.263-.632a.861.861 0 0 1 .632-.263c.245 0 .456.088.631.263a.861.861 0 0 1 .264.632.927.927 0 0 1-.447.776.852.852 0 0 1-.448.119zm3.855 0a.861.861 0 0 1-.631-.264.862.862 0 0 1-.264-.631c0-.246.088-.456.264-.632a.861.861 0 0 1 .631-.263c.246 0 .456.088.632.263a.861.861 0 0 1 .263.632.927.927 0 0 1-.447.776.852.852 0 0 1-.448.119z" fill="#B0B7C4"/>
</svg>
