<svg width="228" height="80" viewBox="0 0 228 80" fill="none" xmlns="http://www.w3.org/2000/svg">
    <path d="M9.401 4.818V15h-1.86L3.113 8.592h-.074V15H.885V4.818h1.89l4.394 6.404h.09V4.818H9.4zm1.391 1.775V4.818h8.362v1.775h-3.117V15H13.91V6.593h-3.117zm18.256-1.775V15h-1.86l-4.43-6.408h-.074V15h-2.153V4.818h1.89l4.395 6.404h.089V4.818h2.143z" fill="#161A23"/>
    <rect x=".5" y="30.5" width="227" height="49" rx="7.5" fill="#fff"/>
    <rect x=".5" y="30.5" width="227" height="49" rx="7.5" stroke="#E3E3E3"/>
    <path d="M13.233 60V49.818h6.145v1.094h-4.912v3.44h4.594v1.094h-4.594v3.46h4.991V60h-6.224zm9.381-4.594V60h-1.173v-7.636h1.134v1.193h.099c.179-.388.45-.7.815-.935.365-.239.836-.358 1.412-.358.517 0 .97.106 1.358.318.387.21.689.527.904.955.216.424.323.961.323 1.61V60h-1.173v-4.773c0-.6-.156-1.067-.467-1.402-.312-.338-.74-.507-1.283-.507-.374 0-.71.081-1.004.244-.292.162-.522.4-.691.71-.17.312-.254.69-.254 1.134zm10.338-3.042v.994h-3.958v-.994h3.958zm-2.804-1.83h1.173v7.279c0 .33.048.58.144.745.1.163.225.272.378.328.156.053.32.08.492.08.13 0 .235-.007.318-.02l.2-.04.238 1.054c-.08.03-.19.06-.333.09-.143.033-.324.05-.542.05-.332 0-.657-.072-.975-.214a1.937 1.937 0 0 1-.785-.652c-.206-.291-.308-.66-.308-1.103v-7.597zm7.688 9.625c-.736 0-1.37-.162-1.904-.487a3.27 3.27 0 0 1-1.228-1.372c-.285-.59-.428-1.276-.428-2.058 0-.783.143-1.472.428-2.069.288-.6.69-1.067 1.203-1.402.517-.338 1.12-.507 1.81-.507.398 0 .79.066 1.178.2.388.132.74.347 1.059.645.318.295.572.686.76 1.174.19.487.284 1.087.284 1.8v.497h-5.886v-1.015h4.693c0-.43-.086-.815-.259-1.153a1.948 1.948 0 0 0-.725-.8c-.312-.196-.68-.294-1.104-.294-.468 0-.872.116-1.213.348a2.29 2.29 0 0 0-.78.895 2.629 2.629 0 0 0-.274 1.183v.676c0 .577.1 1.066.298 1.467.202.398.482.701.84.91.358.205.774.308 1.248.308.308 0 .587-.043.835-.13.252-.089.47-.221.652-.397.182-.179.323-.4.422-.666l1.134.318c-.12.385-.32.723-.602 1.014-.282.289-.63.514-1.044.676-.414.16-.88.24-1.397.24zM42.783 60v-7.636h1.133v1.153h.08c.14-.378.391-.684.756-.92a2.225 2.225 0 0 1 1.233-.353c.086 0 .193.002.323.005.129.004.227.009.293.015v1.193c-.04-.01-.13-.025-.273-.044a2.691 2.691 0 0 0-.443-.035c-.371 0-.703.078-.994.233a1.764 1.764 0 0 0-.686.637 1.715 1.715 0 0 0-.249.92V60h-1.173zm10.32-4.594V60h-1.174V49.818h1.174v3.739h.1c.178-.395.447-.708.804-.94.362-.235.842-.353 1.442-.353.52 0 .976.105 1.367.313.392.206.695.522.91.95.219.424.328.965.328 1.62V60h-1.173v-4.773c0-.606-.157-1.075-.472-1.407-.312-.334-.744-.502-1.298-.502-.384 0-.729.081-1.034.244-.302.162-.54.4-.716.71-.172.312-.258.69-.258 1.134zm10.3 4.753c-.736 0-1.371-.162-1.905-.487A3.27 3.27 0 0 1 60.27 58.3c-.285-.59-.427-1.276-.427-2.058 0-.783.142-1.472.427-2.069.289-.6.69-1.067 1.203-1.402.518-.338 1.12-.507 1.81-.507.398 0 .79.066 1.178.2.388.132.741.347 1.06.645.318.295.571.686.76 1.174.189.487.283 1.087.283 1.8v.497h-5.886v-1.015h4.693c0-.43-.086-.815-.258-1.153a1.948 1.948 0 0 0-.726-.8c-.312-.196-.68-.294-1.104-.294-.467 0-.872.116-1.213.348a2.29 2.29 0 0 0-.78.895 2.629 2.629 0 0 0-.274 1.183v.676c0 .577.1 1.066.299 1.467.202.398.482.701.84.91.358.205.774.308 1.248.308.308 0 .586-.043.835-.13.252-.089.469-.221.651-.397.182-.179.323-.4.423-.666l1.133.318c-.12.385-.32.723-.601 1.014-.282.289-.63.514-1.044.676-.415.16-.88.24-1.397.24zM68.349 60v-7.636h1.134v1.153h.08c.138-.378.39-.684.755-.92a2.225 2.225 0 0 1 1.233-.353c.086 0 .194.002.323.005.13.004.227.009.293.015v1.193c-.04-.01-.13-.025-.273-.044a2.691 2.691 0 0 0-.443-.035c-.37 0-.702.078-.994.233a1.764 1.764 0 0 0-.686.637 1.715 1.715 0 0 0-.249.92V60H68.35zm8.178.16c-.735 0-1.37-.163-1.904-.488a3.27 3.27 0 0 1-1.228-1.372c-.285-.59-.427-1.276-.427-2.058 0-.783.142-1.472.427-2.069.289-.6.69-1.067 1.204-1.402.517-.338 1.12-.507 1.81-.507.397 0 .79.066 1.177.2.388.132.741.347 1.06.645.318.295.571.686.76 1.174.189.487.283 1.087.283 1.8v.497h-5.886v-1.015h4.693c0-.43-.086-.815-.258-1.153a1.948 1.948 0 0 0-.726-.8c-.312-.196-.68-.294-1.104-.294-.467 0-.871.116-1.213.348a2.29 2.29 0 0 0-.78.895 2.629 2.629 0 0 0-.274 1.183v.676c0 .577.1 1.066.298 1.467.203.398.483.701.84.91.359.205.775.308 1.249.308.308 0 .586-.043.835-.13.252-.089.469-.221.651-.397.182-.179.323-.4.423-.666l1.133.318c-.12.385-.32.723-.601 1.014-.282.289-.63.514-1.044.676-.415.16-.88.24-1.397.24zm5.802-.08a.861.861 0 0 1-.631-.264.861.861 0 0 1-.263-.631c0-.246.087-.456.263-.632a.861.861 0 0 1 .631-.263c.246 0 .456.088.632.263a.861.861 0 0 1 .263.632.928.928 0 0 1-.448.776.852.852 0 0 1-.447.119zm3.856 0a.862.862 0 0 1-.632-.264.862.862 0 0 1-.263-.631c0-.246.088-.456.263-.632a.861.861 0 0 1 .632-.263c.245 0 .456.088.631.263a.861.861 0 0 1 .264.632.927.927 0 0 1-.447.776.852.852 0 0 1-.448.119zm3.855 0a.861.861 0 0 1-.631-.264.862.862 0 0 1-.264-.631c0-.246.088-.456.264-.632a.861.861 0 0 1 .631-.263c.246 0 .456.088.632.263a.861.861 0 0 1 .263.632.927.927 0 0 1-.447.776.852.852 0 0 1-.448.119z" fill="#B0B7C4"/>
</svg>
