<svg width="472" height="80" viewBox="0 0 472 80" fill="none" xmlns="http://www.w3.org/2000/svg">
    <path d="M2.64 15H.333L3.848 4.818h2.774L10.132 15H7.825l-2.55-7.855h-.08L2.64 15zm-.144-4.002h5.449v1.68h-5.45v-1.68zm8.822 6.866v-10.5h2.088v1.282h.094a2.8 2.8 0 0 1 .403-.626c.179-.216.411-.395.696-.537.288-.146.646-.219 1.074-.219.557 0 1.07.146 1.541.438.47.288.847.724 1.129 1.307.281.58.422 1.308.422 2.183 0 .852-.137 1.57-.412 2.157-.272.584-.643 1.026-1.114 1.328a2.858 2.858 0 0 1-1.571.447c-.411 0-.76-.068-1.049-.204a2.17 2.17 0 0 1-.701-.512 2.6 2.6 0 0 1-.418-.631h-.064v4.087h-2.118zm2.073-6.682c0 .454.063.85.189 1.188.126.338.308.602.547.79.238.186.528.279.87.279.345 0 .636-.095.875-.284.238-.192.42-.457.542-.795.126-.341.189-.734.189-1.178 0-.441-.062-.829-.184-1.164a1.734 1.734 0 0 0-.542-.785c-.239-.189-.532-.283-.88-.283-.345 0-.637.09-.875.273-.236.182-.416.44-.542.776-.126.334-.189.729-.189 1.183zm6.786 6.682v-10.5h2.088v1.282h.095c.093-.205.227-.414.402-.626.18-.216.411-.395.697-.537.288-.146.646-.219 1.073-.219.557 0 1.07.146 1.541.438.471.288.847.724 1.13 1.307.28.58.422 1.308.422 2.183 0 .852-.138 1.57-.413 2.157-.272.584-.643 1.026-1.114 1.328a2.859 2.859 0 0 1-1.57.447c-.412 0-.761-.068-1.05-.204a2.17 2.17 0 0 1-.7-.512 2.603 2.603 0 0 1-.418-.631h-.065v4.087h-2.118zm2.073-6.682c0 .454.063.85.19 1.188.125.338.307.602.546.79.239.186.529.279.87.279.345 0 .636-.095.875-.284.239-.192.42-.457.542-.795.126-.341.189-.734.189-1.178 0-.441-.061-.829-.184-1.164a1.734 1.734 0 0 0-.542-.785c-.239-.189-.532-.283-.88-.283-.345 0-.636.09-.875.273-.235.182-.416.44-.542.776-.126.334-.189.729-.189 1.183zm8.904-6.364V15h-2.117V4.818h2.117zM32.852 15V7.364h2.118V15H32.85zm1.064-8.62a1.15 1.15 0 0 1-.81-.314 1.015 1.015 0 0 1-.333-.76c0-.292.11-.543.333-.751a1.14 1.14 0 0 1 .81-.318c.315 0 .583.106.805.318a.988.988 0 0 1 .338.75c0 .295-.112.549-.338.761-.222.209-.49.313-.805.313zm6.2 8.77c-.781 0-1.454-.167-2.018-.498a3.361 3.361 0 0 1-1.292-1.392c-.299-.593-.448-1.276-.448-2.048 0-.782.151-1.469.453-2.059a3.36 3.36 0 0 1 1.297-1.387c.56-.334 1.227-.502 1.999-.502.666 0 1.25.121 1.75.363s.896.582 1.188 1.02c.292.437.452.95.482 1.54h-1.998c-.057-.38-.206-.687-.448-.92-.238-.235-.552-.352-.94-.352-.328 0-.614.09-.86.268-.241.176-.43.433-.566.77-.136.339-.204.748-.204 1.229 0 .487.066.901.199 1.243.136.341.326.601.572.78.245.18.532.269.86.269.242 0 .459-.05.65-.15.197-.099.357-.243.483-.432.13-.192.214-.422.254-.691h1.998a3.13 3.13 0 0 1-.477 1.541c-.282.441-.671.786-1.168 1.034-.498.249-1.086.373-1.765.373zm6.945-.006c-.487 0-.922-.084-1.303-.253a2.096 2.096 0 0 1-.904-.761c-.22-.338-.329-.759-.329-1.263 0-.424.078-.78.234-1.069.156-.288.368-.52.636-.696.269-.175.574-.308.915-.398a6.99 6.99 0 0 1 1.084-.188c.444-.047.802-.09 1.074-.13.272-.043.469-.106.591-.189a.415.415 0 0 0 .184-.367V9.8c0-.315-.1-.559-.298-.731-.196-.172-.474-.259-.835-.259-.381 0-.685.085-.91.254a1.167 1.167 0 0 0-.447.626l-1.96-.159c.1-.464.296-.865.587-1.203a2.816 2.816 0 0 1 1.129-.785c.464-.186 1-.279 1.61-.279.425 0 .831.05 1.219.15.39.099.737.253 1.039.462.305.209.545.477.72.805.176.325.264.714.264 1.168V15h-2.008v-1.059h-.06c-.123.239-.287.45-.492.631-.206.18-.453.32-.74.423-.29.1-.622.15-1 .15zm.606-1.462c.312 0 .587-.06.826-.183.238-.126.426-.295.561-.508.136-.212.204-.452.204-.72v-.81a1.133 1.133 0 0 1-.273.118c-.113.034-.24.065-.383.095a19.31 19.31 0 0 1-.428.075l-.387.054a2.615 2.615 0 0 0-.652.174 1.04 1.04 0 0 0-.432.323.787.787 0 0 0-.154.498c0 .288.104.508.313.66.212.15.48.224.805.224zm7.455-3.097V15h-2.118V7.364h2.019V8.71h.09a2.13 2.13 0 0 1 .85-1.054c.397-.262.88-.393 1.446-.393.53 0 .993.116 1.387.348.395.232.701.564.92.995.219.427.328.938.328 1.53V15h-2.118v-4.484c.004-.468-.116-.832-.358-1.094-.242-.265-.575-.398-.999-.398a1.52 1.52 0 0 0-.756.184 1.283 1.283 0 0 0-.507.537 1.86 1.86 0 0 0-.184.84zm10.653-3.221v1.59h-4.599v-1.59h4.6zm-3.555-1.83h2.118v7.12c0 .195.03.347.09.457.06.106.142.18.248.223.11.044.236.065.378.065.1 0 .2-.008.299-.025l.228-.045.333 1.576a5.945 5.945 0 0 1-.447.115 3.584 3.584 0 0 1-.701.084c-.51.02-.958-.048-1.342-.203a1.873 1.873 0 0 1-.89-.726c-.212-.328-.317-.743-.314-1.243V5.534zm16.731-.716V15h-1.86l-4.429-6.408h-.075V15h-2.152V4.818h1.889l4.395 6.404h.09V4.818h2.142zm3.916 10.326c-.487 0-.92-.084-1.302-.253a2.097 2.097 0 0 1-.905-.761c-.219-.338-.328-.759-.328-1.263 0-.424.078-.78.234-1.069.155-.288.368-.52.636-.696.269-.175.573-.308.915-.398.344-.089.706-.152 1.084-.188.444-.047.802-.09 1.073-.13.272-.043.47-.106.592-.189a.415.415 0 0 0 .184-.367V9.8c0-.315-.1-.559-.298-.731-.196-.172-.474-.259-.836-.259-.38 0-.684.085-.91.254a1.167 1.167 0 0 0-.447.626L80.6 9.531c.1-.464.295-.865.587-1.203a2.815 2.815 0 0 1 1.129-.785c.464-.186 1-.279 1.61-.279.425 0 .83.05 1.219.15.39.099.737.253 1.038.462.305.209.546.477.721.805.176.325.264.714.264 1.168V15h-2.009v-1.059h-.06c-.122.239-.286.45-.492.631-.205.18-.452.32-.74.423-.289.1-.622.15-1 .15zm.607-1.462c.312 0 .587-.06.825-.183.239-.126.426-.295.562-.508.136-.212.204-.452.204-.72v-.81a1.132 1.132 0 0 1-.273.118 4.95 4.95 0 0 1-.383.095c-.143.027-.285.051-.428.075l-.388.054a2.615 2.615 0 0 0-.65.174 1.04 1.04 0 0 0-.433.323.788.788 0 0 0-.155.498c0 .288.105.508.314.66.212.15.48.224.805.224zM88.81 15V7.364h2.019V8.71h.089c.16-.448.424-.8.795-1.059.372-.259.816-.388 1.333-.388.523 0 .97.131 1.337.393.368.258.613.61.736 1.054h.08c.155-.438.437-.787.845-1.05.41-.264.896-.397 1.456-.397.713 0 1.291.227 1.735.681.448.451.672 1.09.672 1.92V15h-2.113v-4.718c0-.424-.113-.742-.338-.955a1.185 1.185 0 0 0-.846-.318c-.384 0-.684.123-.9.368-.215.242-.323.562-.323.96V15h-2.053v-4.763c0-.374-.108-.673-.323-.895-.212-.222-.492-.333-.84-.333-.236 0-.448.06-.637.18-.185.115-.333.28-.442.491-.11.21-.164.454-.164.736V15H88.81zm16.25.15c-.786 0-1.462-.16-2.029-.478a3.27 3.27 0 0 1-1.302-1.362c-.305-.59-.458-1.288-.458-2.093 0-.786.153-1.475.458-2.069a3.383 3.383 0 0 1 1.287-1.387c.557-.331 1.21-.497 1.959-.497.504 0 .973.081 1.407.244.438.159.819.4 1.144.72.328.322.583.727.765 1.214.182.484.274 1.05.274 1.7v.582h-6.449V10.41h4.455c0-.305-.066-.575-.199-.81a1.417 1.417 0 0 0-.552-.552 1.573 1.573 0 0 0-.81-.204c-.322 0-.607.075-.855.224a1.57 1.57 0 0 0-.577.592 1.68 1.68 0 0 0-.214.82v1.248c0 .378.07.704.209.98.143.274.343.486.602.636.258.149.565.223.919.223.236 0 .451-.033.647-.1.195-.066.363-.165.502-.297a1.3 1.3 0 0 0 .318-.488l1.959.13c-.1.47-.303.881-.612 1.232a3.07 3.07 0 0 1-1.183.816c-.48.192-1.036.288-1.665.288z" fill="#161A23"/>
    <rect x=".5" y="30.5" width="471" height="49" rx="7.5" fill="#fff"/>
    <rect x=".5" y="30.5" width="471" height="49" rx="7.5" stroke="#E3E3E3"/>
    <path d="M13.233 60V49.818h6.145v1.094h-4.912v3.44h4.594v1.094h-4.594v3.46h4.991V60h-6.224zm9.381-4.594V60h-1.173v-7.636h1.134v1.193h.099c.179-.388.45-.7.815-.935.365-.239.836-.358 1.412-.358.517 0 .97.106 1.358.318.387.21.689.527.904.955.216.424.323.961.323 1.61V60h-1.173v-4.773c0-.6-.156-1.067-.467-1.402-.312-.338-.74-.507-1.283-.507-.374 0-.71.081-1.004.244-.292.162-.522.4-.691.71-.17.312-.254.69-.254 1.134zm10.338-3.042v.994h-3.958v-.994h3.958zm-2.804-1.83h1.173v7.279c0 .33.048.58.144.745.1.163.225.272.378.328.156.053.32.08.492.08.13 0 .235-.007.318-.02l.2-.04.238 1.054c-.08.03-.19.06-.333.09-.143.033-.324.05-.542.05-.332 0-.657-.072-.975-.214a1.937 1.937 0 0 1-.785-.652c-.206-.291-.308-.66-.308-1.103v-7.597zm7.688 9.625c-.736 0-1.37-.162-1.904-.487a3.27 3.27 0 0 1-1.228-1.372c-.285-.59-.428-1.276-.428-2.058 0-.783.143-1.472.428-2.069.288-.6.69-1.067 1.203-1.402.517-.338 1.12-.507 1.81-.507.398 0 .79.066 1.178.2.388.132.74.347 1.059.645.318.295.572.686.76 1.174.19.487.284 1.087.284 1.8v.497h-5.886v-1.015h4.693c0-.43-.086-.815-.259-1.153a1.948 1.948 0 0 0-.725-.8c-.312-.196-.68-.294-1.104-.294-.468 0-.872.116-1.213.348a2.29 2.29 0 0 0-.78.895 2.629 2.629 0 0 0-.274 1.183v.676c0 .577.1 1.066.298 1.467.202.398.482.701.84.91.358.205.774.308 1.248.308.308 0 .587-.043.835-.13.252-.089.47-.221.652-.397.182-.179.323-.4.422-.666l1.134.318c-.12.385-.32.723-.602 1.014-.282.289-.63.514-1.044.676-.414.16-.88.24-1.397.24zM42.783 60v-7.636h1.133v1.153h.08c.14-.378.391-.684.756-.92a2.225 2.225 0 0 1 1.233-.353c.086 0 .193.002.323.005.129.004.227.009.293.015v1.193c-.04-.01-.13-.025-.273-.044a2.691 2.691 0 0 0-.443-.035c-.371 0-.703.078-.994.233a1.764 1.764 0 0 0-.686.637 1.715 1.715 0 0 0-.249.92V60h-1.173zm10.32-4.594V60h-1.174V49.818h1.174v3.739h.1c.178-.395.447-.708.804-.94.362-.235.842-.353 1.442-.353.52 0 .976.105 1.367.313.392.206.695.522.91.95.219.424.328.965.328 1.62V60h-1.173v-4.773c0-.606-.157-1.075-.472-1.407-.312-.334-.744-.502-1.298-.502-.384 0-.729.081-1.034.244-.302.162-.54.4-.716.71-.172.312-.258.69-.258 1.134zm10.3 4.753c-.736 0-1.371-.162-1.905-.487A3.27 3.27 0 0 1 60.27 58.3c-.285-.59-.427-1.276-.427-2.058 0-.783.142-1.472.427-2.069.289-.6.69-1.067 1.203-1.402.518-.338 1.12-.507 1.81-.507.398 0 .79.066 1.178.2.388.132.741.347 1.06.645.318.295.571.686.76 1.174.189.487.283 1.087.283 1.8v.497h-5.886v-1.015h4.693c0-.43-.086-.815-.258-1.153a1.948 1.948 0 0 0-.726-.8c-.312-.196-.68-.294-1.104-.294-.467 0-.872.116-1.213.348a2.29 2.29 0 0 0-.78.895 2.629 2.629 0 0 0-.274 1.183v.676c0 .577.1 1.066.299 1.467.202.398.482.701.84.91.358.205.774.308 1.248.308.308 0 .586-.043.835-.13.252-.089.469-.221.651-.397.182-.179.323-.4.423-.666l1.133.318c-.12.385-.32.723-.601 1.014-.282.289-.63.514-1.044.676-.415.16-.88.24-1.397.24zM68.349 60v-7.636h1.134v1.153h.08c.138-.378.39-.684.755-.92a2.225 2.225 0 0 1 1.233-.353c.086 0 .194.002.323.005.13.004.227.009.293.015v1.193c-.04-.01-.13-.025-.273-.044a2.691 2.691 0 0 0-.443-.035c-.37 0-.702.078-.994.233a1.764 1.764 0 0 0-.686.637 1.715 1.715 0 0 0-.249.92V60H68.35zm8.178.16c-.735 0-1.37-.163-1.904-.488a3.27 3.27 0 0 1-1.228-1.372c-.285-.59-.427-1.276-.427-2.058 0-.783.142-1.472.427-2.069.289-.6.69-1.067 1.204-1.402.517-.338 1.12-.507 1.81-.507.397 0 .79.066 1.177.2.388.132.741.347 1.06.645.318.295.571.686.76 1.174.189.487.283 1.087.283 1.8v.497h-5.886v-1.015h4.693c0-.43-.086-.815-.258-1.153a1.948 1.948 0 0 0-.726-.8c-.312-.196-.68-.294-1.104-.294-.467 0-.871.116-1.213.348a2.29 2.29 0 0 0-.78.895 2.629 2.629 0 0 0-.274 1.183v.676c0 .577.1 1.066.298 1.467.203.398.483.701.84.91.359.205.775.308 1.249.308.308 0 .586-.043.835-.13.252-.089.469-.221.651-.397.182-.179.323-.4.423-.666l1.133.318c-.12.385-.32.723-.601 1.014-.282.289-.63.514-1.044.676-.415.16-.88.24-1.397.24zm5.802-.08a.861.861 0 0 1-.631-.264.861.861 0 0 1-.263-.631c0-.246.087-.456.263-.632a.861.861 0 0 1 .631-.263c.246 0 .456.088.632.263a.861.861 0 0 1 .263.632.928.928 0 0 1-.448.776.852.852 0 0 1-.447.119zm3.856 0a.862.862 0 0 1-.632-.264.862.862 0 0 1-.263-.631c0-.246.088-.456.263-.632a.861.861 0 0 1 .632-.263c.245 0 .456.088.631.263a.861.861 0 0 1 .264.632.927.927 0 0 1-.447.776.852.852 0 0 1-.448.119zm3.855 0a.861.861 0 0 1-.631-.264.862.862 0 0 1-.264-.631c0-.246.088-.456.264-.632a.861.861 0 0 1 .631-.263c.246 0 .456.088.632.263a.861.861 0 0 1 .263.632.927.927 0 0 1-.447.776.852.852 0 0 1-.448.119z" fill="#B0B7C4"/>
</svg>
