<svg width="20" height="20" viewBox="0 0 20 20" fill="none" xmlns="http://www.w3.org/2000/svg">
<g clip-path="url(#clip0_2087_8353)">
<path d="M10.0742 0C10.6366 0 11.1806 0.202617 11.6045 0.571289C11.9058 0.833361 12.1323 1.16716 12.2666 1.53711C12.9317 1.68445 13.4826 2.14148 13.7588 2.74805H17.1494V20H3V2.74805H6.39062C6.66675 2.14158 7.21686 1.68453 7.88184 1.53711C8.0161 1.16706 8.24349 0.83344 8.54492 0.571289C8.96872 0.202754 9.51203 0.000107922 10.0742 0ZM4.17188 18.8281H15.9775V3.91992H13.9502V5.40625H6.19922V3.91992H4.17188V18.8281ZM14.6533 14.6514L12.0986 17.207L10.4404 15.5488L11.2695 14.7207L12.0986 15.5498L13.8252 13.8232L14.6533 14.6514ZM9.23535 16.3623H5.58691V15.1904H9.23535V16.3623ZM14.6533 11.2256L12.0986 13.7812L10.4404 12.123L11.2695 11.2949L12.0986 12.124L13.8252 10.3975L14.6533 11.2256ZM9.23535 12.9365H5.58691V11.7646H9.23535V12.9365ZM14.6533 7.7998L12.0986 10.3555L10.4404 8.69727L11.2695 7.86914L12.0986 8.69824L13.8252 6.97168L14.6533 7.7998ZM9.23535 9.51074H5.58691V8.33887H9.23535V9.51074ZM10.0742 1.17188C9.50425 1.1721 9.01138 1.59663 8.92773 2.15918L8.85352 2.6582H8.34863C7.80944 2.6582 7.37133 3.09649 7.37109 3.63477V4.23438H12.7783V3.63477C12.7781 3.09649 12.3401 2.6582 11.8018 2.6582H11.2959L11.2217 2.15918C11.138 1.59648 10.6444 1.17188 10.0742 1.17188Z" fill="#556485"/>
<path d="M10.0742 0L10.0742 -0.1L10.0742 -0.1L10.0742 0ZM11.6045 0.571289L11.5389 0.646745L11.5389 0.646745L11.6045 0.571289ZM12.2666 1.53711L12.1726 1.57123L12.1913 1.62286L12.245 1.63474L12.2666 1.53711ZM13.7588 2.74805L13.6678 2.78948L13.6944 2.84805H13.7588V2.74805ZM17.1494 2.74805H17.2494V2.64805H17.1494V2.74805ZM17.1494 20V20.1H17.2494V20H17.1494ZM3 20H2.9V20.1H3V20ZM3 2.74805V2.64805H2.9V2.74805H3ZM6.39062 2.74805V2.84805H6.45497L6.48164 2.78948L6.39062 2.74805ZM7.88184 1.53711L7.90348 1.63474L7.95711 1.62285L7.97584 1.57122L7.88184 1.53711ZM8.54492 0.571289L8.4793 0.49583L8.4793 0.495833L8.54492 0.571289ZM4.17188 18.8281H4.07187V18.9281H4.17188V18.8281ZM15.9775 18.8281V18.9281H16.0775V18.8281H15.9775ZM15.9775 3.91992H16.0775V3.81992H15.9775V3.91992ZM13.9502 3.91992V3.81992H13.8502V3.91992H13.9502ZM13.9502 5.40625V5.50625H14.0502V5.40625H13.9502ZM6.19922 5.40625H6.09922V5.50625H6.19922V5.40625ZM6.19922 3.91992H6.29922V3.81992H6.19922V3.91992ZM4.17188 3.91992V3.81992H4.07187V3.91992H4.17188ZM14.6533 14.6514L14.724 14.7221L14.7947 14.6514L14.724 14.5807L14.6533 14.6514ZM12.0986 17.207L12.0279 17.2777L12.0986 17.3485L12.1694 17.2777L12.0986 17.207ZM10.4404 15.5488L10.3698 15.4781L10.299 15.5488L10.3697 15.6195L10.4404 15.5488ZM11.2695 14.7207L11.3402 14.65L11.2696 14.5793L11.1989 14.65L11.2695 14.7207ZM12.0986 15.5498L12.0279 15.6205L12.0986 15.6912L12.1693 15.6205L12.0986 15.5498ZM13.8252 13.8232L13.8959 13.7525L13.8252 13.6818L13.7545 13.7525L13.8252 13.8232ZM9.23535 16.3623V16.4623H9.33535V16.3623H9.23535ZM5.58691 16.3623H5.48691V16.4623H5.58691V16.3623ZM5.58691 15.1904V15.0904H5.48691V15.1904H5.58691ZM9.23535 15.1904H9.33535V15.0904H9.23535V15.1904ZM14.6533 11.2256L14.724 11.2963L14.7947 11.2256L14.724 11.1549L14.6533 11.2256ZM12.0986 13.7812L12.0279 13.852L12.0986 13.9227L12.1694 13.8519L12.0986 13.7812ZM10.4404 12.123L10.3698 12.0523L10.299 12.123L10.3697 12.1938L10.4404 12.123ZM11.2695 11.2949L11.3402 11.2242L11.2696 11.1535L11.1989 11.2242L11.2695 11.2949ZM12.0986 12.124L12.0279 12.1947L12.0986 12.2654L12.1693 12.1947L12.0986 12.124ZM13.8252 10.3975L13.8959 10.3268L13.8252 10.256L13.7545 10.3268L13.8252 10.3975ZM9.23535 12.9365V13.0365H9.33535V12.9365H9.23535ZM5.58691 12.9365H5.48691V13.0365H5.58691V12.9365ZM5.58691 11.7646V11.6646H5.48691V11.7646H5.58691ZM9.23535 11.7646H9.33535V11.6646H9.23535V11.7646ZM14.6533 7.7998L14.724 7.8705L14.7947 7.79979L14.724 7.72909L14.6533 7.7998ZM12.0986 10.3555L12.0279 10.4262L12.0986 10.4969L12.1694 10.4262L12.0986 10.3555ZM10.4404 8.69727L10.3698 8.62651L10.299 8.69722L10.3697 8.76798L10.4404 8.69727ZM11.2695 7.86914L11.3402 7.79843L11.2696 7.72776L11.1989 7.79839L11.2695 7.86914ZM12.0986 8.69824L12.0279 8.76895L12.0986 8.83966L12.1693 8.76895L12.0986 8.69824ZM13.8252 6.97168L13.8959 6.90097L13.8252 6.83026L13.7545 6.90097L13.8252 6.97168ZM9.23535 9.51074V9.61074H9.33535V9.51074H9.23535ZM5.58691 9.51074H5.48691V9.61074H5.58691V9.51074ZM5.58691 8.33887V8.23887H5.48691V8.33887H5.58691ZM9.23535 8.33887H9.33535V8.23887H9.23535V8.33887ZM10.0742 1.17188L10.0742 1.07187L10.0742 1.07188L10.0742 1.17188ZM8.92773 2.15918L9.02665 2.17389L9.02665 2.17389L8.92773 2.15918ZM8.85352 2.6582V2.7582H8.93974L8.95243 2.67291L8.85352 2.6582ZM7.37109 3.63477L7.27109 3.63472V3.63477H7.37109ZM7.37109 4.23438H7.27109V4.33438H7.37109V4.23438ZM12.7783 4.23438V4.33438H12.8783V4.23438H12.7783ZM12.7783 3.63477L12.8783 3.63477L12.8783 3.63472L12.7783 3.63477ZM11.2959 2.6582L11.197 2.67291L11.2097 2.7582H11.2959V2.6582ZM11.2217 2.15918L11.3206 2.14447L11.3206 2.14446L11.2217 2.15918ZM10.0742 0V0.1C10.6126 0.1 11.1332 0.293976 11.5389 0.646745L11.6045 0.571289L11.6701 0.495834C11.2279 0.111258 10.6606 -0.1 10.0742 -0.1V0ZM11.6045 0.571289L11.5389 0.646745C11.8272 0.897505 12.044 1.217 12.1726 1.57123L12.2666 1.53711L12.3606 1.50299C12.2206 1.11731 11.9845 0.769216 11.6701 0.495833L11.6045 0.571289ZM12.2666 1.53711L12.245 1.63474C12.8788 1.77517 13.4044 2.21098 13.6678 2.78948L13.7588 2.74805L13.8498 2.70661C13.5609 2.07198 12.9845 1.59374 12.2882 1.43948L12.2666 1.53711ZM13.7588 2.74805V2.84805H17.1494V2.74805V2.64805H13.7588V2.74805ZM17.1494 2.74805H17.0494V20H17.1494H17.2494V2.74805H17.1494ZM17.1494 20V19.9H3V20V20.1H17.1494V20ZM3 20H3.1V2.74805H3H2.9V20H3ZM3 2.74805V2.84805H6.39062V2.74805V2.64805H3V2.74805ZM6.39062 2.74805L6.48164 2.78948C6.74501 2.21103 7.26979 1.77523 7.90348 1.63474L7.88184 1.53711L7.86019 1.43948C7.16394 1.59383 6.58849 2.07214 6.29961 2.70661L6.39062 2.74805ZM7.88184 1.53711L7.97584 1.57122C8.10434 1.21704 8.322 0.897681 8.61054 0.646746L8.54492 0.571289L8.4793 0.495833C8.16497 0.769199 7.92785 1.11708 7.78783 1.503L7.88184 1.53711ZM8.54492 0.571289L8.61054 0.646748C9.01608 0.294091 9.53608 0.100103 10.0742 0.1L10.0742 0L10.0742 -0.1C9.48799 -0.0998875 8.92135 0.111418 8.4793 0.49583L8.54492 0.571289ZM4.17188 18.8281V18.9281H15.9775V18.8281V18.7281H4.17188V18.8281ZM15.9775 18.8281H16.0775V3.91992H15.9775H15.8775V18.8281H15.9775ZM15.9775 3.91992V3.81992H13.9502V3.91992V4.01992H15.9775V3.91992ZM13.9502 3.91992H13.8502V5.40625H13.9502H14.0502V3.91992H13.9502ZM13.9502 5.40625V5.30625H6.19922V5.40625V5.50625H13.9502V5.40625ZM6.19922 5.40625H6.29922V3.91992H6.19922H6.09922V5.40625H6.19922ZM6.19922 3.91992V3.81992H4.17188V3.91992V4.01992H6.19922V3.91992ZM4.17188 3.91992H4.07187V18.8281H4.17188H4.27188V3.91992H4.17188ZM14.6533 14.6514L14.5826 14.5807L12.0279 17.1363L12.0986 17.207L12.1694 17.2777L14.724 14.7221L14.6533 14.6514ZM12.0986 17.207L12.1693 17.1363L10.5111 15.4781L10.4404 15.5488L10.3697 15.6195L12.0279 17.2777L12.0986 17.207ZM10.4404 15.5488L10.5111 15.6196L11.3402 14.7915L11.2695 14.7207L11.1989 14.65L10.3698 15.4781L10.4404 15.5488ZM11.2695 14.7207L11.1988 14.7914L12.0279 15.6205L12.0986 15.5498L12.1693 15.4791L11.3402 14.65L11.2695 14.7207ZM12.0986 15.5498L12.1693 15.6205L13.8959 13.894L13.8252 13.8232L13.7545 13.7525L12.0279 15.4791L12.0986 15.5498ZM13.8252 13.8232L13.7545 13.894L14.5826 14.7221L14.6533 14.6514L14.724 14.5807L13.8959 13.7525L13.8252 13.8232ZM9.23535 16.3623V16.2623H5.58691V16.3623V16.4623H9.23535V16.3623ZM5.58691 16.3623H5.68691V15.1904H5.58691H5.48691V16.3623H5.58691ZM5.58691 15.1904V15.2904H9.23535V15.1904V15.0904H5.58691V15.1904ZM9.23535 15.1904H9.13535V16.3623H9.23535H9.33535V15.1904H9.23535ZM14.6533 11.2256L14.5826 11.1549L12.0279 13.7106L12.0986 13.7812L12.1694 13.8519L14.724 11.2963L14.6533 11.2256ZM12.0986 13.7812L12.1693 13.7105L10.5111 12.0523L10.4404 12.123L10.3697 12.1938L12.0279 13.852L12.0986 13.7812ZM10.4404 12.123L10.5111 12.1938L11.3402 11.3657L11.2695 11.2949L11.1989 11.2242L10.3698 12.0523L10.4404 12.123ZM11.2695 11.2949L11.1988 11.3656L12.0279 12.1947L12.0986 12.124L12.1693 12.0533L11.3402 11.2242L11.2695 11.2949ZM12.0986 12.124L12.1693 12.1947L13.8959 10.4682L13.8252 10.3975L13.7545 10.3268L12.0279 12.0533L12.0986 12.124ZM13.8252 10.3975L13.7545 10.4682L14.5826 11.2963L14.6533 11.2256L14.724 11.1549L13.8959 10.3268L13.8252 10.3975ZM9.23535 12.9365V12.8365H5.58691V12.9365V13.0365H9.23535V12.9365ZM5.58691 12.9365H5.68691V11.7646H5.58691H5.48691V12.9365H5.58691ZM5.58691 11.7646V11.8646H9.23535V11.7646V11.6646H5.58691V11.7646ZM9.23535 11.7646H9.13535V12.9365H9.23535H9.33535V11.7646H9.23535ZM14.6533 7.7998L14.5826 7.72911L12.0279 10.2848L12.0986 10.3555L12.1694 10.4262L14.724 7.8705L14.6533 7.7998ZM12.0986 10.3555L12.1693 10.2848L10.5111 8.62655L10.4404 8.69727L10.3697 8.76798L12.0279 10.4262L12.0986 10.3555ZM10.4404 8.69727L10.5111 8.76802L11.3402 7.93989L11.2695 7.86914L11.1989 7.79839L10.3698 8.62651L10.4404 8.69727ZM11.2695 7.86914L11.1988 7.93985L12.0279 8.76895L12.0986 8.69824L12.1693 8.62753L11.3402 7.79843L11.2695 7.86914ZM12.0986 8.69824L12.1693 8.76895L13.8959 7.04239L13.8252 6.97168L13.7545 6.90097L12.0279 8.62753L12.0986 8.69824ZM13.8252 6.97168L13.7545 7.04239L14.5826 7.87052L14.6533 7.7998L14.724 7.72909L13.8959 6.90097L13.8252 6.97168ZM9.23535 9.51074V9.41074H5.58691V9.51074V9.61074H9.23535V9.51074ZM5.58691 9.51074H5.68691V8.33887H5.58691H5.48691V9.51074H5.58691ZM5.58691 8.33887V8.43887H9.23535V8.33887V8.23887H5.58691V8.33887ZM9.23535 8.33887H9.13535V9.51074H9.23535H9.33535V8.33887H9.23535ZM10.0742 1.17188L10.0742 1.07188C9.45482 1.07212 8.91978 1.53279 8.82882 2.14447L8.92773 2.15918L9.02665 2.17389C9.10299 1.66048 9.55368 1.27208 10.0743 1.27187L10.0742 1.17188ZM8.92773 2.15918L8.82882 2.14447L8.7546 2.64349L8.85352 2.6582L8.95243 2.67291L9.02665 2.17389L8.92773 2.15918ZM8.85352 2.6582V2.5582H8.34863V2.6582V2.7582H8.85352V2.6582ZM8.34863 2.6582V2.5582C7.75424 2.5582 7.27135 3.04122 7.27109 3.63472L7.37109 3.63477L7.47109 3.63481C7.4713 3.15175 7.86464 2.7582 8.34863 2.7582V2.6582ZM7.37109 3.63477H7.27109V4.23438H7.37109H7.47109V3.63477H7.37109ZM7.37109 4.23438V4.33438H12.7783V4.23438V4.13437H7.37109V4.23438ZM12.7783 4.23438H12.8783V3.63477H12.7783H12.6783V4.23438H12.7783ZM12.7783 3.63477L12.8783 3.63472C12.8781 3.04129 12.3954 2.5582 11.8018 2.5582V2.6582V2.7582C12.2848 2.7582 12.6781 3.15168 12.6783 3.63481L12.7783 3.63477ZM11.8018 2.6582V2.5582H11.2959V2.6582V2.7582H11.8018V2.6582ZM11.2959 2.6582L11.3948 2.64349L11.3206 2.14447L11.2217 2.15918L11.1228 2.17389L11.197 2.67291L11.2959 2.6582ZM11.2217 2.15918L11.3206 2.14446C11.2296 1.53258 10.6937 1.07187 10.0742 1.07187V1.17188V1.27188C10.595 1.27188 11.0464 1.66039 11.1228 2.17389L11.2217 2.15918Z" fill="#556485"/>
</g>
<defs>
<clipPath id="clip0_2087_8353">
<rect width="20" height="20" fill="white"/>
</clipPath>
</defs>
</svg>
