<svg width="20" height="20" viewBox="0 0 20 20" fill="none" xmlns="http://www.w3.org/2000/svg">
<g clip-path="url(#clip0_2087_8313)">
<path d="M10.3379 0C10.4918 0.000117188 10.6441 0.0629297 10.7529 0.171875L15.3838 4.80371C15.4927 4.91249 15.5555 5.06397 15.5557 5.21777V7.39355H17.25C17.5216 7.39355 17.7577 7.58043 17.8203 7.84473L18.418 10.3672C19.3208 10.5599 20 11.3638 20 12.3232V15.5967C19.9999 15.9202 19.7376 16.1826 19.4141 16.1826H18.8281V17.0312C18.8281 17.3548 18.5658 17.6172 18.2422 17.6172C17.9186 17.6172 17.6562 17.3548 17.6562 17.0312V16.1826H15.5557V19.4141C15.5557 19.7377 15.2933 20 14.9697 20H0.585938C0.262344 20 0 19.7377 0 19.4141V0.585938C0 0.262344 0.262344 0 0.585938 0H10.3379ZM1.17188 18.8281H14.3838V16.1826H10.5996V17.0312C10.5996 17.3547 10.3371 17.617 10.0137 17.6172C9.69008 17.6172 9.42773 17.3548 9.42773 17.0312V16.1826H8.8418C8.51826 16.1826 8.25594 15.9202 8.25586 15.5967V12.3232C8.25586 11.3637 8.93492 10.5598 9.83789 10.3672L10.4355 7.84473C10.4981 7.58043 10.7343 7.39355 11.0059 7.39355H14.3838V5.80371H10.3379C10.0145 5.8035 9.75195 5.54124 9.75195 5.21777V1.17188H1.17188V18.8281ZM6.48438 15C6.8079 15.0001 7.07031 15.2624 7.07031 15.5859C7.07031 15.9095 6.8079 16.1718 6.48438 16.1719H3.27441C2.95082 16.1719 2.68848 15.9095 2.68848 15.5859C2.68848 15.2623 2.95082 15 3.27441 15H6.48438ZM17.9424 11.4951H10.2559C9.79926 11.4951 9.42773 11.8667 9.42773 12.3232V15.0107H18.8281V12.3232C18.8299 11.8439 18.4182 11.4663 17.9424 11.4951ZM11.1719 12.6562C11.4955 12.6562 11.7578 12.9186 11.7578 13.2422C11.7578 13.5658 11.4955 13.8281 11.1719 13.8281C10.8483 13.8281 10.5859 13.5658 10.5859 13.2422C10.5859 12.9186 10.8483 12.6562 11.1719 12.6562ZM17.0703 12.6562C17.3939 12.6562 17.6562 12.9186 17.6562 13.2422C17.6562 13.5658 17.3939 13.8281 17.0703 13.8281C16.7467 13.8281 16.4844 13.5658 16.4844 13.2422C16.4844 12.9186 16.7467 12.6562 17.0703 12.6562ZM6.48438 11.25C6.80788 11.2501 7.07031 11.5124 7.07031 11.8359C7.07031 12.1595 6.80788 12.4218 6.48438 12.4219H3.27441C2.95082 12.4219 2.68848 12.1595 2.68848 11.8359C2.68848 11.5123 2.95082 11.25 3.27441 11.25H6.48438ZM11.0527 10.3232H17.2031L16.7871 8.56543H11.4688L11.0527 10.3232ZM5.17285 2.34375C6.20661 2.34398 7.04762 3.18495 7.04785 4.21875C7.04785 4.64341 6.90583 5.03587 6.66699 5.35059C7.4674 5.85066 8.00084 6.73968 8.00098 7.75098V7.96875C8.00098 8.29234 7.73863 8.55469 7.41504 8.55469H2.92969C2.60609 8.55469 2.34375 8.29234 2.34375 7.96875V7.75098C2.34389 6.73961 2.87827 5.85064 3.67871 5.35059C3.43969 5.0358 3.29688 4.64359 3.29688 4.21875C3.29711 3.18481 4.13889 2.34375 5.17285 2.34375ZM5.17285 6.09473C4.3859 6.09473 3.72465 6.64605 3.55664 7.38281H6.78809C6.62011 6.64618 5.95963 6.09491 5.17285 6.09473ZM5.17285 3.51562C4.78507 3.51562 4.46898 3.83098 4.46875 4.21875C4.46875 4.60664 4.78492 4.92285 5.17285 4.92285C5.56058 4.92262 5.87598 4.60654 5.87598 4.21875C5.87574 3.83112 5.56044 3.51586 5.17285 3.51562ZM10.9238 4.63184H13.5557L10.9238 2.00098V4.63184Z" fill="#556485"/>
<path d="M10.3379 0L10.338 -0.1H10.3379V0ZM10.7529 0.171875L10.6822 0.242548L10.6822 0.242578L10.7529 0.171875ZM15.3838 4.80371L15.3131 4.87441L15.3131 4.87446L15.3838 4.80371ZM15.5557 5.21777L15.6557 5.21777L15.6557 5.21766L15.5557 5.21777ZM15.5557 7.39355H15.4557V7.49355H15.5557V7.39355ZM17.8203 7.84473L17.723 7.86777L17.723 7.86778L17.8203 7.84473ZM18.418 10.3672L18.3207 10.3902L18.3352 10.4518L18.3971 10.465L18.418 10.3672ZM20 15.5967L20.1 15.5967V15.5967H20ZM18.8281 16.1826V16.0826H18.7281V16.1826H18.8281ZM17.6562 16.1826H17.7563V16.0826H17.6562V16.1826ZM15.5557 16.1826V16.0826H15.4557V16.1826H15.5557ZM1.17188 18.8281H1.07187V18.9281H1.17188V18.8281ZM14.3838 18.8281V18.9281H14.4838V18.8281H14.3838ZM14.3838 16.1826H14.4838V16.0826H14.3838V16.1826ZM10.5996 16.1826V16.0826H10.4996V16.1826H10.5996ZM10.0137 17.6172L10.0137 17.7172L10.0137 17.7172L10.0137 17.6172ZM9.42773 16.1826H9.52773V16.0826H9.42773V16.1826ZM8.25586 15.5967L8.15586 15.5967L8.15586 15.5967L8.25586 15.5967ZM9.83789 10.3672L9.85875 10.465L9.92061 10.4518L9.9352 10.3902L9.83789 10.3672ZM10.4355 7.84473L10.5329 7.86778L10.5329 7.86777L10.4355 7.84473ZM14.3838 7.39355V7.49355H14.4838V7.39355H14.3838ZM14.3838 5.80371H14.4838V5.70371H14.3838V5.80371ZM10.3379 5.80371L10.3378 5.90371H10.3379V5.80371ZM9.75195 1.17188H9.85195V1.07187H9.75195V1.17188ZM1.17188 1.17188V1.07187H1.07187V1.17188H1.17188ZM6.48438 15L6.4844 14.9H6.48438V15ZM6.48438 16.1719L6.48438 16.2719L6.4844 16.2719L6.48438 16.1719ZM17.9424 11.4951V11.5953L17.9484 11.5949L17.9424 11.4951ZM9.42773 15.0107H9.32773V15.1107H9.42773V15.0107ZM18.8281 15.0107V15.1107H18.9281V15.0107H18.8281ZM18.8281 12.3232L18.7281 12.3229V12.3232H18.8281ZM6.48438 11.25L6.48441 11.15H6.48438V11.25ZM6.48438 12.4219L6.48438 12.5219L6.48441 12.5219L6.48438 12.4219ZM3.27441 12.4219L3.27441 12.5219H3.27441V12.4219ZM3.27441 11.25L3.27441 11.15H3.27441L3.27441 11.25ZM11.0527 10.3232L10.9554 10.3002L10.9263 10.4232H11.0527V10.3232ZM17.2031 10.3232V10.4232H17.3296L17.3004 10.3002L17.2031 10.3232ZM16.7871 8.56543L16.8844 8.5424L16.8662 8.46543H16.7871V8.56543ZM11.4688 8.56543V8.46543H11.3897L11.3714 8.5424L11.4688 8.56543ZM5.17285 2.34375L5.17287 2.24375H5.17285V2.34375ZM7.04785 4.21875L7.14785 4.21875L7.14785 4.21873L7.04785 4.21875ZM6.66699 5.35059L6.58733 5.29013L6.52113 5.37737L6.61401 5.43539L6.66699 5.35059ZM8.00098 7.75098L8.10098 7.75098L8.10098 7.75096L8.00098 7.75098ZM2.92969 8.55469L2.92969 8.65469H2.92969V8.55469ZM2.34375 7.75098L2.24375 7.75096V7.75098H2.34375ZM3.67871 5.35059L3.73169 5.4354L3.8246 5.37736L3.75835 5.29011L3.67871 5.35059ZM3.29688 4.21875L3.19687 4.21873V4.21875H3.29688ZM5.17285 6.09473L5.17287 5.99473H5.17285V6.09473ZM3.55664 7.38281L3.45914 7.36058L3.43127 7.48281H3.55664V7.38281ZM6.78809 7.38281V7.48281H6.91346L6.88558 7.36058L6.78809 7.38281ZM5.17285 3.51562L5.17291 3.41562H5.17285V3.51562ZM4.46875 4.21875L4.36875 4.21869V4.21875H4.46875ZM5.17285 4.92285L5.17285 5.02285L5.17291 5.02285L5.17285 4.92285ZM5.87598 4.21875L5.97598 4.21875L5.97598 4.21869L5.87598 4.21875ZM10.9238 4.63184H10.8238V4.73184H10.9238V4.63184ZM13.5557 4.63184V4.73184H13.7971L13.6264 4.56111L13.5557 4.63184ZM10.9238 2.00098L10.9945 1.93025L10.8238 1.75962V2.00098H10.9238ZM10.3379 0L10.3378 0.1C10.4654 0.100097 10.5922 0.152475 10.6822 0.242548L10.7529 0.171875L10.8237 0.101202C10.696 -0.0266156 10.5182 -0.0998627 10.338 -0.1L10.3379 0ZM10.7529 0.171875L10.6822 0.242578L15.3131 4.87441L15.3838 4.80371L15.4545 4.73301L10.8236 0.101172L10.7529 0.171875ZM15.3838 4.80371L15.3131 4.87446C15.4032 4.96449 15.4555 5.09056 15.4557 5.21788L15.5557 5.21777L15.6557 5.21766C15.6555 5.03739 15.5821 4.86049 15.4545 4.73296L15.3838 4.80371ZM15.5557 5.21777H15.4557V7.39355H15.5557H15.6557V5.21777H15.5557ZM15.5557 7.39355V7.49355H17.25V7.39355V7.29355H15.5557V7.39355ZM17.25 7.39355V7.49355C17.4752 7.49355 17.6711 7.64855 17.723 7.86777L17.8203 7.84473L17.9176 7.82169C17.8444 7.51231 17.5679 7.29355 17.25 7.29355V7.39355ZM17.8203 7.84473L17.723 7.86778L18.3207 10.3902L18.418 10.3672L18.5153 10.3441L17.9176 7.82167L17.8203 7.84473ZM18.418 10.3672L18.3971 10.465C19.2548 10.6481 19.9 11.4121 19.9 12.3232H20H20.1C20.1 11.3156 19.3868 10.4718 18.4388 10.2694L18.418 10.3672ZM20 12.3232H19.9V15.5967H20H20.1V12.3232H20ZM20 15.5967L19.9 15.5967C19.8999 15.865 19.6823 16.0826 19.4141 16.0826V16.1826V16.2826C19.7929 16.2826 20.0999 15.9754 20.1 15.5967L20 15.5967ZM19.4141 16.1826V16.0826H18.8281V16.1826V16.2826H19.4141V16.1826ZM18.8281 16.1826H18.7281V17.0312H18.8281H18.9281V16.1826H18.8281ZM18.8281 17.0312H18.7281C18.7281 17.2996 18.5106 17.5172 18.2422 17.5172V17.6172V17.7172C18.621 17.7172 18.9281 17.4101 18.9281 17.0312H18.8281ZM18.2422 17.6172V17.5172C17.9738 17.5172 17.7563 17.2996 17.7563 17.0312H17.6562H17.5562C17.5562 17.4101 17.8634 17.7172 18.2422 17.7172V17.6172ZM17.6562 17.0312H17.7563V16.1826H17.6562H17.5562V17.0312H17.6562ZM17.6562 16.1826V16.0826H15.5557V16.1826V16.2826H17.6562V16.1826ZM15.5557 16.1826H15.4557V19.4141H15.5557H15.6557V16.1826H15.5557ZM15.5557 19.4141H15.4557C15.4557 19.6824 15.2381 19.9 14.9697 19.9V20V20.1C15.3485 20.1 15.6557 19.7929 15.6557 19.4141H15.5557ZM14.9697 20V19.9H0.585938V20V20.1H14.9697V20ZM0.585938 20V19.9C0.317572 19.9 0.1 19.6824 0.1 19.4141H0H-0.1C-0.1 19.7929 0.207115 20.1 0.585938 20.1V20ZM0 19.4141H0.1V0.585938H0H-0.1V19.4141H0ZM0 0.585938H0.1C0.1 0.317572 0.317572 0.1 0.585938 0.1V0V-0.1C0.207115 -0.1 -0.1 0.207115 -0.1 0.585938H0ZM0.585938 0V0.1H10.3379V0V-0.1H0.585938V0ZM1.17188 18.8281V18.9281H14.3838V18.8281V18.7281H1.17188V18.8281ZM14.3838 18.8281H14.4838V16.1826H14.3838H14.2838V18.8281H14.3838ZM14.3838 16.1826V16.0826H10.5996V16.1826V16.2826H14.3838V16.1826ZM10.5996 16.1826H10.4996V17.0312H10.5996H10.6996V16.1826H10.5996ZM10.5996 17.0312H10.4996C10.4996 17.2995 10.2819 17.517 10.0136 17.5172L10.0137 17.6172L10.0137 17.7172C10.3923 17.717 10.6996 17.41 10.6996 17.0312H10.5996ZM10.0137 17.6172V17.5172C9.74531 17.5172 9.52773 17.2996 9.52773 17.0312H9.42773H9.32773C9.32773 17.4101 9.63485 17.7172 10.0137 17.7172V17.6172ZM9.42773 17.0312H9.52773V16.1826H9.42773H9.32773V17.0312H9.42773ZM9.42773 16.1826V16.0826H8.8418V16.1826V16.2826H9.42773V16.1826ZM8.8418 16.1826V16.0826C8.57351 16.0826 8.35593 15.865 8.35586 15.5967L8.25586 15.5967L8.15586 15.5967C8.15596 15.9754 8.463 16.2826 8.8418 16.2826V16.1826ZM8.25586 15.5967H8.35586V12.3232H8.25586H8.15586V15.5967H8.25586ZM8.25586 12.3232H8.35586C8.35586 11.4119 9.00092 10.6479 9.85875 10.465L9.83789 10.3672L9.81703 10.2694C8.86893 10.4716 8.15586 11.3155 8.15586 12.3232H8.25586ZM9.83789 10.3672L9.9352 10.3902L10.5329 7.86778L10.4355 7.84473L10.3382 7.82167L9.74058 10.3441L9.83789 10.3672ZM10.4355 7.84473L10.5329 7.86777C10.5848 7.64854 10.7806 7.49355 11.0059 7.49355V7.39355V7.29355C10.6879 7.29355 10.4115 7.51232 10.3382 7.82169L10.4355 7.84473ZM11.0059 7.39355V7.49355H14.3838V7.39355V7.29355H11.0059V7.39355ZM14.3838 7.39355H14.4838V5.80371H14.3838H14.2838V7.39355H14.3838ZM14.3838 5.80371V5.70371H10.3379V5.80371V5.90371H14.3838V5.80371ZM10.3379 5.80371L10.338 5.70371C10.0697 5.70354 9.85195 5.48594 9.85195 5.21777H9.75195H9.65195C9.65195 5.59653 9.9593 5.90346 10.3378 5.90371L10.3379 5.80371ZM9.75195 5.21777H9.85195V1.17188H9.75195H9.65195V5.21777H9.75195ZM9.75195 1.17188V1.07187H1.17188V1.17188V1.27188H9.75195V1.17188ZM1.17188 1.17188H1.07187V18.8281H1.17188H1.27188V1.17188H1.17188ZM6.48438 15L6.48435 15.1C6.75269 15.1001 6.97031 15.3177 6.97031 15.5859H7.07031H7.17031C7.17031 15.2071 6.86311 14.9001 6.4844 14.9L6.48438 15ZM7.07031 15.5859H6.97031C6.97031 15.8542 6.75269 16.0718 6.48435 16.0719L6.48438 16.1719L6.4844 16.2719C6.86311 16.2718 7.17031 15.9647 7.17031 15.5859H7.07031ZM6.48438 16.1719V16.0719H3.27441V16.1719V16.2719H6.48438V16.1719ZM3.27441 16.1719V16.0719C3.00605 16.0719 2.78848 15.8543 2.78848 15.5859H2.68848H2.58848C2.58848 15.9648 2.89559 16.2719 3.27441 16.2719V16.1719ZM2.68848 15.5859H2.78848C2.78848 15.3176 3.00605 15.1 3.27441 15.1V15V14.9C2.89559 14.9 2.58848 15.2071 2.58848 15.5859H2.68848ZM3.27441 15V15.1H6.48438V15V14.9H3.27441V15ZM17.9424 11.4951V11.3951H10.2559V11.4951V11.5951H17.9424V11.4951ZM10.2559 11.4951V11.3951C9.74403 11.3951 9.32773 11.8115 9.32773 12.3232H9.42773H9.52773C9.52773 11.9219 9.85449 11.5951 10.2559 11.5951V11.4951ZM9.42773 12.3232H9.32773V15.0107H9.42773H9.52773V12.3232H9.42773ZM9.42773 15.0107V15.1107H18.8281V15.0107V14.9107H9.42773V15.0107ZM18.8281 15.0107H18.9281V12.3232H18.8281H18.7281V15.0107H18.8281ZM18.8281 12.3232L18.9281 12.3236C18.9301 11.7849 18.4682 11.3631 17.9363 11.3953L17.9424 11.4951L17.9484 11.5949C18.3683 11.5695 18.7297 11.9029 18.7281 12.3229L18.8281 12.3232ZM11.1719 12.6562V12.7563C11.4403 12.7563 11.6578 12.9738 11.6578 13.2422H11.7578H11.8578C11.8578 12.8634 11.5507 12.5562 11.1719 12.5562V12.6562ZM11.7578 13.2422H11.6578C11.6578 13.5106 11.4403 13.7281 11.1719 13.7281V13.8281V13.9281C11.5507 13.9281 11.8578 13.621 11.8578 13.2422H11.7578ZM11.1719 13.8281V13.7281C10.9035 13.7281 10.6859 13.5106 10.6859 13.2422H10.5859H10.4859C10.4859 13.621 10.793 13.9281 11.1719 13.9281V13.8281ZM10.5859 13.2422H10.6859C10.6859 12.9738 10.9035 12.7563 11.1719 12.7563V12.6562V12.5562C10.793 12.5562 10.4859 12.8634 10.4859 13.2422H10.5859ZM17.0703 12.6562V12.7563C17.3387 12.7563 17.5562 12.9738 17.5562 13.2422H17.6562H17.7563C17.7563 12.8634 17.4491 12.5562 17.0703 12.5562V12.6562ZM17.6562 13.2422H17.5562C17.5562 13.5106 17.3387 13.7281 17.0703 13.7281V13.8281V13.9281C17.4491 13.9281 17.7563 13.621 17.7563 13.2422H17.6562ZM17.0703 13.8281V13.7281C16.8019 13.7281 16.5844 13.5106 16.5844 13.2422H16.4844H16.3844C16.3844 13.621 16.6915 13.9281 17.0703 13.9281V13.8281ZM16.4844 13.2422H16.5844C16.5844 12.9738 16.8019 12.7563 17.0703 12.7563V12.6562V12.5562C16.6915 12.5562 16.3844 12.8634 16.3844 13.2422H16.4844ZM6.48438 11.25L6.48434 11.35C6.75268 11.3501 6.97031 11.5677 6.97031 11.8359H7.07031H7.17031C7.17031 11.4571 6.86308 11.1501 6.48441 11.15L6.48438 11.25ZM7.07031 11.8359H6.97031C6.97031 12.1042 6.75268 12.3218 6.48434 12.3219L6.48438 12.4219L6.48441 12.5219C6.86308 12.5218 7.17031 12.2147 7.17031 11.8359H7.07031ZM6.48438 12.4219V12.3219H3.27441V12.4219V12.5219H6.48438V12.4219ZM3.27441 12.4219L3.27441 12.3219C3.00605 12.3219 2.78848 12.1043 2.78848 11.8359H2.68848H2.58848C2.58848 12.2148 2.89559 12.5219 3.27441 12.5219L3.27441 12.4219ZM2.68848 11.8359H2.78848C2.78848 11.5676 3.00605 11.35 3.27441 11.35L3.27441 11.25L3.27441 11.15C2.89559 11.15 2.58848 11.4571 2.58848 11.8359H2.68848ZM3.27441 11.25V11.35H6.48438V11.25V11.15H3.27441V11.25ZM11.0527 10.3232V10.4232H17.2031V10.3232V10.2232H11.0527V10.3232ZM17.2031 10.3232L17.3004 10.3002L16.8844 8.5424L16.7871 8.56543L16.6898 8.58846L17.1058 10.3463L17.2031 10.3232ZM16.7871 8.56543V8.46543H11.4688V8.56543V8.66543H16.7871V8.56543ZM11.4688 8.56543L11.3714 8.5424L10.9554 10.3002L11.0527 10.3232L11.15 10.3463L11.5661 8.58846L11.4688 8.56543ZM5.17285 2.34375L5.17283 2.44375C6.15138 2.44397 6.94763 3.24018 6.94785 4.21877L7.04785 4.21875L7.14785 4.21873C7.14761 3.12971 6.26185 2.244 5.17287 2.24375L5.17285 2.34375ZM7.04785 4.21875H6.94785C6.94785 4.62076 6.81347 4.99214 6.58733 5.29013L6.66699 5.35059L6.74665 5.41104C6.99818 5.07959 7.14785 4.66606 7.14785 4.21875H7.04785ZM6.66699 5.35059L6.61401 5.43539C7.38648 5.91802 7.90084 6.77569 7.90098 7.75099L8.00098 7.75098L8.10098 7.75096C8.10083 6.70366 7.54831 5.78329 6.71998 5.26578L6.66699 5.35059ZM8.00098 7.75098H7.90098V7.96875H8.00098H8.10098V7.75098H8.00098ZM8.00098 7.96875H7.90098C7.90098 8.23712 7.6834 8.45469 7.41504 8.45469V8.55469V8.65469C7.79386 8.65469 8.10098 8.34757 8.10098 7.96875H8.00098ZM7.41504 8.55469V8.45469H2.92969V8.55469V8.65469H7.41504V8.55469ZM2.92969 8.55469L2.92969 8.45469C2.66132 8.45469 2.44375 8.23712 2.44375 7.96875H2.34375H2.24375C2.24375 8.34757 2.55087 8.65469 2.92969 8.65469L2.92969 8.55469ZM2.34375 7.96875H2.44375V7.75098H2.34375H2.24375V7.96875H2.34375ZM2.34375 7.75098L2.44375 7.75099C2.44388 6.7757 2.95912 5.91804 3.73169 5.4354L3.67871 5.35059L3.62573 5.26578C2.79741 5.78324 2.24389 6.70353 2.24375 7.75096L2.34375 7.75098ZM3.67871 5.35059L3.75835 5.29011C3.53195 4.99194 3.39688 4.6208 3.39688 4.21875H3.29688H3.19687C3.19687 4.66639 3.34742 5.07965 3.59907 5.41106L3.67871 5.35059ZM3.29688 4.21875L3.39687 4.21877C3.3971 3.24009 4.19407 2.44375 5.17285 2.44375V2.34375V2.24375C4.08371 2.24375 3.19712 3.12953 3.19688 4.21873L3.29688 4.21875ZM5.17285 6.09473V5.99473C4.3382 5.99473 3.63729 6.57934 3.45914 7.36058L3.55664 7.38281L3.65414 7.40505C3.812 6.71276 4.4336 6.19473 5.17285 6.19473V6.09473ZM3.55664 7.38281V7.48281H6.78809V7.38281V7.28281H3.55664V7.38281ZM6.78809 7.38281L6.88558 7.36058C6.70747 6.57952 6.00739 5.99492 5.17287 5.99473L5.17285 6.09473L5.17283 6.19473C5.91188 6.1949 6.53274 6.71284 6.69059 7.40505L6.78809 7.38281ZM5.17285 3.51562V3.41562C4.72996 3.41562 4.36902 3.77561 4.36875 4.21869L4.46875 4.21875L4.56875 4.21881C4.56895 3.88634 4.84017 3.61563 5.17285 3.61563V3.51562ZM4.46875 4.21875H4.36875C4.36875 4.66187 4.72969 5.02285 5.17285 5.02285V4.92285V4.82285C4.84015 4.82285 4.56875 4.55142 4.56875 4.21875H4.46875ZM5.17285 4.92285L5.17291 5.02285C5.61595 5.02259 5.97598 4.66164 5.97598 4.21875H5.87598H5.77598C5.77598 4.55143 5.50522 4.82265 5.17279 4.82285L5.17285 4.92285ZM5.87598 4.21875L5.97598 4.21869C5.97571 3.77588 5.61568 3.41589 5.17291 3.41563L5.17285 3.51562L5.17279 3.61562C5.5052 3.61582 5.77578 3.88637 5.77598 4.21881L5.87598 4.21875ZM10.9238 4.63184V4.73184H13.5557V4.63184V4.53184H10.9238V4.63184ZM13.5557 4.63184L13.6264 4.56111L10.9945 1.93025L10.9238 2.00098L10.8531 2.0717L13.485 4.70256L13.5557 4.63184ZM10.9238 2.00098H10.8238V4.63184H10.9238H11.0238V2.00098H10.9238Z" fill="#556485"/>
</g>
<defs>
<clipPath id="clip0_2087_8313">
<rect width="20" height="20" fill="white"/>
</clipPath>
</defs>
</svg>
