<svg width="20" height="20" viewBox="0 0 20 20" fill="none" xmlns="http://www.w3.org/2000/svg">
    <g clip-path="url(#ev01qpy93a)" fill="#556485">
        <path d="M10.338 0c.154 0 .306.063.415.172l4.63 4.632c.11.108.173.26.173.414v2.176h1.694c.272 0 .508.186.57.45l.598 2.523A2.003 2.003 0 0 1 20 12.323v3.274a.586.586 0 0 1-.586.586h-.586v.848a.586.586 0 1 1-1.172 0v-.848h-2.1v3.231a.586.586 0 0 1-.586.586H.586A.586.586 0 0 1 0 19.414V.586C0 .262.262 0 .586 0h9.752zM1.172 18.828h13.212v-2.645H10.6v.848a.586.586 0 0 1-1.172 0v-.848h-.586a.586.586 0 0 1-.586-.586v-3.274c0-.96.679-1.763 1.582-1.956l.598-2.522a.586.586 0 0 1 .57-.451h3.378v-1.59h-4.046a.586.586 0 0 1-.586-.586V1.172h-8.58v17.656zM6.484 15a.586.586 0 0 1 0 1.172h-3.21a.586.586 0 0 1 0-1.172h3.21zm11.458-3.505h-7.686a.83.83 0 0 0-.828.828v2.688h9.4v-2.688a.834.834 0 0 0-.886-.828zm-6.77 1.161a.586.586 0 1 1 0 1.172.586.586 0 0 1 0-1.172zm5.898 0a.586.586 0 1 1 0 1.172.586.586 0 0 1 0-1.172zM6.484 11.25a.586.586 0 0 1 0 1.172h-3.21a.586.586 0 0 1 0-1.172h3.21zm4.569-.927h6.15l-.416-1.758H11.47l-.416 1.758zm-5.88-7.98c1.034.001 1.875.842 1.875 1.876 0 .424-.142.817-.381 1.132.8.5 1.334 1.389 1.334 2.4v.218a.586.586 0 0 1-.586.586H2.93a.586.586 0 0 1-.586-.586V7.75c0-1.011.534-1.9 1.335-2.4a1.866 1.866 0 0 1-.382-1.132c0-1.034.842-1.875 1.876-1.875zm0 3.752a1.66 1.66 0 0 0-1.616 1.288h3.231a1.66 1.66 0 0 0-1.615-1.288zm0-2.58a.705.705 0 0 0 0 1.408.705.705 0 0 0 0-1.407zm5.75 1.117h2.633L10.924 2v2.63z"/>
        <path d="M10.338 0v-.1.1zm.415.172-.07.07.07-.07zm4.63 4.632-.07.07.07-.07zm.173.414h.1-.1zm0 2.176h-.1v.1h.1v-.1zm2.264.45-.097.024.097-.023zm.598 2.523-.097.023.014.062.062.013.021-.098zM20 15.597h.1-.1zm-1.172.586v-.1h-.1v.1h.1zm-1.172 0h.1v-.1h-.1v.1zm-2.1 0v-.1h-.1v.1h.1zM1.172 18.828h-.1v.1h.1v-.1zm13.212 0v.1h.1v-.1h-.1zm0-2.645h.1v-.1h-.1v.1zm-3.784 0v-.1h-.1v.1h.1zm-.586 1.434v.1-.1zm-.586-1.434h.1v-.1h-.1v.1zm-1.172-.586h-.1.1zm1.582-5.23.02.098.063-.013.014-.062-.097-.023zm.598-2.522.097.023-.098-.023zm3.948-.451v.1h.1v-.1h-.1zm0-1.59h.1v-.1h-.1v.1zm-4.046 0v.1-.1zm-.586-4.632h.1v-.1h-.1v.1zm-8.58 0v-.1h-.1v.1h.1zM6.484 15v-.1.1zm0 1.172v.1-.1zm11.458-4.677v.1h.006l-.006-.1zm-8.514 3.516h-.1v.1h.1v-.1zm9.4 0v.1h.1v-.1h-.1zm0-2.688h-.1.1zM6.484 11.25v-.1.1zm0 1.172v.1-.1zm-3.21 0v.1-.1zm0-1.172v-.1.1zm7.779-.927-.098-.023-.029.123h.127v-.1zm6.15 0v.1h.127l-.03-.123-.097.023zm-.416-1.758.097-.023-.018-.077h-.079v.1zm-5.318 0v-.1h-.08l-.018.077.098.023zM5.173 2.344v-.1.1zm1.875 1.875h.1-.1zM6.667 5.35l-.08-.06-.066.086.093.058.053-.084zm1.334 2.4h.1-.1zm-5.071.804v.1-.1zm-.586-.804h-.1.1zm1.335-2.4.053.084.093-.058-.067-.087-.08.06zm-.382-1.132h-.1.1zm1.876 1.876v-.1.1zM3.557 7.383l-.098-.022-.028.122h.126v-.1zm3.231 0v.1h.125l-.027-.122-.098.022zM5.173 3.516v-.1.1zm-.704.703h-.1.1zm.704.704v.1-.1zm.703-.704h.1-.1zm5.048.413h-.1v.1h.1v-.1zm2.632 0v.1h.241l-.17-.17-.071.07zM10.924 2l.07-.07-.17-.171V2h.1zM10.338 0v.1c.127 0 .254.052.344.143l.07-.071.072-.07a.693.693 0 0 0-.486-.202V0zm.415.172-.07.07 4.63 4.632.07-.07.072-.071L10.823.101l-.071.07zm4.63 4.632-.07.07c.09.09.143.217.143.344h.2a.692.692 0 0 0-.202-.485l-.07.07zm.173.414h-.1v2.176h.2V5.218h-.1zm0 2.176v.1h1.694v-.2h-1.694v.1zm1.694 0v.1c.225 0 .421.155.473.374l.097-.023.098-.023a.686.686 0 0 0-.668-.528v.1zm.57.45-.097.024.598 2.522.097-.023.097-.023-.597-2.522-.098.023zm.598 2.523-.02.098a1.904 1.904 0 0 1 1.502 1.858h.2a2.104 2.104 0 0 0-1.661-2.054l-.021.098zM20 12.323h-.1v3.274h.2v-3.274H20zm0 3.274h-.1a.486.486 0 0 1-.486.486v.2a.686.686 0 0 0 .686-.686H20zm-.586.586v-.1h-.586v.2h.586v-.1zm-.586 0h-.1v.848h.2v-.848h-.1zm0 .848h-.1a.486.486 0 0 1-.486.486v.2a.686.686 0 0 0 .686-.686h-.1zm-.586.586v-.1a.486.486 0 0 1-.486-.486h-.2c0 .38.307.686.686.686v-.1zm-.586-.586h.1v-.848h-.2v.848h.1zm0-.848v-.1h-2.1v.2h2.1v-.1zm-2.1 0h-.1v3.231h.2v-3.231h-.1zm0 3.231h-.1a.486.486 0 0 1-.486.486v.2a.686.686 0 0 0 .686-.686h-.1zM14.97 20v-.1H.586v.2H14.97V20zM.586 20v-.1a.486.486 0 0 1-.486-.486h-.2c0 .379.307.686.686.686V20zM0 19.414h.1V.586h-.2v18.828H0zM0 .586h.1C.1.318.318.1.586.1v-.2A.686.686 0 0 0-.1.586H0zM.586 0v.1h9.752v-.2H.586V0zm.586 18.828v.1h13.212v-.2H1.172v.1zm13.212 0h.1v-2.645h-.2v2.645h.1zm0-2.645v-.1H10.6v.2h3.784v-.1zm-3.784 0h-.1v.848h.2v-.848h-.1zm0 .848h-.1a.486.486 0 0 1-.486.486v.2a.686.686 0 0 0 .686-.686h-.1zm-.586.586v-.1a.486.486 0 0 1-.486-.486h-.2c0 .38.307.686.686.686v-.1zm-.586-.586h.1v-.848h-.2v.848h.1zm0-.848v-.1h-.586v.2h.586v-.1zm-.586 0v-.1a.486.486 0 0 1-.486-.486h-.2c0 .378.307.686.686.686v-.1zm-.586-.586h.1v-3.274h-.2v3.274h.1zm0-3.274h.1c0-.911.645-1.675 1.503-1.858l-.021-.098-.021-.098a2.103 2.103 0 0 0-1.661 2.054h.1zm1.582-1.956.097.023.598-2.522-.098-.023-.097-.023-.597 2.522.097.023zm.598-2.522.097.023a.486.486 0 0 1 .473-.374v-.2a.686.686 0 0 0-.668.528l.098.023zm.57-.451v.1h3.378v-.2h-3.378v.1zm3.378 0h.1v-1.59h-.2v1.59h.1zm0-1.59v-.1h-4.046v.2h4.046v-.1zm-4.046 0v-.1a.486.486 0 0 1-.486-.486h-.2c0 .379.307.685.686.686v-.1zm-.586-.586h.1V1.172h-.2v4.046h.1zm0-4.046v-.1h-8.58v.2h8.58v-.1zm-8.58 0h-.1v17.656h.2V1.172h-.1zM6.484 15v.1c.269 0 .486.218.486.486h.2a.686.686 0 0 0-.686-.686v.1zm.586.586h-.1a.486.486 0 0 1-.486.486v.2a.686.686 0 0 0 .686-.686h-.1zm-.586.586v-.1h-3.21v.2h3.21v-.1zm-3.21 0v-.1a.486.486 0 0 1-.486-.486h-.2c0 .379.308.686.686.686v-.1zm-.586-.586h.1c0-.268.218-.486.486-.486v-.2a.686.686 0 0 0-.686.686h.1zM3.274 15v.1h3.21v-.2h-3.21v.1zm14.668-3.505v-.1h-7.686v.2h7.686v-.1zm-7.686 0v-.1a.93.93 0 0 0-.928.928h.2a.73.73 0 0 1 .728-.728v-.1zm-.828.828h-.1v2.688h.2v-2.688h-.1zm0 2.688v.1h9.4v-.2h-9.4v.1zm9.4 0h.1v-2.688h-.2v2.688h.1zm0-2.688h.1a.934.934 0 0 0-.992-.928l.006.1.006.1a.734.734 0 0 1 .78.728h.1zm-7.656.333v.1c.268 0 .486.218.486.486h.2a.686.686 0 0 0-.686-.686v.1zm.586.586h-.1a.486.486 0 0 1-.486.486v.2a.686.686 0 0 0 .686-.686h-.1zm-.586.586v-.1a.486.486 0 0 1-.486-.486h-.2c0 .379.307.686.686.686v-.1zm-.586-.586h.1c0-.268.217-.486.486-.486v-.2a.686.686 0 0 0-.686.686h.1zm6.484-.586v.1c.269 0 .486.218.486.486h.2a.686.686 0 0 0-.686-.686v.1zm.586.586h-.1a.486.486 0 0 1-.486.486v.2a.686.686 0 0 0 .686-.686h-.1zm-.586.586v-.1a.486.486 0 0 1-.486-.486h-.2c0 .379.308.686.686.686v-.1zm-.586-.586h.1c0-.268.218-.486.486-.486v-.2a.686.686 0 0 0-.686.686h.1zm-10-1.992v.1c.269 0 .486.218.486.486h.2a.686.686 0 0 0-.686-.686v.1zm.586.586h-.1a.486.486 0 0 1-.486.486v.2a.686.686 0 0 0 .686-.686h-.1zm-.586.586v-.1h-3.21v.2h3.21v-.1zm-3.21 0v-.1a.486.486 0 0 1-.486-.486h-.2c0 .379.308.686.686.686v-.1zm-.586-.586h.1c0-.268.218-.486.486-.486v-.2a.686.686 0 0 0-.686.686h.1zm.586-.586v.1h3.21v-.2h-3.21v.1zm7.779-.927v.1h6.15v-.2h-6.15v.1zm6.15 0 .097-.023-.416-1.758-.097.023-.097.023.416 1.758.097-.023zm-.416-1.758v-.1H11.47v.2h5.318v-.1zm-5.318 0-.098-.023-.416 1.758.098.023.097.023.416-1.758-.097-.023zM5.173 2.344v.1c.978 0 1.775.796 1.775 1.775h.2a1.978 1.978 0 0 0-1.975-1.975v.1zm1.875 1.875h-.1c0 .402-.135.773-.36 1.071l.079.06.08.061c.251-.331.4-.745.4-1.192h-.1zM6.667 5.35l-.053.084a2.73 2.73 0 0 1 1.287 2.316h.2A2.93 2.93 0 0 0 6.72 5.266l-.053.085zm1.334 2.4h-.1v.218h.2V7.75h-.1zm0 .218h-.1a.486.486 0 0 1-.486.486v.2a.686.686 0 0 0 .686-.686h-.1zm-.586.586v-.1H2.93v.2h4.485v-.1zm-4.485 0v-.1a.486.486 0 0 1-.486-.486h-.2c0 .379.307.686.686.686v-.1zm-.586-.586h.1V7.75h-.2v.218h.1zm0-.218h.1a2.73 2.73 0 0 1 1.288-2.316l-.053-.084-.053-.085A2.93 2.93 0 0 0 2.244 7.75h.1zm1.335-2.4.08-.06a1.766 1.766 0 0 1-.362-1.072h-.2c0 .447.15.86.402 1.192l.08-.06zm-.382-1.132h.1c0-.979.797-1.775 1.776-1.775v-.2c-1.09 0-1.976.886-1.976 1.975h.1zm1.876 1.876v-.1A1.76 1.76 0 0 0 3.459 7.36l.098.022.097.022a1.56 1.56 0 0 1 1.519-1.21v-.1zM3.557 7.383v.1h3.231v-.2H3.557v.1zm3.231 0 .098-.022a1.76 1.76 0 0 0-1.713-1.366v.2c.739 0 1.36.518 1.518 1.21l.097-.022zM5.173 3.516v-.1a.805.805 0 0 0-.804.803h.2c0-.333.271-.603.604-.603v-.1zm-.704.703h-.1c0 .443.36.804.804.804v-.2a.605.605 0 0 1-.604-.604h-.1zm.704.704v.1a.805.805 0 0 0 .803-.804h-.2c0 .332-.27.604-.603.604v.1zm.703-.704h.1a.804.804 0 0 0-.803-.803v.2c.332 0 .603.27.603.603h.1zm5.048.413v.1h2.632v-.2h-2.632v.1zm2.632 0 .07-.07-2.631-2.632-.071.071-.07.07 2.631 2.632.07-.071zM10.924 2h-.1v2.63h.2v-2.63h-.1z"/>
    </g>
    <defs>
        <clipPath id="ev01qpy93a">
            <path fill="#fff" d="M0 0h20v20H0z"/>
        </clipPath>
    </defs>
</svg>
