<svg width="20" height="20" viewBox="0 0 20 20" fill="none" xmlns="http://www.w3.org/2000/svg">
<g clip-path="url(#clip0_2087_8347)">
<path d="M20 4V16.7324H0V4H20ZM1.17188 5.17188V15.5605H18.8281V5.17188H1.17188ZM4.49121 6.23145C5.7145 6.23145 6.70981 7.22686 6.70996 8.4502V12.2832C6.70972 13.5064 5.71446 14.502 4.49121 14.502C3.26798 14.5019 2.2727 13.5064 2.27246 12.2832H3.44434C3.44458 12.8602 3.91415 13.3301 4.49121 13.3301C5.06829 13.3301 5.53784 12.8602 5.53809 12.2832V10.957C5.22605 11.1247 4.86957 11.2207 4.49121 11.2207C3.26785 11.2207 2.27249 10.2253 2.27246 9.00195V8.4502C2.27256 7.22689 3.26789 6.23147 4.49121 6.23145ZM10 6.23145C11.2234 6.23145 12.2187 7.22677 12.2188 8.4502V12.2822C12.2187 13.5056 11.2234 14.501 10 14.501C8.77661 14.501 7.78125 13.5056 7.78125 12.2822H8.95312C8.95312 12.8594 9.42278 13.3291 10 13.3291C10.5772 13.3291 11.0469 12.8595 11.0469 12.2822V10.957C10.7348 11.1247 10.3784 11.2207 10 11.2207C8.77669 11.2207 7.78139 10.2252 7.78125 9.00195V8.4502C7.78125 7.2268 8.77661 6.23145 10 6.23145ZM15.5088 6.23145C16.7322 6.23145 17.7275 7.22686 17.7275 8.4502V12.2832C17.7273 13.5064 16.732 14.501 15.5088 14.501C14.2856 14.501 13.2903 13.5064 13.29 12.2832H14.4619C14.4622 12.8602 14.9317 13.3291 15.5088 13.3291C16.0859 13.3291 16.5554 12.8602 16.5557 12.2832V10.957C16.2436 11.1247 15.8871 11.2207 15.5088 11.2207C14.2854 11.2207 13.2901 10.2253 13.29 9.00195V8.4502C13.2901 7.22689 14.2855 6.23147 15.5088 6.23145ZM4.49121 7.40332C3.91405 7.40334 3.44441 7.87304 3.44434 8.4502V9.00195C3.44439 9.57912 3.91403 10.0488 4.49121 10.0488C5.0684 10.0488 5.53799 9.57913 5.53809 9.00195V8.4502C5.53801 7.87303 5.06839 7.40332 4.49121 7.40332ZM10 7.40332C9.42278 7.40333 8.95313 7.87297 8.95312 8.4502V9.00195C8.95328 9.57904 9.42288 10.0488 10 10.0488C10.5771 10.0488 11.0467 9.57905 11.0469 9.00195V8.4502C11.0469 7.87297 10.5772 7.40332 10 7.40332ZM15.5088 7.40332C14.9316 7.40334 14.462 7.87304 14.4619 8.4502V9.00195C14.462 9.57912 14.9316 10.0488 15.5088 10.0488C16.086 10.0488 16.5556 9.57913 16.5557 9.00195V8.4502C16.5556 7.87303 16.086 7.40332 15.5088 7.40332Z" fill="#556485"/>
<path d="M20 4H20.1V3.9H20V4ZM20 16.7324V16.8324H20.1V16.7324H20ZM0 16.7324H-0.1V16.8324H0V16.7324ZM0 4V3.9H-0.1V4H0ZM1.17188 5.17188V5.07187H1.07187V5.17188H1.17188ZM1.17188 15.5605H1.07187V15.6605H1.17188V15.5605ZM18.8281 15.5605V15.6605H18.9281V15.5605H18.8281ZM18.8281 5.17188H18.9281V5.07187H18.8281V5.17188ZM4.49121 6.23145L4.49121 6.13145L4.49121 6.13145L4.49121 6.23145ZM6.70996 8.4502L6.80996 8.4502L6.80996 8.45018L6.70996 8.4502ZM6.70996 12.2832L6.80996 12.2832V12.2832H6.70996ZM4.49121 14.502L4.49121 14.602H4.49121V14.502ZM2.27246 12.2832V12.1832H2.17244L2.17246 12.2832L2.27246 12.2832ZM3.44434 12.2832L3.54434 12.2832L3.54429 12.1832H3.44434V12.2832ZM4.49121 13.3301L4.49121 13.4301H4.49121V13.3301ZM5.53809 12.2832L5.63809 12.2832V12.2832H5.53809ZM5.53809 10.957H5.63809V10.7898L5.49075 10.8689L5.53809 10.957ZM4.49121 11.2207L4.49121 11.3207H4.49121V11.2207ZM2.27246 9.00195L2.17246 9.00195L2.17246 9.00196L2.27246 9.00195ZM2.27246 8.4502L2.17246 8.45019V8.4502H2.27246ZM10 6.23145L10 6.13145L10 6.13145L10 6.23145ZM12.2188 8.4502L12.3188 8.4502L12.3188 8.45019L12.2188 8.4502ZM12.2188 12.2822L12.3188 12.2822V12.2822H12.2188ZM10 14.501L10 14.601L10 14.601L10 14.501ZM7.78125 12.2822V12.1822H7.68125L7.68125 12.2822L7.78125 12.2822ZM8.95312 12.2822L9.05313 12.2822L9.05313 12.1822H8.95312V12.2822ZM10 13.3291L10 13.4291L10 13.4291L10 13.3291ZM11.0469 12.2822L11.1469 12.2822V12.2822H11.0469ZM11.0469 10.957H11.1469V10.7898L10.9995 10.8689L11.0469 10.957ZM10 11.2207L10 11.3207L10 11.3207L10 11.2207ZM7.78125 9.00195L7.68125 9.00195L7.68125 9.00196L7.78125 9.00195ZM7.78125 8.4502L7.68125 8.4502V8.4502H7.78125ZM15.5088 6.23145L15.5088 6.13145L15.5088 6.13145L15.5088 6.23145ZM17.7275 8.4502L17.8275 8.4502L17.8275 8.45019L17.7275 8.4502ZM17.7275 12.2832L17.8275 12.2832V12.2832H17.7275ZM15.5088 14.501L15.5088 14.601L15.5088 14.601L15.5088 14.501ZM13.29 12.2832V12.1832H13.19L13.19 12.2832L13.29 12.2832ZM14.4619 12.2832L14.5619 12.2832L14.5619 12.1832H14.4619V12.2832ZM15.5088 13.3291L15.5088 13.4291L15.5088 13.4291L15.5088 13.3291ZM16.5557 12.2832L16.6557 12.2832V12.2832H16.5557ZM16.5557 10.957H16.6557V10.7898L16.5083 10.8689L16.5557 10.957ZM15.5088 11.2207L15.5088 11.3207L15.5088 11.3207L15.5088 11.2207ZM13.29 9.00195L13.19 9.00195L13.19 9.00196L13.29 9.00195ZM13.29 8.4502L13.19 8.45019V8.4502H13.29ZM4.49121 7.40332L4.49121 7.30332L4.49121 7.30332L4.49121 7.40332ZM3.44434 8.4502L3.34434 8.45018V8.4502H3.44434ZM3.44434 9.00195L3.34434 9.00195L3.34434 9.00196L3.44434 9.00195ZM4.49121 10.0488L4.49121 10.1488H4.49121V10.0488ZM5.53809 9.00195L5.63809 9.00197V9.00195H5.53809ZM5.53809 8.4502L5.63809 8.4502L5.63809 8.45018L5.53809 8.4502ZM10 7.40332L10 7.30332L10 7.30332L10 7.40332ZM8.95312 8.4502L8.85312 8.4502V8.4502H8.95312ZM8.95312 9.00195L8.85312 9.00195L8.85313 9.00198L8.95312 9.00195ZM10 10.0488L10 10.1488L10 10.1488L10 10.0488ZM11.0469 9.00195L11.1469 9.00198V9.00195H11.0469ZM11.0469 8.4502L10.9469 8.4502V8.4502H11.0469ZM15.5088 7.40332L15.5088 7.30332L15.5088 7.30332L15.5088 7.40332ZM14.4619 8.4502L14.3619 8.45018V8.4502H14.4619ZM14.4619 9.00195L14.3619 9.00195L14.3619 9.00196L14.4619 9.00195ZM15.5088 10.0488L15.5088 10.1488L15.5088 10.1488L15.5088 10.0488ZM16.5557 9.00195L16.6557 9.00196V9.00195H16.5557ZM16.5557 8.4502L16.6557 8.4502L16.6557 8.45018L16.5557 8.4502ZM20 4H19.9V16.7324H20H20.1V4H20ZM20 16.7324V16.6324H0V16.7324V16.8324H20V16.7324ZM0 16.7324H0.1V4H0H-0.1V16.7324H0ZM0 4V4.1H20V4V3.9H0V4ZM1.17188 5.17188H1.07187V15.5605H1.17188H1.27188V5.17188H1.17188ZM1.17188 15.5605V15.6605H18.8281V15.5605V15.4605H1.17188V15.5605ZM18.8281 15.5605H18.9281V5.17188H18.8281H18.7281V15.5605H18.8281ZM18.8281 5.17188V5.07187H1.17188V5.17188V5.27188H18.8281V5.17188ZM4.49121 6.23145V6.33145C5.65926 6.33145 6.60981 7.28208 6.60996 8.45021L6.70996 8.4502L6.80996 8.45018C6.8098 7.17163 5.76974 6.13145 4.49121 6.13145V6.23145ZM6.70996 8.4502H6.60996V12.2832H6.70996H6.80996V8.4502H6.70996ZM6.70996 12.2832L6.60996 12.2832C6.60973 13.4512 5.65921 14.402 4.49121 14.402V14.502V14.602C5.76971 14.602 6.80971 13.5616 6.80996 12.2832L6.70996 12.2832ZM4.49121 14.502L4.49121 14.402C3.32323 14.4019 2.37269 13.4512 2.37246 12.2832L2.27246 12.2832L2.17246 12.2832C2.17272 13.5616 3.21273 14.6019 4.49121 14.602L4.49121 14.502ZM2.27246 12.2832V12.3832H3.44434V12.2832V12.1832H2.27246V12.2832ZM3.44434 12.2832L3.34434 12.2832C3.3446 12.9154 3.85888 13.4301 4.49121 13.4301L4.49121 13.3301L4.49121 13.2301C3.96942 13.2301 3.54456 12.805 3.54434 12.2832L3.44434 12.2832ZM4.49121 13.3301V13.4301C5.12356 13.4301 5.63782 12.9154 5.63809 12.2832L5.53809 12.2832L5.43809 12.2832C5.43787 12.805 5.01302 13.2301 4.49121 13.2301V13.3301ZM5.53809 12.2832H5.63809V10.957H5.53809H5.43809V12.2832H5.53809ZM5.53809 10.957L5.49075 10.8689C5.19274 11.0291 4.85246 11.1207 4.49121 11.1207V11.2207V11.3207C4.88668 11.3207 5.25937 11.2204 5.58543 11.0451L5.53809 10.957ZM4.49121 11.2207L4.49121 11.1207C3.32308 11.1207 2.37249 10.1701 2.37246 9.00195L2.27246 9.00195L2.17246 9.00196C2.17249 10.2805 3.21262 11.3207 4.49121 11.3207L4.49121 11.2207ZM2.27246 9.00195H2.37246V8.4502H2.27246H2.17246V9.00195H2.27246ZM2.27246 8.4502L2.37246 8.4502C2.37255 7.28211 3.32312 6.33147 4.49121 6.33145L4.49121 6.23145L4.49121 6.13145C3.21265 6.13147 2.17256 7.17167 2.17246 8.45019L2.27246 8.4502ZM10 6.23145L10 6.33145C11.1682 6.33145 12.1187 7.282 12.1187 8.4502L12.2188 8.4502L12.3188 8.45019C12.3187 7.17154 11.2786 6.13145 10 6.13145L10 6.23145ZM12.2188 8.4502H12.1187V12.2822H12.2188H12.3188V8.4502H12.2188ZM12.2188 12.2822L12.1187 12.2822C12.1187 13.4504 11.1682 14.401 10 14.401L10 14.501L10 14.601C11.2786 14.601 12.3187 13.5609 12.3188 12.2822L12.2188 12.2822ZM10 14.501L10 14.401C8.83184 14.401 7.88125 13.4504 7.88125 12.2822L7.78125 12.2822L7.68125 12.2822C7.68125 13.5608 8.72138 14.601 10 14.601L10 14.501ZM7.78125 12.2822V12.3822H8.95312V12.2822V12.1822H7.78125V12.2822ZM8.95312 12.2822L8.85312 12.2822C8.85312 12.9147 9.36755 13.4291 10 13.4291L10 13.3291L10 13.2291C9.47801 13.2291 9.05312 12.8042 9.05313 12.2822L8.95312 12.2822ZM10 13.3291L10 13.4291C10.6325 13.4291 11.1469 12.9147 11.1469 12.2822L11.0469 12.2822L10.9469 12.2822C10.9469 12.8042 10.522 13.2291 10 13.2291L10 13.3291ZM11.0469 12.2822H11.1469V10.957H11.0469H10.9469V12.2822H11.0469ZM11.0469 10.957L10.9995 10.8689C10.7015 11.0291 10.3613 11.1207 10 11.1207L10 11.2207L10 11.3207C10.3955 11.3207 10.7682 11.2204 11.0942 11.0451L11.0469 10.957ZM10 11.2207L10 11.1207C8.83193 11.1207 7.88138 10.17 7.88125 9.00194L7.78125 9.00195L7.68125 9.00196C7.68139 10.2805 8.72145 11.3207 10 11.3207L10 11.2207ZM7.78125 9.00195H7.88125V8.4502H7.78125H7.68125V9.00195H7.78125ZM7.78125 8.4502L7.88125 8.4502C7.88125 7.28203 8.83184 6.33145 10 6.33145L10 6.23145L10 6.13145C8.72138 6.13145 7.68125 7.17157 7.68125 8.4502L7.78125 8.4502ZM15.5088 6.23145L15.5088 6.33145C16.6769 6.33145 17.6275 7.28208 17.6275 8.4502L17.7275 8.4502L17.8275 8.45019C17.8275 7.17163 16.7874 6.13145 15.5088 6.13145L15.5088 6.23145ZM17.7275 8.4502H17.6275V12.2832H17.7275H17.8275V8.4502H17.7275ZM17.7275 12.2832L17.6275 12.2832C17.6273 13.4511 16.6768 14.401 15.5088 14.401L15.5088 14.501L15.5088 14.601C16.7872 14.601 17.8273 13.5617 17.8275 12.2832L17.7275 12.2832ZM15.5088 14.501L15.5088 14.401C14.3407 14.401 13.3903 13.4511 13.39 12.2832L13.29 12.2832L13.19 12.2832C13.1903 13.5617 14.2304 14.601 15.5088 14.601L15.5088 14.501ZM13.29 12.2832V12.3832H14.4619V12.2832V12.1832H13.29V12.2832ZM14.4619 12.2832L14.3619 12.2832C14.3622 12.9155 14.8766 13.4291 15.5088 13.4291L15.5088 13.3291L15.5088 13.2291C14.9869 13.2291 14.5621 12.8049 14.5619 12.2832L14.4619 12.2832ZM15.5088 13.3291L15.5088 13.4291C16.141 13.4291 16.6554 12.9155 16.6557 12.2832L16.5557 12.2832L16.4557 12.2832C16.4554 12.8049 16.0307 13.2291 15.5088 13.2291L15.5088 13.3291ZM16.5557 12.2832H16.6557V10.957H16.5557H16.4557V12.2832H16.5557ZM16.5557 10.957L16.5083 10.8689C16.2103 11.0291 15.87 11.1207 15.5088 11.1207L15.5088 11.2207L15.5088 11.3207C15.9043 11.3207 16.2769 11.2204 16.603 11.0451L16.5557 10.957ZM15.5088 11.2207L15.5088 11.1207C14.3407 11.1207 13.3901 10.1701 13.39 9.00195L13.29 9.00195L13.19 9.00196C13.1901 10.2805 14.2302 11.3207 15.5088 11.3207L15.5088 11.2207ZM13.29 9.00195H13.39V8.4502H13.29H13.19V9.00195H13.29ZM13.29 8.4502L13.39 8.4502C13.3901 7.28211 14.3407 6.33147 15.5088 6.33145L15.5088 6.23145L15.5088 6.13145C14.2302 6.13147 13.1901 7.17167 13.19 8.45019L13.29 8.4502ZM4.49121 7.40332L4.49121 7.30332C3.85881 7.30334 3.34442 7.81782 3.34434 8.45018L3.44434 8.4502L3.54434 8.45021C3.5444 7.92827 3.96929 7.50334 4.49121 7.50332L4.49121 7.40332ZM3.44434 8.4502H3.34434V9.00195H3.44434H3.54434V8.4502H3.44434ZM3.44434 9.00195L3.34434 9.00196C3.34439 9.63435 3.8588 10.1488 4.49121 10.1488L4.49121 10.0488L4.49121 9.94883C3.96927 9.94881 3.54438 9.5239 3.54434 9.00194L3.44434 9.00195ZM4.49121 10.0488V10.1488C5.12365 10.1488 5.63798 9.63435 5.63809 9.00197L5.53809 9.00195L5.43809 9.00194C5.438 9.52392 5.01316 9.94883 4.49121 9.94883V10.0488ZM5.53809 9.00195H5.63809V8.4502H5.53809H5.43809V9.00195H5.53809ZM5.53809 8.4502L5.63809 8.45018C5.638 7.81781 5.12363 7.30332 4.49121 7.30332V7.40332V7.50332C5.01315 7.50332 5.43802 7.92825 5.43809 8.45021L5.53809 8.4502ZM10 7.40332L10 7.30332C9.36755 7.30333 8.85313 7.81774 8.85312 8.4502L8.95312 8.4502L9.05313 8.4502C9.05313 7.9282 9.47801 7.50333 10 7.50332L10 7.40332ZM8.95312 8.4502H8.85312V9.00195H8.95312H9.05313V8.4502H8.95312ZM8.95312 9.00195L8.85313 9.00198C8.8533 9.63425 9.36762 10.1488 10 10.1488L10 10.0488L10 9.94883C9.47813 9.94882 9.05327 9.52383 9.05312 9.00193L8.95312 9.00195ZM10 10.0488L10 10.1488C10.6324 10.1488 11.1467 9.63425 11.1469 9.00198L11.0469 9.00195L10.9469 9.00193C10.9467 9.52384 10.5219 9.94883 10 9.94883L10 10.0488ZM11.0469 9.00195H11.1469V8.4502H11.0469H10.9469V9.00195H11.0469ZM11.0469 8.4502L11.1469 8.4502C11.1469 7.81774 10.6325 7.30332 10 7.30332L10 7.40332L10 7.50332C10.522 7.50332 10.9469 7.9282 10.9469 8.4502L11.0469 8.4502ZM15.5088 7.40332L15.5088 7.30332C14.8764 7.30334 14.362 7.81782 14.3619 8.45018L14.4619 8.4502L14.5619 8.45021C14.562 7.92827 14.9869 7.50334 15.5088 7.50332L15.5088 7.40332ZM14.4619 8.4502H14.3619V9.00195H14.4619H14.5619V8.4502H14.4619ZM14.4619 9.00195L14.3619 9.00196C14.362 9.63435 14.8764 10.1488 15.5088 10.1488L15.5088 10.0488L15.5088 9.94883C14.9868 9.94881 14.562 9.5239 14.5619 9.00194L14.4619 9.00195ZM15.5088 10.0488L15.5088 10.1488C16.1413 10.1488 16.6556 9.63436 16.6557 9.00196L16.5557 9.00195L16.4557 9.00195C16.4557 9.52391 16.0308 9.94883 15.5088 9.94883L15.5088 10.0488ZM16.5557 9.00195H16.6557V8.4502H16.5557H16.4557V9.00195H16.5557ZM16.5557 8.4502L16.6557 8.45018C16.6556 7.81781 16.1412 7.30332 15.5088 7.30332L15.5088 7.40332L15.5088 7.50332C16.0307 7.50332 16.4556 7.92825 16.4557 8.45021L16.5557 8.4502Z" fill="#556485"/>
</g>
<defs>
<clipPath id="clip0_2087_8347">
<rect width="20" height="20" fill="white"/>
</clipPath>
</defs>
</svg>
