<svg width="20" height="20" viewBox="0 0 20 20" fill="none" xmlns="http://www.w3.org/2000/svg">
    <g clip-path="url(#1brrkndu7a)" fill="#556485">
        <path d="M20 4v12.732H0V4h20zM1.172 5.172V15.56h17.656V5.17H1.172zm3.32 1.06c1.223 0 2.218.995 2.218 2.218v3.833a2.222 2.222 0 0 1-2.219 2.219 2.222 2.222 0 0 1-2.219-2.219h1.172c0 .577.47 1.047 1.047 1.047s1.047-.47 1.047-1.047v-1.326a2.206 2.206 0 0 1-1.047.264 2.221 2.221 0 0 1-2.219-2.219V8.45c0-1.223.996-2.219 2.22-2.219zm5.508 0c1.223 0 2.219.995 2.219 2.218v3.832A2.221 2.221 0 0 1 10 14.501a2.221 2.221 0 0 1-2.219-2.219h1.172a1.048 1.048 0 0 0 2.094 0v-1.325a2.206 2.206 0 0 1-1.047.264 2.222 2.222 0 0 1-2.219-2.219V8.45c0-1.223.996-2.219 2.219-2.219zm5.509 0c1.223 0 2.218.995 2.218 2.218v3.833a2.22 2.22 0 0 1-2.218 2.218 2.221 2.221 0 0 1-2.219-2.218h1.172a1.048 1.048 0 0 0 2.094 0v-1.326a2.206 2.206 0 0 1-1.047.264 2.221 2.221 0 0 1-2.219-2.219V8.45c0-1.223.996-2.219 2.219-2.219zM4.49 7.402c-.577 0-1.047.47-1.047 1.047v.552a1.048 1.048 0 0 0 2.094 0V8.45c0-.577-.47-1.047-1.047-1.047zm5.509 0c-.577 0-1.047.47-1.047 1.047v.552c0 .577.47 1.047 1.047 1.047s1.047-.47 1.047-1.047V8.45c0-.577-.47-1.047-1.047-1.047zm5.509 0c-.577 0-1.047.47-1.047 1.047v.552a1.048 1.048 0 0 0 2.094 0V8.45c0-.577-.47-1.047-1.047-1.047z"/>
        <path d="M20 4h.1v-.1H20V4zm0 12.732v.1h.1v-.1H20zm-20 0h-.1v.1H0v-.1zM0 4v-.1h-.1V4H0zm1.172 1.172v-.1h-.1v.1h.1zm0 10.389h-.1v.1h.1v-.1zm17.656 0v.1h.1v-.1h-.1zm0-10.39h.1v-.1h-.1v.1zM4.491 6.232v-.1.1zm2.219 2.22h.1-.1zm0 3.832h.1-.1zm-2.219 2.219v.1-.1zm-2.219-2.219v-.1h-.1v.1h.1zm1.172 0h.1v-.1h-.1v.1zm1.047 1.047v.1-.1zm1.047-1.047h.1-.1zm0-1.326h.1v-.167l-.147.079.047.088zm-1.047.264v.1-.1zM2.272 9.002h-.1.1zm0-.552h-.1.1zM10 6.231v-.1.1zm2.219 2.22h.1-.1zm0 3.831h.1-.1zM10 14.501v.1-.1zm-2.219-2.219v-.1h-.1v.1h.1zm1.172 0h.1v-.1h-.1v.1zM10 13.33v.1-.1zm1.047-1.047h.1-.1zm0-1.325h.1v-.167l-.148.079.048.088zM10 11.221v.1-.1zM7.781 9.002h-.1.1zm0-.552h-.1.1zm7.728-2.219v-.1.1zm2.218 2.22h.1-.1zm0 3.832h.1-.1zm-2.218 2.218v.1-.1zm-2.219-2.218v-.1h-.1v.1h.1zm1.172 0h.1v-.1h-.1v.1zm1.047 1.046v.1-.1zm1.047-1.046h.1-.1zm0-1.326h.1v-.167l-.148.079.048.088zm-1.047.264v.1-.1zM13.29 9.002h-.1.1zm0-.552h-.1.1zM4.491 7.403v-.1.1zM3.444 8.45h-.1.1zm0 .552h-.1.1zm1.047 1.047v.1-.1zm1.047-1.047h.1-.1zm0-.552h.1-.1zM10 7.403v-.1.1zM8.953 8.45h-.1.1zm0 .552h-.1.1zM10 10.049v.1-.1zm1.047-1.047h.1-.1zm0-.552h-.1.1zm4.462-1.047v-.1.1zM14.462 8.45h-.1.1zm0 .552h-.1.1zm1.047 1.047v.1-.1zm1.047-1.047h.1-.1zm0-.552h.1-.1zM20 4h-.1v12.732h.2V4H20zm0 12.732v-.1H0v.2h20v-.1zm-20 0h.1V4h-.2v12.732H0zM0 4v.1h20v-.2H0V4zm1.172 1.172h-.1V15.56h.2V5.17h-.1zm0 10.389v.1h17.656v-.2H1.172v.1zm17.656 0h.1V5.17h-.2v10.39h.1zm0-10.39v-.1H1.172v.2h17.656v-.1zM4.491 6.232v.1c1.168 0 2.119.951 2.119 2.12h.2a2.321 2.321 0 0 0-2.319-2.32v.1zm2.219 2.22h-.1v3.832h.2V8.45h-.1zm0 3.832h-.1c0 1.168-.95 2.119-2.119 2.119v.2a2.322 2.322 0 0 0 2.319-2.319h-.1zm-2.219 2.219v-.1a2.122 2.122 0 0 1-2.119-2.119h-.2a2.322 2.322 0 0 0 2.32 2.319v-.1zm-2.219-2.219v.1h1.172v-.2H2.272v.1zm1.172 0h-.1c0 .632.515 1.147 1.147 1.147v-.2a.949.949 0 0 1-.947-.947h-.1zm1.047 1.047v.1c.633 0 1.147-.515 1.147-1.147h-.2a.949.949 0 0 1-.947.947v.1zm1.047-1.047h.1v-1.326h-.2v1.326h.1zm0-1.326-.047-.088c-.298.16-.639.252-1 .252v.2c.396 0 .768-.1 1.094-.276l-.047-.088zm-1.047.264v-.1a2.121 2.121 0 0 1-2.119-2.119h-.2a2.321 2.321 0 0 0 2.32 2.319v-.1zM2.272 9.002h.1V8.45h-.2v.552h.1zm0-.552h.1c0-1.168.951-2.119 2.12-2.119v-.2a2.321 2.321 0 0 0-2.32 2.32h.1zM10 6.231v.1c1.168 0 2.119.951 2.119 2.12h.2A2.321 2.321 0 0 0 10 6.13v.1zm2.219 2.22h-.1v3.831h.2V8.45h-.1zm0 3.831h-.1c0 1.168-.95 2.119-2.119 2.119v.2a2.321 2.321 0 0 0 2.319-2.319h-.1zM10 14.501v-.1a2.121 2.121 0 0 1-2.119-2.119h-.2A2.321 2.321 0 0 0 10 14.601v-.1zm-2.219-2.219v.1h1.172v-.2H7.781v.1zm1.172 0h-.1c0 .633.515 1.147 1.147 1.147v-.2a.948.948 0 0 1-.947-.947h-.1zM10 13.33v.1c.633 0 1.147-.514 1.147-1.147h-.2a.948.948 0 0 1-.947.947v.1zm1.047-1.047h.1v-1.325h-.2v1.325h.1zm0-1.325-.048-.088c-.298.16-.638.252-.999.252v.2c.396 0 .768-.1 1.094-.276l-.047-.088zM10 11.221v-.1A2.122 2.122 0 0 1 7.881 9l-.1.001h-.1A2.321 2.321 0 0 0 10 11.321v-.1zM7.781 9.002h.1V8.45h-.2v.552h.1zm0-.552h.1c0-1.168.95-2.119 2.119-2.119v-.2a2.321 2.321 0 0 0-2.319 2.32h.1zm7.728-2.219v.1c1.168 0 2.119.951 2.119 2.12h.2a2.321 2.321 0 0 0-2.32-2.32v.1zm2.218 2.22h-.1v3.832h.2V8.45h-.1zm0 3.832h-.1a2.12 2.12 0 0 1-2.118 2.118v.2a2.32 2.32 0 0 0 2.319-2.318h-.1zm-2.218 2.218v-.1a2.12 2.12 0 0 1-2.119-2.118h-.2a2.32 2.32 0 0 0 2.319 2.318v-.1zm-2.219-2.218v.1h1.172v-.2H13.29v.1zm1.172 0h-.1c0 .633.515 1.146 1.147 1.146v-.2a.948.948 0 0 1-.947-.946h-.1zm1.047 1.046v.1c.632 0 1.146-.514 1.147-1.146h-.2a.948.948 0 0 1-.947.946v.1zm1.047-1.046h.1v-1.326h-.2v1.326h.1zm0-1.326-.048-.088c-.298.16-.638.252-1 .252v.2c.396 0 .769-.1 1.095-.276l-.047-.088zm-1.047.264v-.1a2.121 2.121 0 0 1-2.119-2.119h-.2a2.321 2.321 0 0 0 2.319 2.319v-.1zM13.29 9.002h.1V8.45h-.2v.552h.1zm0-.552h.1c0-1.168.95-2.119 2.119-2.119v-.2a2.321 2.321 0 0 0-2.319 2.32h.1zM4.491 7.403v-.1c-.632 0-1.147.515-1.147 1.147h.2c0-.522.425-.947.947-.947v-.1zM3.444 8.45h-.1v.552h.2V8.45h-.1zm0 .552h-.1c0 .632.515 1.147 1.147 1.147v-.2a.948.948 0 0 1-.947-.947h-.1zm1.047 1.047v.1c.633 0 1.147-.515 1.147-1.147h-.2a.948.948 0 0 1-.947.947v.1zm1.047-1.047h.1V8.45h-.2v.552h.1zm0-.552h.1c0-.632-.514-1.147-1.147-1.147v.2c.522 0 .947.425.947.947h.1zM10 7.403v-.1c-.632 0-1.147.515-1.147 1.147h.2c0-.522.425-.947.947-.947v-.1zM8.953 8.45h-.1v.552h.2V8.45h-.1zm0 .552h-.1c0 .632.515 1.147 1.147 1.147v-.2a.948.948 0 0 1-.947-.947h-.1zM10 10.049v.1c.632 0 1.147-.515 1.147-1.147h-.2a.948.948 0 0 1-.947.947v.1zm1.047-1.047h.1V8.45h-.2v.552h.1zm0-.552h.1c0-.632-.514-1.147-1.147-1.147v.2c.522 0 .947.425.947.947h.1zm4.462-1.047v-.1c-.633 0-1.147.515-1.147 1.147h.2c0-.522.425-.947.947-.947v-.1zM14.462 8.45h-.1v.552h.2V8.45h-.1zm0 .552h-.1c0 .632.514 1.147 1.147 1.147v-.2a.948.948 0 0 1-.947-.947h-.1zm1.047 1.047v.1c.632 0 1.147-.515 1.147-1.147h-.2a.948.948 0 0 1-.947.947v.1zm1.047-1.047h.1V8.45h-.2v.552h.1zm0-.552h.1c0-.632-.515-1.147-1.147-1.147v.2c.522 0 .947.425.947.947h.1z"/>
    </g>
    <defs>
        <clipPath id="1brrkndu7a">
            <path fill="#fff" d="M0 0h20v20H0z"/>
        </clipPath>
    </defs>
</svg>
