<svg width="20" height="20" viewBox="0 0 20 20" fill="none" xmlns="http://www.w3.org/2000/svg">
    <g clip-path="url(#x4d9cdfuna)" fill="#556485">
        <path d="M20 16.69H0V3.75h20v12.94zM1.172 15.517h17.656v-2.359h-1.524l-1.177 1.177h-1.988v-1.172h1.503l1.176-1.177h2.01v-1.181H14.95l-1.177 1.176h-1.988v-1.171h1.503l.59-.591-.59-.591h-1.503V8.457h1.988l1.177 1.177h3.878V8.452h-2.01l-1.176-1.177h-1.503V6.104h1.988l1.177 1.176h1.524V4.922H1.172v10.596zm2.353-1.182H2.354v-1.172h1.171v1.172zm2.354 0H4.707v-1.172h1.172v1.172zm0-4.707H2.354V6.104h3.525v3.525zM3.525 8.457h1.182V7.275H3.525v1.182z"/>
        <path d="M20 16.69v.1h.1v-.1H20zm-20 0h-.1v.1H0v-.1zM0 3.75v-.1h-.1v.1H0zm20 0h.1v-.1H20v.1zM1.172 15.518h-.1v.1h.1v-.1zm17.656 0v.1h.1v-.1h-.1zm0-2.359h.1v-.1h-.1v.1zm-1.524 0v-.1h-.042l-.029.03.07.07zm-1.177 1.177v.1h.041l.03-.03-.071-.07zm-1.988 0h-.1v.1h.1v-.1zm0-1.172v-.1h-.1v.1h.1zm1.503 0v.1h.041l.03-.03-.071-.07zm1.176-1.177v-.1h-.041l-.03.03.071.07zm2.01 0v.1h.1v-.1h-.1zm0-1.181h.1v-.1h-.1v.1zm-3.878 0v-.1h-.041l-.03.029.071.07zm-1.177 1.176v.1h.042l.03-.029-.072-.07zm-1.988 0h-.1v.1h.1v-.1zm0-1.171v-.1h-.1v.1h.1zm1.503 0v.1h.041l.03-.03-.07-.07zm.59-.591.072.07.07-.07-.07-.071-.071.07zm-.59-.591.07-.07-.029-.03h-.04v.1zm-1.503 0h-.1v.1h.1v-.1zm0-1.172v-.1h-.1v.1h.1zm1.988 0 .071-.07-.03-.03h-.04v.1zm1.177 1.177-.07.07.029.03h.041v-.1zm3.878 0v.1h.1v-.1h-.1zm0-1.182h.1v-.1h-.1v.1zm-2.01 0-.07.07.029.03h.041v-.1zm-1.176-1.177.07-.07-.029-.03h-.041v.1zm-1.503 0h-.1v.1h.1v-.1zm0-1.171v-.1h-.1v.1h.1zm1.988 0 .07-.071-.029-.03h-.041v.1zm1.177 1.176-.071.071.03.03h.04v-.1zm1.524 0v.1h.1v-.1h-.1zm0-2.358h.1v-.1h-.1v.1zm-17.656 0v-.1h-.1v.1h.1zm2.353 9.414v.1h.1v-.1h-.1zm-1.171 0h-.1v.1h.1v-.1zm0-1.172v-.1h-.1v.1h.1zm1.171 0h.1v-.1h-.1v.1zm2.354 1.172v.1h.1v-.1h-.1zm-1.172 0h-.1v.1h.1v-.1zm0-1.172v-.1h-.1v.1h.1zm1.172 0h.1v-.1h-.1v.1zm0-3.535v.1h.1v-.1h-.1zm-3.525 0h-.1v.1h.1v-.1zm0-3.525v-.1h-.1v.1h.1zm3.525 0h.1v-.1h-.1v.1zM3.525 8.457h-.1v.1h.1v-.1zm1.182 0v.1h.1v-.1h-.1zm0-1.182h.1v-.1h-.1v.1zm-1.182 0v-.1h-.1v.1h.1zM20 16.69v-.1H0v.2h20v-.1zm-20 0h.1V3.75h-.2v12.94H0zM0 3.75v.1h20v-.2H0v.1zm20 0h-.1v12.94h.2V3.75H20zM1.172 15.518v.1h17.656v-.2H1.172v.1zm17.656 0h.1v-2.359h-.2v2.359h.1zm0-2.359v-.1h-1.524v.2h1.524v-.1zm-1.524 0-.071-.07-1.177 1.176.071.07.07.072 1.177-1.177-.07-.07zm-1.177 1.177v-.1h-1.988v.2h1.988v-.1zm-1.988 0h.1v-1.172h-.2v1.172h.1zm0-1.172v.1h1.503v-.2h-1.503v.1zm1.503 0 .07.07 1.177-1.176-.07-.07-.071-.071-1.177 1.176.07.071zm1.176-1.177v.1h2.01v-.2h-2.01v.1zm2.01 0h.1v-1.181h-.2v1.181h.1zm0-1.181v-.1H14.95v.2h3.878v-.1zm-3.878 0-.07-.071-1.177 1.177.07.07.071.071 1.177-1.177-.07-.07zm-1.177 1.176v-.1h-1.988v.2h1.988v-.1zm-1.988 0h.1v-1.171h-.2v1.171h.1zm0-1.171v.1h1.503v-.2h-1.503v.1zm1.503 0 .07.07.592-.59-.071-.071-.07-.071-.592.59.071.071zm.59-.591.072-.071-.591-.59-.07.07-.072.07.591.591.07-.07zm-.59-.591v-.1h-1.503v.2h1.503v-.1zm-1.503 0h.1V8.457h-.2v1.172h.1zm0-1.172v.1h1.988v-.2h-1.988v.1zm1.988 0-.07.07 1.177 1.178.07-.071.07-.07-1.176-1.178-.07.071zm1.177 1.177v.1h3.878v-.2H14.95v.1zm3.878 0h.1V8.452h-.2v1.182h.1zm0-1.182v-.1h-2.01v.2h2.01v-.1zm-2.01 0 .071-.07-1.177-1.177-.07.07-.071.071 1.177 1.177.07-.07zm-1.176-1.177v-.1h-1.503v.2h1.503v-.1zm-1.503 0h.1V6.104h-.2v1.171h.1zm0-1.171v.1h1.988v-.2h-1.988v.1zm1.988 0-.07.07 1.176 1.177.07-.07.071-.071-1.176-1.177-.071.07zm1.177 1.176v.1h1.524v-.2h-1.524v.1zm1.524 0h.1V4.922h-.2V7.28h.1zm0-2.358v-.1H1.172v.2h17.656v-.1zm-17.656 0h-.1v10.596h.2V4.922h-.1zm2.353 9.414v-.1H2.354v.2h1.171v-.1zm-1.171 0h.1v-1.172h-.2v1.172h.1zm0-1.172v.1h1.171v-.2H2.354v.1zm1.171 0h-.1v1.172h.2v-1.172h-.1zm2.354 1.172v-.1H4.707v.2h1.172v-.1zm-1.172 0h.1v-1.172h-.2v1.172h.1zm0-1.172v.1h1.172v-.2H4.707v.1zm1.172 0h-.1v1.172h.2v-1.172h-.1zm0-3.535v-.1H2.354v.2h3.525v-.1zm-3.525 0h.1V6.104h-.2v3.525h.1zm0-3.525v.1h3.525v-.2H2.354v.1zm3.525 0h-.1v3.525h.2V6.104h-.1zM3.525 8.457v.1h1.182v-.2H3.525v.1zm1.182 0h.1V7.275h-.2v1.182h.1zm0-1.182v-.1H3.525v.2h1.182v-.1zm-1.182 0h-.1v1.182h.2V7.275h-.1z"/>
    </g>
    <defs>
        <clipPath id="x4d9cdfuna">
            <path fill="#fff" d="M0 0h20v20H0z"/>
        </clipPath>
    </defs>
</svg>
