<svg width="20" height="20" viewBox="0 0 20 20" fill="none" xmlns="http://www.w3.org/2000/svg">
    <g clip-path="url(#68pkm7d7qa)" fill="#556485">
        <path d="M10.293 0c.764 0 1.415.49 1.657 1.172h1.859c.323 0 .586.262.586.586v.586h1.757c.324 0 .586.262.586.586v16.484a.586.586 0 0 1-.586.586H3.848a.586.586 0 0 1-.586-.586V2.93c0-.324.262-.586.586-.586H6.19v-.586c0-.324.263-.586.586-.586h1.859A1.76 1.76 0 0 1 10.293 0zm-5.86 18.828h11.133V3.516h-1.171v.586a.586.586 0 0 1-.586.585H6.777a.586.586 0 0 1-.586-.585v-.586H4.434v15.312zm3.102-3.383a.585.585 0 1 1 .828.828l-1.172 1.172a.583.583 0 0 1-.828 0l-.586-.586a.585.585 0 1 1 .828-.828l.172.171.758-.757zm6.274 1a.586.586 0 0 1 0 1.172H9.707a.586.586 0 0 1 0-1.172h4.102zM10 6.485c1.869 0 2.5.527 2.648.689.07.075.118.167.141.266l.331 1.456a1.76 1.76 0 0 1 1.275 1.69v1.758a.586.586 0 0 1-.586.586v.586a.586.586 0 1 1-1.172 0v-.586H7.363v.586a.586.586 0 1 1-1.172 0v-.586a.586.586 0 0 1-.586-.586v-1.758c0-.802.54-1.479 1.275-1.69l.33-1.456a.587.587 0 0 1 .142-.266c.149-.162.78-.69 2.648-.69zM7.363 10a.587.587 0 0 0-.586.586v1.172h6.446v-1.172a.587.587 0 0 0-.585-.586H7.363zM10 7.656c-.995 0-1.493.172-1.697.27l-.205.902h3.804l-.205-.901c-.204-.1-.702-.27-1.697-.27zm.293-6.484a.587.587 0 0 0-.574.468l-.024.236a.586.586 0 0 1-.574.468H7.363v1.172h5.86V2.344h-1.758c-.283 0-.52-.201-.574-.468l-.024-.236a.587.587 0 0 0-.574-.468z"/>
        <path d="m11.95 1.172-.094.033.024.067h.07v-.1zm2.445 1.172h-.1v.1h.1v-.1zm-8.204 0v.1h.1v-.1h-.1zm2.445-1.172v.1h.07l.024-.067-.094-.033zM4.434 18.828h-.1v.1h.1v-.1zm11.132 0v.1h.1v-.1h-.1zm0-15.312h.1v-.1h-.1v.1zm-1.171 0v-.1h-.1v.1h.1zm-8.204 0h.1v-.1h-.1v.1zm-1.757 0v-.1h-.1v.1h.1zm3.101 11.93.07.07-.07-.07zm.828 0-.07.07.07-.07zm0 .827.071.071-.07-.07zm-1.172 1.172-.07-.07.07.07zm-.414.172v.1-.1zm-.414-.172-.07.071.07-.07zm-.586-.586-.07.071.07-.07zm0-.828-.07-.07.07.07zm.828 0-.07.071.07-.07zm.172.171-.07.071.07.07.071-.07-.07-.07zm5.871-9.028.074-.068-.074.068zm.141.266.098-.022-.098.022zm.331 1.456-.097.023.013.057.057.017.027-.097zm.689 4.034v-.1h-.1v.1h.1zm-1.172 0h.1v-.1h-.1v.1zm-5.274 0v-.1h-.1v.1h.1zm-1.172 0h.1v-.1h-.1v.1zm.689-4.034.027.097.057-.017.013-.057-.097-.023zm.33-1.456-.097-.022.098.022zm.142-.266-.074-.068.074.068zm-.575 4.584h-.1v.1h.1v-.1zm6.446 0v.1h.1v-.1h-.1zM12.638 10v-.1.1zM8.303 7.927l-.044-.09-.043.02-.01.048.097.022zm-.205.901L8 8.806l-.028.122h.126v-.1zm3.804 0v.1h.126L12 8.806l-.098.022zm-.205-.901.098-.022-.01-.047-.044-.021-.044.09zM9.72 1.64l-.099-.02v.01l.099.01zm-.024.236.099.02v-.01l-.099-.01zm-2.332.468v-.1h-.1v.1h.1zm0 1.172h-.1v.1h.1v-.1zm5.86 0v.1h.1v-.1h-.1zm0-1.172h.1v-.1h-.1v.1zm-2.332-.468-.1.01.002.01.098-.02zm-.024-.236.1-.01-.002-.01-.098.02zM10.293 0v.1c.72 0 1.335.462 1.563 1.105l.094-.033.094-.034A1.86 1.86 0 0 0 10.293-.1V0zm1.657 1.172v.1h1.859v-.2H11.95v.1zm1.859 0v.1c.268 0 .486.217.486.486h.2a.686.686 0 0 0-.686-.686v.1zm.586.586h-.1v.586h.2v-.586h-.1zm0 .586v.1h1.757v-.2h-1.758v.1zm1.757 0v.1c.269 0 .486.217.486.486h.2a.686.686 0 0 0-.686-.686v.1zm.586.586h-.1v16.484h.2V2.93h-.1zm0 16.484h-.1a.486.486 0 0 1-.486.486v.2a.686.686 0 0 0 .686-.686h-.1zm-.586.586v-.1H3.848v.2h12.304V20zM3.848 20v-.1a.486.486 0 0 1-.486-.486h-.2c0 .379.307.686.686.686V20zm-.586-.586h.1V2.93h-.2v16.484h.1zm0-16.484h.1c0-.269.217-.486.486-.486v-.2a.686.686 0 0 0-.686.686h.1zm.586-.586v.1H6.19v-.2H3.848v.1zm2.343 0h.1v-.586h-.2v.586h.1zm0-.586h.1c0-.269.218-.486.486-.486v-.2a.686.686 0 0 0-.686.686h.1zm.586-.586v.1h1.859v-.2H6.777v.1zm1.859 0 .094.033A1.66 1.66 0 0 1 10.293.1v-.2a1.86 1.86 0 0 0-1.752 1.238l.095.034zM4.434 18.828v.1h11.132v-.2H4.434v.1zm11.132 0h.1V3.516h-.2v15.312h.1zm0-15.312v-.1h-1.171v.2h1.171v-.1zm-1.171 0h-.1v.586h.2v-.586h-.1zm0 .586h-.1a.486.486 0 0 1-.486.486v.2a.686.686 0 0 0 .686-.686h-.1zm-.586.585v-.1H6.777v.2h7.032v-.1zm-7.032 0v-.1a.486.486 0 0 1-.486-.485h-.2c0 .378.308.685.686.685v-.1zm-.586-.585h.1v-.586h-.2v.586h.1zm0-.586v-.1H4.434v.2H6.19v-.1zm-1.757 0h-.1v15.312h.2V3.516h-.1zm3.101 11.93.07.07c.19-.19.498-.19.688 0l.07-.07.071-.071a.685.685 0 0 0-.97 0l.071.07zm.828 0-.07.07c.19.19.19.497 0 .687l.07.07.071.071a.685.685 0 0 0 0-.97l-.07.071zm0 .827-.07-.07-1.172 1.172.07.07.071.071 1.172-1.172-.07-.07zm-1.172 1.172-.07-.07a.484.484 0 0 1-.344.142v.2a.684.684 0 0 0 .485-.201l-.07-.07zm-.414.172v-.1a.484.484 0 0 1-.343-.142l-.07.07-.071.071c.133.134.309.201.484.201v-.1zm-.414-.172.071-.07-.586-.586-.07.07-.071.071.586.586.07-.07zm-.586-.586.071-.07a.485.485 0 0 1 0-.687l-.07-.07-.071-.072a.685.685 0 0 0 0 .97l.07-.07zm0-.828.071.071c.19-.19.497-.19.687 0l.07-.07.071-.072a.685.685 0 0 0-.97 0l.071.071zm.828 0-.07.071.172.171.07-.07.07-.072-.171-.17-.07.07zm.172.171.071.07.758-.756-.07-.07-.072-.071-.757.756.07.071zm7.032.243v.1c.268 0 .486.218.486.486h.2a.686.686 0 0 0-.686-.686v.1zm.586.586h-.1a.486.486 0 0 1-.486.486v.2a.686.686 0 0 0 .686-.686h-.1zm-.586.586v-.1H9.707v.2h4.102v-.1zm-4.102 0v-.1a.486.486 0 0 1-.486-.486h-.2c0 .38.307.686.686.686v-.1zm-.586-.586h.1c0-.268.218-.486.486-.486v-.2a.686.686 0 0 0-.686.686h.1zm.586-.586v.1h4.102v-.2H9.707v.1zM10 6.485v.1c1.85 0 2.45.521 2.575.657l.073-.068.074-.068c-.173-.188-.834-.722-2.722-.722v.1zm2.648.689-.073.067a.488.488 0 0 1 .117.222l.097-.023.098-.022a.687.687 0 0 0-.165-.312l-.074.068zm.141.266-.097.023.33 1.456.098-.023.098-.022-.331-1.456-.098.022zm.331 1.456-.027.097a1.66 1.66 0 0 1 1.201 1.593h.2A1.86 1.86 0 0 0 13.149 8.8l-.028.096zm1.275 1.69h-.1v1.758h.2v-1.758h-.1zm0 1.758h-.1a.486.486 0 0 1-.486.486v.2a.686.686 0 0 0 .686-.686h-.1zm-.586.586h-.1v.586h.2v-.586h-.1zm0 .586h-.1a.486.486 0 0 1-.486.486v.2a.686.686 0 0 0 .686-.686h-.1zm-.586.586v-.1a.486.486 0 0 1-.486-.486h-.2c0 .378.307.686.686.686v-.1zm-.586-.586h.1v-.586h-.2v.586h.1zm0-.586v-.1H7.363v.2h5.274v-.1zm-5.274 0h-.1v.586h.2v-.586h-.1zm0 .586h-.1a.486.486 0 0 1-.486.486v.2a.686.686 0 0 0 .686-.686h-.1zm-.586.586v-.1a.486.486 0 0 1-.486-.486h-.2c0 .378.308.686.686.686v-.1zm-.586-.586h.1v-.586h-.2v.586h.1zm0-.586v-.1a.486.486 0 0 1-.486-.486h-.2c0 .379.308.686.686.686v-.1zm-.586-.586h.1v-1.758h-.2v1.758h.1zm0-1.758h.1a1.66 1.66 0 0 1 1.202-1.593l-.027-.097-.028-.096a1.86 1.86 0 0 0-1.347 1.786h.1zm1.275-1.69.097.023.331-1.456-.097-.023-.098-.022-.33 1.456.097.022zm.33-1.456.098.023a.487.487 0 0 1 .117-.221l-.073-.068-.074-.068a.687.687 0 0 0-.165.312l.098.022zm.142-.266.073.068c.125-.136.725-.658 2.575-.658v-.2c-1.888 0-2.549.534-2.722.722l.074.068zM7.363 10v-.1a.687.687 0 0 0-.686.686h.2c0-.268.218-.486.486-.486V10zm-.586.586h-.1v1.172h.2v-1.172h-.1zm0 1.172v.1h6.446v-.2H6.777v.1zm6.446 0h.1v-1.172h-.2v1.172h.1zm0-1.172h.1a.687.687 0 0 0-.685-.686v.2c.267 0 .485.218.485.486h.1zM12.638 10v-.1H7.363v.2h5.275V10zM10 7.656v-.1c-1.006 0-1.52.174-1.74.28l.043.09.043.09c.188-.09.67-.26 1.654-.26v-.1zm-1.697.27-.098-.021-.205.9.098.023.097.022.205-.901-.097-.022zm-.205.902v.1h3.804v-.2H8.098v.1zm3.804 0L12 8.806l-.205-.901-.098.022-.097.022.205.901.097-.022zm-.205-.901.044-.09c-.221-.107-.735-.28-1.741-.28v.2c.984 0 1.466.169 1.654.26l.043-.09zm-1.404-6.755v-.1a.687.687 0 0 0-.672.548l.098.02.098.02a.487.487 0 0 1 .476-.388v-.1zm-.574.468-.1-.01-.023.236.1.01.099.01.023-.236-.1-.01zm-.024.236-.098-.02a.486.486 0 0 1-.476.388v.2a.686.686 0 0 0 .672-.548l-.098-.02zm-.574.468v-.1H7.363v.2h1.758v-.1zm-1.758 0h-.1v1.172h.2V2.344h-.1zm0 1.172v.1h5.86v-.2h-5.86v.1zm5.86 0h.1V2.344h-.2v1.172h.1zm0-1.172v-.1h-1.758v.2h1.758v-.1zm-1.758 0v-.1a.486.486 0 0 1-.476-.388l-.098.02-.098.02c.064.313.34.548.672.548v-.1zm-.574-.468.1-.01-.024-.236-.1.01-.1.01.024.236.1-.01zm-.024-.236.098-.02a.687.687 0 0 0-.672-.548v.2c.234 0 .43.167.476.388l.098-.02z"/>
    </g>
    <defs>
        <clipPath id="68pkm7d7qa">
            <path fill="#fff" d="M0 0h20v20H0z"/>
        </clipPath>
    </defs>
</svg>
