<svg width="22" height="20" viewBox="0 0 22 20" fill="none" xmlns="http://www.w3.org/2000/svg">
<path d="M18.4502 0.640625C19.8561 0.640625 21 1.78453 21 3.19043V18.1924L19.042 19.3594L17.6699 18.542L16.2988 19.3594L14.9268 18.542L13.5557 19.3594L12.1836 18.542L10.8125 19.3594L8.85449 18.1924V14.0176H5.94727C5.59177 14.998 4.65142 15.7001 3.5498 15.7002C2.14391 15.7002 1 14.5563 1 13.1504V3.61914H4.92773V3.19043C4.92773 1.78457 6.07164 0.640625 7.47754 0.640625H18.4502ZM9.62109 1.8125C9.87748 2.21008 10.0264 2.68315 10.0264 3.19043V17.5273L10.8125 17.9951L12.1836 17.1777L13.5557 17.9951L14.9268 17.1777L16.2988 17.9951L17.6699 17.1777L19.042 17.9951L19.8281 17.5273V3.19043C19.8281 2.4307 19.2098 1.8125 18.4502 1.8125H9.62109ZM15.5137 9.66797C16.1692 9.90773 16.6387 10.5378 16.6387 11.2754H15.4668C15.4668 10.9782 15.2248 10.7364 14.9277 10.7363C14.6306 10.7363 14.3887 10.9782 14.3887 11.2754C14.3887 11.5726 14.6306 11.8145 14.9277 11.8145C15.871 11.8145 16.6387 12.5821 16.6387 13.5254C16.6385 14.2629 16.1692 14.8931 15.5137 15.1328V15.8154H14.3418V15.1328C13.6863 14.8931 13.2169 14.2629 13.2168 13.5254H14.3887C14.3888 13.8224 14.6306 14.0645 14.9277 14.0645C15.2248 14.0644 15.4666 13.8224 15.4668 13.5254C15.4668 13.2282 15.2248 12.9864 14.9277 12.9863C13.9844 12.9863 13.2168 12.2187 13.2168 11.2754C13.2168 10.5378 13.6861 9.9077 14.3418 9.66797V8.98438H15.5137V9.66797ZM2.17188 13.1504C2.17188 13.9101 2.79008 14.5283 3.5498 14.5283C4.30946 14.5282 4.92773 13.9101 4.92773 13.1504V4.79102H2.17188V13.1504ZM7.47754 1.8125C6.71785 1.8125 6.09961 2.4307 6.09961 3.19043V12.8457H8.85449V3.19043C8.85449 2.4309 8.23701 1.81275 7.47754 1.8125ZM18.0029 7.56836H11.8525V6.39648H18.0029V7.56836ZM18.0029 4.79102H11.8525V3.61914H18.0029V4.79102Z" fill="#E3E3E3"/>
<path d="M21 18.1924L21.0512 18.2783L21.1 18.2492V18.1924H21ZM19.042 19.3594L18.9908 19.4453L19.042 19.4758L19.0932 19.4453L19.042 19.3594ZM17.6699 18.542L17.7211 18.4561L17.6699 18.4256L17.6187 18.4561L17.6699 18.542ZM16.2988 19.3594L16.2476 19.4453L16.2988 19.4758L16.35 19.4453L16.2988 19.3594ZM14.9268 18.542L14.9779 18.4561L14.9267 18.4256L14.8756 18.4561L14.9268 18.542ZM13.5557 19.3594L13.5045 19.4453L13.5557 19.4758L13.6069 19.4453L13.5557 19.3594ZM12.1836 18.542L12.2348 18.4561L12.1836 18.4256L12.1324 18.4561L12.1836 18.542ZM10.8125 19.3594L10.7613 19.4453L10.8125 19.4758L10.8637 19.4453L10.8125 19.3594ZM8.85449 18.1924H8.75449V18.2492L8.80329 18.2783L8.85449 18.1924ZM8.85449 14.0176H8.95449V13.9176H8.85449V14.0176ZM5.94727 14.0176V13.9176H5.87716L5.85326 13.9835L5.94727 14.0176ZM3.5498 15.7002L3.5498 15.8002L3.54981 15.8002L3.5498 15.7002ZM1 3.61914V3.51914H0.9V3.61914H1ZM4.92773 3.61914V3.71914H5.02773V3.61914H4.92773ZM9.62109 1.8125V1.7125H9.43762L9.53705 1.86669L9.62109 1.8125ZM10.0264 17.5273H9.92637V17.5842L9.97523 17.6133L10.0264 17.5273ZM10.8125 17.9951L10.7614 18.0811L10.8125 18.1115L10.8637 18.081L10.8125 17.9951ZM12.1836 17.1777L12.2348 17.0918L12.1836 17.0613L12.1324 17.0918L12.1836 17.1777ZM13.5557 17.9951L13.5045 18.081L13.5557 18.1115L13.6069 18.081L13.5557 17.9951ZM14.9268 17.1777L14.9779 17.0918L14.9267 17.0613L14.8756 17.0918L14.9268 17.1777ZM16.2988 17.9951L16.2476 18.081L16.2988 18.1115L16.35 18.081L16.2988 17.9951ZM17.6699 17.1777L17.7211 17.0918L17.6699 17.0613L17.6187 17.0918L17.6699 17.1777ZM19.042 17.9951L18.9908 18.081L19.042 18.1115L19.0931 18.0811L19.042 17.9951ZM19.8281 17.5273L19.8793 17.6133L19.9281 17.5842V17.5273H19.8281ZM15.5137 9.66797H15.4137V9.73787L15.4793 9.76188L15.5137 9.66797ZM16.6387 11.2754V11.3754H16.7387V11.2754H16.6387ZM15.4668 11.2754H15.3668V11.3754H15.4668V11.2754ZM14.9277 10.7363L14.9278 10.6363H14.9277V10.7363ZM14.3887 11.2754L14.2887 11.2754L14.2887 11.2754L14.3887 11.2754ZM14.9277 11.8145L14.9277 11.7145H14.9277V11.8145ZM16.6387 13.5254L16.7387 13.5254V13.5254H16.6387ZM15.5137 15.1328L15.4793 15.0389L15.4137 15.0629V15.1328H15.5137ZM15.5137 15.8154V15.9154H15.6137V15.8154H15.5137ZM14.3418 15.8154H14.2418V15.9154H14.3418V15.8154ZM14.3418 15.1328H14.4418V15.0629L14.3761 15.0389L14.3418 15.1328ZM13.2168 13.5254V13.4254H13.1168L13.1168 13.5254L13.2168 13.5254ZM14.3887 13.5254L14.4887 13.5253L14.4886 13.4254H14.3887V13.5254ZM14.9277 14.0645L14.9277 14.1645L14.9278 14.1645L14.9277 14.0645ZM15.4668 13.5254L15.5668 13.5254V13.5254H15.4668ZM14.9277 12.9863L14.9278 12.8863H14.9277V12.9863ZM13.2168 11.2754L13.1168 11.2754L13.1168 11.2754L13.2168 11.2754ZM14.3418 9.66797L14.3761 9.76189L14.4418 9.73788V9.66797H14.3418ZM14.3418 8.98438V8.88437H14.2418V8.98438H14.3418ZM15.5137 8.98438H15.6137V8.88437H15.5137V8.98438ZM3.5498 14.5283L3.5498 14.6283L3.54982 14.6283L3.5498 14.5283ZM4.92773 4.79102H5.02773V4.69102H4.92773V4.79102ZM2.17188 4.79102V4.69102H2.07187V4.79102H2.17188ZM7.47754 1.8125L7.47757 1.7125H7.47754V1.8125ZM6.09961 12.8457H5.99961V12.9457H6.09961V12.8457ZM8.85449 12.8457V12.9457H8.95449V12.8457H8.85449ZM18.0029 7.56836V7.66836H18.1029V7.56836H18.0029ZM11.8525 7.56836H11.7525V7.66836H11.8525V7.56836ZM11.8525 6.39648V6.29648H11.7525V6.39648H11.8525ZM18.0029 6.39648H18.1029V6.29648H18.0029V6.39648ZM18.0029 4.79102V4.89102H18.1029V4.79102H18.0029ZM11.8525 4.79102H11.7525V4.89102H11.8525V4.79102ZM11.8525 3.61914V3.51914H11.7525V3.61914H11.8525ZM18.0029 3.61914H18.1029V3.51914H18.0029V3.61914ZM18.4502 0.640625V0.740625C19.8009 0.740625 20.9 1.83976 20.9 3.19043H21H21.1C21.1 1.7293 19.9113 0.540625 18.4502 0.540625V0.640625ZM21 3.19043H20.9V18.1924H21H21.1V3.19043H21ZM21 18.1924L20.9488 18.1065L18.9908 19.2735L19.042 19.3594L19.0932 19.4453L21.0512 18.2783L21 18.1924ZM19.042 19.3594L19.0932 19.2735L17.7211 18.4561L17.6699 18.542L17.6187 18.6279L18.9908 19.4453L19.042 19.3594ZM17.6699 18.542L17.6187 18.4561L16.2476 19.2735L16.2988 19.3594L16.35 19.4453L17.7211 18.6279L17.6699 18.542ZM16.2988 19.3594L16.35 19.2735L14.9779 18.4561L14.9268 18.542L14.8756 18.6279L16.2476 19.4453L16.2988 19.3594ZM14.9268 18.542L14.8756 18.4561L13.5045 19.2735L13.5557 19.3594L13.6069 19.4453L14.978 18.6279L14.9268 18.542ZM13.5557 19.3594L13.6068 19.2735L12.2348 18.4561L12.1836 18.542L12.1324 18.6279L13.5045 19.4453L13.5557 19.3594ZM12.1836 18.542L12.1324 18.4561L10.7613 19.2735L10.8125 19.3594L10.8637 19.4453L12.2348 18.6279L12.1836 18.542ZM10.8125 19.3594L10.8637 19.2735L8.90569 18.1065L8.85449 18.1924L8.80329 18.2783L10.7613 19.4453L10.8125 19.3594ZM8.85449 18.1924H8.95449V14.0176H8.85449H8.75449V18.1924H8.85449ZM8.85449 14.0176V13.9176H5.94727V14.0176V14.1176H8.85449V14.0176ZM5.94727 14.0176L5.85326 13.9835C5.5116 14.9257 4.60789 15.6001 3.5498 15.6002L3.5498 15.7002L3.54981 15.8002C4.69494 15.8001 5.67193 15.0702 6.04128 14.0517L5.94727 14.0176ZM3.5498 15.7002V15.6002C2.19913 15.6002 1.1 14.5011 1.1 13.1504H1H0.9C0.9 14.6115 2.08868 15.8002 3.5498 15.8002V15.7002ZM1 13.1504H1.1V3.61914H1H0.9V13.1504H1ZM1 3.61914V3.71914H4.92773V3.61914V3.51914H1V3.61914ZM4.92773 3.61914H5.02773V3.19043H4.92773H4.82773V3.61914H4.92773ZM4.92773 3.19043H5.02773C5.02773 1.8398 6.12687 0.740625 7.47754 0.740625V0.640625V0.540625C6.01641 0.540625 4.82773 1.72934 4.82773 3.19043H4.92773ZM7.47754 0.640625V0.740625H18.4502V0.640625V0.540625H7.47754V0.640625ZM9.62109 1.8125L9.53705 1.86669C9.78336 2.24865 9.92637 2.703 9.92637 3.19043H10.0264H10.1264C10.1264 2.66331 9.97159 2.17151 9.70514 1.75831L9.62109 1.8125ZM10.0264 3.19043H9.92637V17.5273H10.0264H10.1264V3.19043H10.0264ZM10.0264 17.5273L9.97523 17.6133L10.7614 18.0811L10.8125 17.9951L10.8636 17.9092L10.0775 17.4414L10.0264 17.5273ZM10.8125 17.9951L10.8637 18.081L12.2348 17.2636L12.1836 17.1777L12.1324 17.0918L10.7613 17.9092L10.8125 17.9951ZM12.1836 17.1777L12.1324 17.2636L13.5045 18.081L13.5557 17.9951L13.6068 17.9092L12.2348 17.0918L12.1836 17.1777ZM13.5557 17.9951L13.6069 18.081L14.978 17.2636L14.9268 17.1777L14.8756 17.0918L13.5045 17.9092L13.5557 17.9951ZM14.9268 17.1777L14.8756 17.2636L16.2476 18.081L16.2988 17.9951L16.35 17.9092L14.9779 17.0918L14.9268 17.1777ZM16.2988 17.9951L16.35 18.081L17.7211 17.2636L17.6699 17.1777L17.6187 17.0918L16.2476 17.9092L16.2988 17.9951ZM17.6699 17.1777L17.6187 17.2636L18.9908 18.081L19.042 17.9951L19.0932 17.9092L17.7211 17.0918L17.6699 17.1777ZM19.042 17.9951L19.0931 18.0811L19.8793 17.6133L19.8281 17.5273L19.777 17.4414L18.9909 17.9092L19.042 17.9951ZM19.8281 17.5273H19.9281V3.19043H19.8281H19.7281V17.5273H19.8281ZM19.8281 3.19043H19.9281C19.9281 2.37547 19.2651 1.7125 18.4502 1.7125V1.8125V1.9125C19.1546 1.9125 19.7281 2.48594 19.7281 3.19043H19.8281ZM18.4502 1.8125V1.7125H9.62109V1.8125V1.9125H18.4502V1.8125ZM15.5137 9.66797L15.4793 9.76188C16.0968 9.98773 16.5387 10.5813 16.5387 11.2754H16.6387H16.7387C16.7387 10.4944 16.2416 9.82772 15.548 9.57405L15.5137 9.66797ZM16.6387 11.2754V11.1754H15.4668V11.2754V11.3754H16.6387V11.2754ZM15.4668 11.2754H15.5668C15.5668 10.923 15.28 10.6364 14.9278 10.6363L14.9277 10.7363L14.9277 10.8363C15.1696 10.8364 15.3668 11.0335 15.3668 11.2754H15.4668ZM14.9277 10.7363V10.6363C14.5754 10.6363 14.2887 10.923 14.2887 11.2754H14.3887H14.4887C14.4887 11.0334 14.6858 10.8363 14.9277 10.8363V10.7363ZM14.3887 11.2754L14.2887 11.2754C14.2887 11.6278 14.5753 11.9145 14.9277 11.9145V11.8145V11.7145C14.6858 11.7145 14.4887 11.5173 14.4887 11.2754L14.3887 11.2754ZM14.9277 11.8145L14.9277 11.9145C15.8158 11.9145 16.5387 12.6373 16.5387 13.5254H16.6387H16.7387C16.7387 12.5268 15.9263 11.7145 14.9277 11.7145L14.9277 11.8145ZM16.6387 13.5254L16.5387 13.5254C16.5386 14.2194 16.0968 14.8131 15.4793 15.0389L15.5137 15.1328L15.548 15.2267C16.2416 14.9731 16.7385 14.3063 16.7387 13.5254L16.6387 13.5254ZM15.5137 15.1328H15.4137V15.8154H15.5137H15.6137V15.1328H15.5137ZM15.5137 15.8154V15.7154H14.3418V15.8154V15.9154H15.5137V15.8154ZM14.3418 15.8154H14.4418V15.1328H14.3418H14.2418V15.8154H14.3418ZM14.3418 15.1328L14.3761 15.0389C13.7587 14.8131 13.3169 14.2195 13.3168 13.5254L13.2168 13.5254L13.1168 13.5254C13.1169 14.3063 13.6139 14.9731 14.3075 15.2267L14.3418 15.1328ZM13.2168 13.5254V13.6254H14.3887V13.5254V13.4254H13.2168V13.5254ZM14.3887 13.5254L14.2887 13.5254C14.2889 13.8776 14.5754 14.1645 14.9277 14.1645V14.0645V13.9645C14.6859 13.9645 14.4888 13.7673 14.4887 13.5253L14.3887 13.5254ZM14.9277 14.0645L14.9278 14.1645C15.28 14.1644 15.5666 13.8776 15.5668 13.5254L15.4668 13.5254L15.3668 13.5253C15.3667 13.7672 15.1695 13.9644 14.9277 13.9645L14.9277 14.0645ZM15.4668 13.5254H15.5668C15.5668 13.173 15.28 12.8864 14.9278 12.8863L14.9277 12.9863L14.9277 13.0863C15.1696 13.0864 15.3668 13.2835 15.3668 13.5254H15.4668ZM14.9277 12.9863V12.8863C14.0396 12.8863 13.3168 12.1635 13.3168 11.2754L13.2168 11.2754L13.1168 11.2754C13.1168 12.2739 13.9292 13.0863 14.9277 13.0863V12.9863ZM13.2168 11.2754H13.3168C13.3168 10.5812 13.7585 9.9877 14.3761 9.76189L14.3418 9.66797L14.3075 9.57405C13.6137 9.82769 13.1168 10.4943 13.1168 11.2754H13.2168ZM14.3418 9.66797H14.4418V8.98438H14.3418H14.2418V9.66797H14.3418ZM14.3418 8.98438V9.08438H15.5137V8.98438V8.88437H14.3418V8.98438ZM15.5137 8.98438H15.4137V9.66797H15.5137H15.6137V8.98438H15.5137ZM2.17188 13.1504H2.07187C2.07187 13.9653 2.73485 14.6283 3.5498 14.6283V14.5283V14.4283C2.84531 14.4283 2.27188 13.8549 2.27188 13.1504H2.17188ZM3.5498 14.5283L3.54982 14.6283C4.36468 14.6282 5.02773 13.9653 5.02773 13.1504H4.92773H4.82773C4.82773 13.8548 4.25424 14.4282 3.54979 14.4283L3.5498 14.5283ZM4.92773 13.1504H5.02773V4.79102H4.92773H4.82773V13.1504H4.92773ZM4.92773 4.79102V4.69102H2.17188V4.79102V4.89102H4.92773V4.79102ZM2.17188 4.79102H2.07187V13.1504H2.17188H2.27188V4.79102H2.17188ZM7.47754 1.8125V1.7125C6.66262 1.7125 5.99961 2.37547 5.99961 3.19043H6.09961H6.19961C6.19961 2.48593 6.77308 1.9125 7.47754 1.9125V1.8125ZM6.09961 3.19043H5.99961V12.8457H6.09961H6.19961V3.19043H6.09961ZM6.09961 12.8457V12.9457H8.85449V12.8457V12.7457H6.09961V12.8457ZM8.85449 12.8457H8.95449V3.19043H8.85449H8.75449V12.8457H8.85449ZM8.85449 3.19043H8.95449C8.95449 2.37573 8.29231 1.71277 7.47757 1.7125L7.47754 1.8125L7.47751 1.9125C8.18172 1.91274 8.75449 2.48607 8.75449 3.19043H8.85449ZM18.0029 7.56836V7.46836H11.8525V7.56836V7.66836H18.0029V7.56836ZM11.8525 7.56836H11.9525V6.39648H11.8525H11.7525V7.56836H11.8525ZM11.8525 6.39648V6.49648H18.0029V6.39648V6.29648H11.8525V6.39648ZM18.0029 6.39648H17.9029V7.56836H18.0029H18.1029V6.39648H18.0029ZM18.0029 4.79102V4.69102H11.8525V4.79102V4.89102H18.0029V4.79102ZM11.8525 4.79102H11.9525V3.61914H11.8525H11.7525V4.79102H11.8525ZM11.8525 3.61914V3.71914H18.0029V3.61914V3.51914H11.8525V3.61914ZM18.0029 3.61914H17.9029V4.79102H18.0029H18.1029V3.61914H18.0029Z" fill="#E3E3E3"/>
</svg>
