<svg width="20" height="20" viewBox="0 0 20 20" fill="none" xmlns="http://www.w3.org/2000/svg">
<g clip-path="url(#clip0_2087_8321)">
<path d="M10.293 0C11.0569 0 11.7084 0.489837 11.9502 1.17188H13.8086C14.1322 1.17188 14.3945 1.43422 14.3945 1.75781V2.34375H16.1523C16.4759 2.34375 16.7383 2.60609 16.7383 2.92969V19.4141C16.7383 19.7377 16.4759 20 16.1523 20H3.84766C3.52406 20 3.26172 19.7377 3.26172 19.4141V2.92969C3.26172 2.60609 3.52406 2.34375 3.84766 2.34375H6.19141V1.75781C6.19141 1.43422 6.45375 1.17188 6.77734 1.17188H8.63574C8.8776 0.489837 9.52905 0 10.293 0ZM4.43359 18.8281H15.5664V3.51562H14.3945V4.10156C14.3945 4.42516 14.1322 4.6875 13.8086 4.6875H6.77734C6.45375 4.6875 6.19141 4.42516 6.19141 4.10156V3.51562H4.43359V18.8281ZM7.53516 15.4453C7.76395 15.2164 8.13453 15.2165 8.36328 15.4453C8.59208 15.6741 8.59209 16.0446 8.36328 16.2734L7.19141 17.4453C7.07704 17.5598 6.92726 17.6172 6.77734 17.6172C6.62742 17.6172 6.47769 17.5597 6.36328 17.4453L5.77734 16.8594C5.54852 16.6305 5.54852 16.2601 5.77734 16.0312C6.00617 15.8024 6.37668 15.8024 6.60547 16.0312L6.77734 16.2021L7.53516 15.4453ZM13.8086 16.4453C14.1322 16.4453 14.3945 16.7077 14.3945 17.0312C14.3945 17.3548 14.1322 17.6172 13.8086 17.6172H9.70703C9.38344 17.6172 9.12109 17.3548 9.12109 17.0312C9.12109 16.7077 9.38344 16.4453 9.70703 16.4453H13.8086ZM10 6.48438C11.869 6.48438 12.4994 7.01188 12.6484 7.17383C12.7175 7.24902 12.7664 7.34086 12.7891 7.44043L13.1201 8.89648C13.855 9.10705 14.3945 9.78433 14.3945 10.5859V12.3438C14.3945 12.6673 14.1322 12.9297 13.8086 12.9297V13.5156C13.8086 13.8392 13.5463 14.1016 13.2227 14.1016C12.8991 14.1016 12.6367 13.8392 12.6367 13.5156V12.9297H7.36328V13.5156C7.36328 13.8392 7.10094 14.1016 6.77734 14.1016C6.45375 14.1016 6.19141 13.8392 6.19141 13.5156V12.9297C5.86781 12.9297 5.60547 12.6673 5.60547 12.3438V10.5859C5.60547 9.78429 6.14507 9.10701 6.87988 8.89648L7.21094 7.44043C7.23359 7.34086 7.28246 7.24898 7.35156 7.17383C7.50059 7.01182 8.13106 6.48438 10 6.48438ZM7.36328 10C7.04012 10 6.77734 10.2629 6.77734 10.5859V11.7578H13.2227V10.5859C13.2227 10.2631 12.9603 10.0005 12.6377 10H7.36328ZM10 7.65625C9.00491 7.65625 8.50686 7.82793 8.30273 7.92676L8.09766 8.82812H11.9023L11.6973 7.92676C11.4931 7.82793 10.9951 7.65625 10 7.65625ZM10.293 1.17188C10.0103 1.17188 9.77355 1.37298 9.71875 1.63965L9.69531 1.87598C9.64066 2.14295 9.40422 2.34375 9.12109 2.34375H7.36328V3.51562H13.2227V2.34375H11.4648C11.1817 2.34375 10.9453 2.14295 10.8906 1.87598L10.8672 1.63965C10.8124 1.37298 10.5756 1.17188 10.293 1.17188Z" fill="#556485"/>
<path d="M11.9502 1.17188L11.8559 1.20529L11.8796 1.27188H11.9502V1.17188ZM14.3945 2.34375H14.2945V2.44375H14.3945V2.34375ZM6.19141 2.34375V2.44375H6.29141V2.34375H6.19141ZM8.63574 1.17188V1.27188H8.70638L8.72999 1.2053L8.63574 1.17188ZM4.43359 18.8281H4.33359V18.9281H4.43359V18.8281ZM15.5664 18.8281V18.9281H15.6664V18.8281H15.5664ZM15.5664 3.51562H15.6664V3.41562H15.5664V3.51562ZM14.3945 3.51562V3.41562H14.2945V3.51562H14.3945ZM6.19141 3.51562H6.29141V3.41562H6.19141V3.51562ZM4.43359 3.51562V3.41562H4.33359V3.51562H4.43359ZM7.53516 15.4453L7.60582 15.5161L7.60588 15.516L7.53516 15.4453ZM8.36328 15.4453L8.29256 15.516L8.29257 15.516L8.36328 15.4453ZM8.36328 16.2734L8.43399 16.3441L8.43399 16.3441L8.36328 16.2734ZM7.19141 17.4453L7.1207 17.3746L7.12067 17.3746L7.19141 17.4453ZM6.77734 17.6172L6.77734 17.7172L6.77735 17.7172L6.77734 17.6172ZM6.36328 17.4453L6.29257 17.516L6.29257 17.516L6.36328 17.4453ZM5.77734 16.8594L5.70663 16.9301L5.77734 16.8594ZM5.77734 16.0312L5.70663 15.9605L5.70663 15.9605L5.77734 16.0312ZM6.60547 16.0312L6.53475 16.102L6.53496 16.1022L6.60547 16.0312ZM6.77734 16.2021L6.70683 16.2731L6.7775 16.3433L6.84801 16.2729L6.77734 16.2021ZM12.6484 7.17383L12.7221 7.10616L12.722 7.10612L12.6484 7.17383ZM12.7891 7.44043L12.8866 7.41826L12.8866 7.41824L12.7891 7.44043ZM13.1201 8.89648L13.0226 8.91865L13.0357 8.97633L13.0926 8.99262L13.1201 8.89648ZM13.8086 12.9297V12.8297H13.7086V12.9297H13.8086ZM12.6367 12.9297H12.7367V12.8297H12.6367V12.9297ZM7.36328 12.9297V12.8297H7.26328V12.9297H7.36328ZM6.19141 12.9297H6.29141V12.8297H6.19141V12.9297ZM6.87988 8.89648L6.90743 8.99262L6.96428 8.97633L6.97739 8.91865L6.87988 8.89648ZM7.21094 7.44043L7.11343 7.41824L7.11343 7.41826L7.21094 7.44043ZM7.35156 7.17383L7.27797 7.10613L7.27795 7.10614L7.35156 7.17383ZM6.77734 11.7578H6.67734V11.8578H6.77734V11.7578ZM13.2227 11.7578V11.8578H13.3227V11.7578H13.2227ZM12.6377 10L12.6378 9.9H12.6377V10ZM8.30273 7.92676L8.25916 7.83675L8.21589 7.8577L8.20523 7.90457L8.30273 7.92676ZM8.09766 8.82812L8.00015 8.80594L7.97235 8.92813H8.09766V8.82812ZM11.9023 8.82812V8.92813H12.0277L11.9999 8.80594L11.9023 8.82812ZM11.6973 7.92676L11.7948 7.90457L11.7841 7.8577L11.7408 7.83675L11.6973 7.92676ZM9.71875 1.63965L9.62027 1.61941L9.61924 1.62978L9.71875 1.63965ZM9.69531 1.87598L9.7938 1.89614L9.79482 1.88585L9.69531 1.87598ZM7.36328 2.34375V2.24375H7.26328V2.34375H7.36328ZM7.36328 3.51562H7.26328V3.61563H7.36328V3.51562ZM13.2227 3.51562V3.61563H13.3227V3.51562H13.2227ZM13.2227 2.34375H13.3227V2.24375H13.2227V2.34375ZM10.8906 1.87598L10.7906 1.8859L10.7927 1.89603L10.8906 1.87598ZM10.8672 1.63965L10.9672 1.62973L10.9651 1.61952L10.8672 1.63965ZM10.293 0V0.1C11.0131 0.1 11.6278 0.561799 11.8559 1.20529L11.9502 1.17188L12.0444 1.13846C11.789 0.417875 11.1007 -0.1 10.293 -0.1V0ZM11.9502 1.17188V1.27188H13.8086V1.17188V1.07187H11.9502V1.17188ZM13.8086 1.17188V1.27188C14.077 1.27188 14.2945 1.48945 14.2945 1.75781H14.3945H14.4945C14.4945 1.37899 14.1874 1.07187 13.8086 1.07187V1.17188ZM14.3945 1.75781H14.2945V2.34375H14.3945H14.4945V1.75781H14.3945ZM14.3945 2.34375V2.44375H16.1523V2.34375V2.24375H14.3945V2.34375ZM16.1523 2.34375V2.44375C16.4207 2.44375 16.6383 2.66132 16.6383 2.92969H16.7383H16.8383C16.8383 2.55087 16.5312 2.24375 16.1523 2.24375V2.34375ZM16.7383 2.92969H16.6383V19.4141H16.7383H16.8383V2.92969H16.7383ZM16.7383 19.4141H16.6383C16.6383 19.6824 16.4207 19.9 16.1523 19.9V20V20.1C16.5312 20.1 16.8383 19.7929 16.8383 19.4141H16.7383ZM16.1523 20V19.9H3.84766V20V20.1H16.1523V20ZM3.84766 20V19.9C3.57929 19.9 3.36172 19.6824 3.36172 19.4141H3.26172H3.16172C3.16172 19.7929 3.46883 20.1 3.84766 20.1V20ZM3.26172 19.4141H3.36172V2.92969H3.26172H3.16172V19.4141H3.26172ZM3.26172 2.92969H3.36172C3.36172 2.66132 3.57929 2.44375 3.84766 2.44375V2.34375V2.24375C3.46883 2.24375 3.16172 2.55087 3.16172 2.92969H3.26172ZM3.84766 2.34375V2.44375H6.19141V2.34375V2.24375H3.84766V2.34375ZM6.19141 2.34375H6.29141V1.75781H6.19141H6.09141V2.34375H6.19141ZM6.19141 1.75781H6.29141C6.29141 1.48945 6.50898 1.27188 6.77734 1.27188V1.17188V1.07187C6.39852 1.07187 6.09141 1.37899 6.09141 1.75781H6.19141ZM6.77734 1.17188V1.27188H8.63574V1.17188V1.07187H6.77734V1.17188ZM8.63574 1.17188L8.72999 1.2053C8.95818 0.561796 9.57283 0.1 10.293 0.1V0V-0.1C9.48527 -0.1 8.79701 0.417877 8.54149 1.13845L8.63574 1.17188ZM4.43359 18.8281V18.9281H15.5664V18.8281V18.7281H4.43359V18.8281ZM15.5664 18.8281H15.6664V3.51562H15.5664H15.4664V18.8281H15.5664ZM15.5664 3.51562V3.41562H14.3945V3.51562V3.61563H15.5664V3.51562ZM14.3945 3.51562H14.2945V4.10156H14.3945H14.4945V3.51562H14.3945ZM14.3945 4.10156H14.2945C14.2945 4.36993 14.077 4.5875 13.8086 4.5875V4.6875V4.7875C14.1874 4.7875 14.4945 4.48038 14.4945 4.10156H14.3945ZM13.8086 4.6875V4.5875H6.77734V4.6875V4.7875H13.8086V4.6875ZM6.77734 4.6875V4.5875C6.50898 4.5875 6.29141 4.36993 6.29141 4.10156H6.19141H6.09141C6.09141 4.48038 6.39852 4.7875 6.77734 4.7875V4.6875ZM6.19141 4.10156H6.29141V3.51562H6.19141H6.09141V4.10156H6.19141ZM6.19141 3.51562V3.41562H4.43359V3.51562V3.61563H6.19141V3.51562ZM4.43359 3.51562H4.33359V18.8281H4.43359H4.53359V3.51562H4.43359ZM7.53516 15.4453L7.60588 15.516C7.79561 15.3262 8.10286 15.3262 8.29256 15.516L8.36328 15.4453L8.434 15.3746C8.1662 15.1067 7.73228 15.1067 7.46443 15.3746L7.53516 15.4453ZM8.36328 15.4453L8.29257 15.516C8.48232 15.7058 8.48232 16.013 8.29257 16.2027L8.36328 16.2734L8.43399 16.3441C8.70185 16.0763 8.70184 15.6425 8.434 15.3746L8.36328 15.4453ZM8.36328 16.2734L8.29257 16.2027L7.1207 17.3746L7.19141 17.4453L7.26212 17.516L8.43399 16.3441L8.36328 16.2734ZM7.19141 17.4453L7.12067 17.3746C7.02573 17.4696 6.90169 17.5172 6.77734 17.5172L6.77734 17.6172L6.77735 17.7172C6.95283 17.7172 7.12834 17.6499 7.26214 17.516L7.19141 17.4453ZM6.77734 17.6172V17.5172C6.65302 17.5172 6.52901 17.4696 6.43399 17.3746L6.36328 17.4453L6.29257 17.516C6.42638 17.6498 6.60183 17.7172 6.77734 17.7172V17.6172ZM6.36328 17.4453L6.43399 17.3746L5.84805 16.7887L5.77734 16.8594L5.70663 16.9301L6.29257 17.516L6.36328 17.4453ZM5.77734 16.8594L5.84805 16.7887C5.65828 16.5989 5.65828 16.2917 5.84805 16.102L5.77734 16.0312L5.70663 15.9605C5.43876 16.2284 5.43875 16.6622 5.70663 16.9301L5.77734 16.8594ZM5.77734 16.0312L5.84805 16.102C6.03783 15.9122 6.34502 15.9122 6.53475 16.102L6.60547 16.0312L6.67619 15.9605C6.40834 15.6927 5.97451 15.6927 5.70663 15.9605L5.77734 16.0312ZM6.60547 16.0312L6.53496 16.1022L6.70683 16.2731L6.77734 16.2021L6.84785 16.1312L6.67598 15.9603L6.60547 16.0312ZM6.77734 16.2021L6.84801 16.2729L7.60582 15.5161L7.53516 15.4453L7.46449 15.3746L6.70668 16.1314L6.77734 16.2021ZM13.8086 16.4453V16.5453C14.077 16.5453 14.2945 16.7629 14.2945 17.0312H14.3945H14.4945C14.4945 16.6524 14.1874 16.3453 13.8086 16.3453V16.4453ZM14.3945 17.0312H14.2945C14.2945 17.2996 14.077 17.5172 13.8086 17.5172V17.6172V17.7172C14.1874 17.7172 14.4945 17.4101 14.4945 17.0312H14.3945ZM13.8086 17.6172V17.5172H9.70703V17.6172V17.7172H13.8086V17.6172ZM9.70703 17.6172V17.5172C9.43867 17.5172 9.22109 17.2996 9.22109 17.0312H9.12109H9.02109C9.02109 17.4101 9.32821 17.7172 9.70703 17.7172V17.6172ZM9.12109 17.0312H9.22109C9.22109 16.7629 9.43867 16.5453 9.70703 16.5453V16.4453V16.3453C9.32821 16.3453 9.02109 16.6524 9.02109 17.0312H9.12109ZM9.70703 16.4453V16.5453H13.8086V16.4453V16.3453H9.70703V16.4453ZM10 6.48438V6.58438C11.8501 6.58438 12.4501 7.10598 12.5748 7.24154L12.6484 7.17383L12.722 7.10612C12.5488 6.91778 11.888 6.38437 10 6.38437V6.48438ZM12.6484 7.17383L12.5748 7.24149C12.6324 7.30416 12.6728 7.38041 12.6916 7.46262L12.7891 7.44043L12.8866 7.41824C12.86 7.30131 12.8027 7.19389 12.7221 7.10616L12.6484 7.17383ZM12.7891 7.44043L12.6916 7.4626L13.0226 8.91865L13.1201 8.89648L13.2176 8.87431L12.8866 7.41826L12.7891 7.44043ZM13.1201 8.89648L13.0926 8.99262C13.7859 9.19127 14.2945 9.83029 14.2945 10.5859H14.3945H14.4945C14.4945 9.73837 13.9241 9.02284 13.1477 8.80035L13.1201 8.89648ZM14.3945 10.5859H14.2945V12.3438H14.3945H14.4945V10.5859H14.3945ZM14.3945 12.3438H14.2945C14.2945 12.6121 14.077 12.8297 13.8086 12.8297V12.9297V13.0297C14.1874 13.0297 14.4945 12.7226 14.4945 12.3438H14.3945ZM13.8086 12.9297H13.7086V13.5156H13.8086H13.9086V12.9297H13.8086ZM13.8086 13.5156H13.7086C13.7086 13.784 13.491 14.0016 13.2227 14.0016V14.1016V14.2016C13.6015 14.2016 13.9086 13.8944 13.9086 13.5156H13.8086ZM13.2227 14.1016V14.0016C12.9543 14.0016 12.7367 13.784 12.7367 13.5156H12.6367H12.5367C12.5367 13.8944 12.8438 14.2016 13.2227 14.2016V14.1016ZM12.6367 13.5156H12.7367V12.9297H12.6367H12.5367V13.5156H12.6367ZM12.6367 12.9297V12.8297H7.36328V12.9297V13.0297H12.6367V12.9297ZM7.36328 12.9297H7.26328V13.5156H7.36328H7.46328V12.9297H7.36328ZM7.36328 13.5156H7.26328C7.26328 13.784 7.04571 14.0016 6.77734 14.0016V14.1016V14.2016C7.15617 14.2016 7.46328 13.8944 7.46328 13.5156H7.36328ZM6.77734 14.1016V14.0016C6.50898 14.0016 6.29141 13.784 6.29141 13.5156H6.19141H6.09141C6.09141 13.8944 6.39852 14.2016 6.77734 14.2016V14.1016ZM6.19141 13.5156H6.29141V12.9297H6.19141H6.09141V13.5156H6.19141ZM6.19141 12.9297V12.8297C5.92304 12.8297 5.70547 12.6121 5.70547 12.3438H5.60547H5.50547C5.50547 12.7226 5.81258 13.0297 6.19141 13.0297V12.9297ZM5.60547 12.3438H5.70547V10.5859H5.60547H5.50547V12.3438H5.60547ZM5.60547 10.5859H5.70547C5.70547 9.83025 6.21421 9.19123 6.90743 8.99262L6.87988 8.89648L6.85234 8.80035C6.07594 9.0228 5.50547 9.73833 5.50547 10.5859H5.60547ZM6.87988 8.89648L6.97739 8.91865L7.30845 7.4626L7.21094 7.44043L7.11343 7.41826L6.78237 8.87431L6.87988 8.89648ZM7.21094 7.44043L7.30845 7.46262C7.32715 7.38039 7.36762 7.30412 7.42518 7.24151L7.35156 7.17383L7.27795 7.10614C7.19731 7.19385 7.14003 7.30133 7.11343 7.41824L7.21094 7.44043ZM7.35156 7.17383L7.42516 7.24153C7.5499 7.10592 8.15 6.58438 10 6.58438V6.48438V6.38437C8.11212 6.38437 7.45128 6.91772 7.27797 7.10613L7.35156 7.17383ZM7.36328 10V9.9C6.98488 9.9 6.67734 10.2076 6.67734 10.5859H6.77734H6.87734C6.87734 10.3181 7.09535 10.1 7.36328 10.1V10ZM6.77734 10.5859H6.67734V11.7578H6.77734H6.87734V10.5859H6.77734ZM6.77734 11.7578V11.8578H13.2227V11.7578V11.6578H6.77734V11.7578ZM13.2227 11.7578H13.3227V10.5859H13.2227H13.1227V11.7578H13.2227ZM13.2227 10.5859H13.3227C13.3227 10.208 13.0156 9.90055 12.6378 9.9L12.6377 10L12.6375 10.1C12.905 10.1004 13.1227 10.3183 13.1227 10.5859H13.2227ZM12.6377 10V9.9H7.36328V10V10.1H12.6377V10ZM10 7.65625V7.55625C8.99367 7.55625 8.47996 7.72985 8.25916 7.83675L8.30273 7.92676L8.34631 8.01676C8.53376 7.92601 9.01614 7.75625 10 7.75625V7.65625ZM8.30273 7.92676L8.20523 7.90457L8.00015 8.80594L8.09766 8.82812L8.19516 8.85031L8.40024 7.94894L8.30273 7.92676ZM8.09766 8.82812V8.92813H11.9023V8.82812V8.72812H8.09766V8.82812ZM11.9023 8.82812L11.9999 8.80594L11.7948 7.90457L11.6973 7.92676L11.5998 7.94894L11.8048 8.85031L11.9023 8.82812ZM11.6973 7.92676L11.7408 7.83675C11.52 7.72985 11.0063 7.55625 10 7.55625V7.65625V7.75625C10.9839 7.75625 11.4662 7.92601 11.6537 8.01676L11.6973 7.92676ZM10.293 1.17188V1.07187C9.9619 1.07187 9.68495 1.3073 9.6208 1.61952L9.71875 1.63965L9.8167 1.65978C9.86214 1.43866 10.0588 1.27188 10.293 1.27188V1.17188ZM9.71875 1.63965L9.61924 1.62978L9.5958 1.86611L9.69531 1.87598L9.79482 1.88585L9.81826 1.64952L9.71875 1.63965ZM9.69531 1.87598L9.59734 1.85592C9.55204 2.07724 9.35583 2.24375 9.12109 2.24375V2.34375V2.44375C9.45261 2.44375 9.72928 2.20866 9.79328 1.89603L9.69531 1.87598ZM9.12109 2.34375V2.24375H7.36328V2.34375V2.44375H9.12109V2.34375ZM7.36328 2.34375H7.26328V3.51562H7.36328H7.46328V2.34375H7.36328ZM7.36328 3.51562V3.61563H13.2227V3.51562V3.41562H7.36328V3.51562ZM13.2227 3.51562H13.3227V2.34375H13.2227H13.1227V3.51562H13.2227ZM13.2227 2.34375V2.24375H11.4648V2.34375V2.44375H13.2227V2.34375ZM11.4648 2.34375V2.24375C11.2301 2.24375 11.0339 2.07724 10.9886 1.85592L10.8906 1.87598L10.7927 1.89603C10.8567 2.20866 11.1333 2.44375 11.4648 2.44375V2.34375ZM10.8906 1.87598L10.9901 1.86611L10.9667 1.62978L10.8672 1.63965L10.7677 1.64952L10.7911 1.88585L10.8906 1.87598ZM10.8672 1.63965L10.9651 1.61952C10.901 1.3073 10.624 1.07187 10.293 1.07187V1.17188V1.27188C10.5272 1.27188 10.7238 1.43866 10.7692 1.65978L10.8672 1.63965Z" fill="#556485"/>
</g>
<defs>
<clipPath id="clip0_2087_8321">
<rect width="20" height="20" fill="white"/>
</clipPath>
</defs>
</svg>
